G04 #@! TF.FileFunction,Copper,L4,Bot,Signal*
%FSLAX46Y46*%
G04 Gerber Fmt 4.6, Leading zero omitted, Abs format (unit mm)*
G04 Created by KiCad (PCBNEW 4.0.5) date 03/01/17 00:06:24*
%MOMM*%
%LPD*%
G01*
G04 APERTURE LIST*
%ADD10C,0.100000*%
%ADD11C,0.600000*%
%ADD12R,1.524000X1.524000*%
%ADD13C,1.524000*%
%ADD14R,0.635000X1.143000*%
%ADD15R,0.889000X1.397000*%
%ADD16R,1.500000X3.950000*%
%ADD17R,3.950000X1.500000*%
%ADD18C,0.250000*%
%ADD19C,0.150000*%
G04 APERTURE END LIST*
D10*
D11*
X150475000Y-118000000D03*
X150475000Y-116500000D03*
X150475000Y-115000000D03*
X148975000Y-118000000D03*
X148975000Y-116500000D03*
X148975000Y-115000000D03*
X147475000Y-118000000D03*
X147475000Y-116500000D03*
X147475000Y-115000000D03*
X180200000Y-103100000D03*
X180200000Y-104000000D03*
X180200000Y-104900000D03*
X181100000Y-103100000D03*
X181100000Y-104000000D03*
X181100000Y-104900000D03*
X182000000Y-103100000D03*
X182000000Y-104000000D03*
X182000000Y-104900000D03*
D12*
X153850000Y-123000000D03*
D13*
X151310000Y-123000000D03*
X148770000Y-123000000D03*
X146230000Y-123000000D03*
X143690000Y-123000000D03*
X141150000Y-123000000D03*
D14*
X182000000Y-100000000D03*
X180476000Y-100000000D03*
D15*
X182250000Y-98250000D03*
X180345000Y-98250000D03*
D14*
X184750000Y-102709216D03*
X186274000Y-102709216D03*
D15*
X184746053Y-100917685D03*
X186651053Y-100917685D03*
D14*
X184726000Y-105250000D03*
X186250000Y-105250000D03*
D15*
X184776053Y-106962127D03*
X186681053Y-106962127D03*
D14*
X181774000Y-108000000D03*
X180250000Y-108000000D03*
D15*
X181905000Y-109750000D03*
X180000000Y-109750000D03*
D14*
X163750000Y-116250000D03*
X165274000Y-116250000D03*
D15*
X155905000Y-116500000D03*
X154000000Y-116500000D03*
D16*
X175230000Y-87475000D03*
X180770000Y-87475000D03*
X184480000Y-87475000D03*
X190020000Y-87475000D03*
D17*
X195350000Y-88980000D03*
X195350000Y-94520000D03*
X195350000Y-98230000D03*
X195350000Y-103770000D03*
X195350000Y-107480000D03*
X195350000Y-113020000D03*
X195350000Y-116730000D03*
X195350000Y-122270000D03*
D16*
X181020000Y-122350000D03*
X175480000Y-122350000D03*
X190270000Y-122350000D03*
X184730000Y-122350000D03*
D11*
X158000000Y-117000000D03*
X159000000Y-99000000D03*
X157000000Y-99000000D03*
X157000000Y-101000000D03*
X159000000Y-101000000D03*
X166000000Y-109000000D03*
X166000000Y-112000000D03*
X168000000Y-112000000D03*
X173000000Y-103000000D03*
X168000000Y-104000000D03*
X166000000Y-104000000D03*
X164000000Y-104000000D03*
X163000000Y-105000000D03*
X166000000Y-95000000D03*
X168000000Y-95000000D03*
X170000000Y-95000000D03*
X170000000Y-93000000D03*
X168000000Y-93000000D03*
X166000000Y-93000000D03*
X142000000Y-104000000D03*
X142000000Y-106000000D03*
X142000000Y-108000000D03*
X142000000Y-110000000D03*
X140000000Y-110000000D03*
X140000000Y-108000000D03*
X140000000Y-106000000D03*
X140000000Y-104000000D03*
X140000000Y-102000000D03*
X166000000Y-86000000D03*
X164000000Y-86000000D03*
X162000000Y-86000000D03*
X160000000Y-86000000D03*
X158000000Y-86000000D03*
X156000000Y-86000000D03*
X154000000Y-86000000D03*
X152000000Y-86000000D03*
X150000000Y-86000000D03*
X148000000Y-86000000D03*
X156000000Y-108000000D03*
X157000000Y-110000000D03*
X158000000Y-112000000D03*
X159000000Y-120000000D03*
X159000000Y-117000000D03*
X154000000Y-108000000D03*
X152000000Y-109000000D03*
X150000000Y-109000000D03*
X148000000Y-110000000D03*
X169000000Y-117000000D03*
X167000000Y-118000000D03*
X143000000Y-119000000D03*
X141000000Y-119000000D03*
X141000000Y-121000000D03*
X174000000Y-91000000D03*
X174000000Y-94000000D03*
X156000000Y-124000000D03*
X158000000Y-124000000D03*
X160000000Y-124000000D03*
X164000000Y-124000000D03*
X166000000Y-124000000D03*
X168000000Y-124000000D03*
X170000000Y-124000000D03*
X172000000Y-124000000D03*
X165250000Y-117750000D03*
X178378761Y-108378761D03*
X173750000Y-88500000D03*
X172750000Y-88500000D03*
X172750000Y-87500000D03*
X172750000Y-86500000D03*
X173750000Y-86500000D03*
X173750000Y-87500000D03*
X174250000Y-123500000D03*
X174250000Y-121250000D03*
X174250000Y-122250000D03*
X183500000Y-124000000D03*
X182250000Y-124000000D03*
X182250000Y-123000000D03*
X183500000Y-123000000D03*
X183500000Y-122000000D03*
X183500000Y-121000000D03*
X182250000Y-121000000D03*
X182250000Y-122000000D03*
X191500000Y-121500000D03*
X192250000Y-122250000D03*
X192750000Y-123000000D03*
X191500000Y-123000000D03*
X192250000Y-123750000D03*
X193250000Y-123750000D03*
X194250000Y-123750000D03*
X196250000Y-123750000D03*
X195250000Y-123750000D03*
X193250000Y-115500000D03*
X193250000Y-114500000D03*
X194250000Y-114500000D03*
X194250000Y-115500000D03*
X195250000Y-115500000D03*
X196250000Y-115500000D03*
X197250000Y-115500000D03*
X197250000Y-114500000D03*
X196250000Y-114500000D03*
X195250000Y-114500000D03*
X193250000Y-106250000D03*
X193250000Y-105250000D03*
X194250000Y-105250000D03*
X194250000Y-106250000D03*
X195250000Y-106250000D03*
X196250000Y-106250000D03*
X197250000Y-106250000D03*
X197250000Y-105250000D03*
X196250000Y-105250000D03*
X195250000Y-105250000D03*
X193250000Y-96750000D03*
X193250000Y-95750000D03*
X194250000Y-95750000D03*
X194250000Y-96750000D03*
X195250000Y-96750000D03*
X196250000Y-96750000D03*
X197250000Y-96750000D03*
X197250000Y-95750000D03*
X196250000Y-95750000D03*
X195250000Y-95750000D03*
X192500000Y-89500000D03*
X191500000Y-89500000D03*
X191500000Y-88500000D03*
X192500000Y-88500000D03*
X192500000Y-87500000D03*
X193500000Y-87500000D03*
X194500000Y-87500000D03*
X195500000Y-87500000D03*
X196500000Y-87500000D03*
X196500000Y-86500000D03*
X195500000Y-86500000D03*
X194500000Y-86500000D03*
X193500000Y-86500000D03*
X192500000Y-86500000D03*
X191500000Y-86500000D03*
X191500000Y-87500000D03*
X182000000Y-89300000D03*
X183000000Y-89300000D03*
X183000000Y-88400000D03*
X182000000Y-88400000D03*
X183000000Y-85700000D03*
X182000000Y-85700000D03*
X182000000Y-86600000D03*
X183000000Y-86600000D03*
X183000000Y-87500000D03*
X182000000Y-87500000D03*
X183881551Y-106300000D03*
X183700000Y-101700000D03*
X179400000Y-98200000D03*
X186900000Y-103700000D03*
X187600000Y-100900000D03*
X187300000Y-105300000D03*
X187600000Y-107000000D03*
X180000000Y-110900000D03*
X178000000Y-97600000D03*
X179500000Y-99300000D03*
X178500000Y-101750000D03*
X177500000Y-108500000D03*
X176250000Y-105750000D03*
X175500000Y-105250000D03*
X152250000Y-121775010D03*
X183300000Y-99200000D03*
X178900000Y-109600000D03*
X157750000Y-115750000D03*
X159250000Y-108000000D03*
X185000000Y-108500000D03*
X176750000Y-106750000D03*
X176750000Y-100250000D03*
X158000000Y-103250000D03*
X153750000Y-97000000D03*
X161500000Y-91750000D03*
X161500000Y-92500000D03*
X160250000Y-91750000D03*
X144000000Y-114000000D03*
X153092840Y-116494244D03*
X162750000Y-116250000D03*
X169750000Y-111500000D03*
X171000000Y-111250000D03*
X172500000Y-90250000D03*
X172500000Y-91250000D03*
X150250000Y-93250000D03*
X149500000Y-93000000D03*
X173700000Y-104100000D03*
X182100000Y-101000000D03*
X175900000Y-96600000D03*
X184154354Y-103675000D03*
X184628767Y-104325000D03*
X175000000Y-118800000D03*
X179900000Y-112200000D03*
X181900000Y-107000000D03*
X183000000Y-106250000D03*
X150250000Y-121500000D03*
X182951904Y-101753435D03*
X150500000Y-120750000D03*
X179182499Y-107251875D03*
X149750000Y-112000000D03*
X148750000Y-111250000D03*
X152750000Y-111750000D03*
X144848571Y-108848571D03*
X144750000Y-115000000D03*
X154500000Y-101750000D03*
X145000000Y-116000000D03*
X155500000Y-121000000D03*
X153072772Y-115666491D03*
X153263946Y-114941255D03*
X141250000Y-114500000D03*
X140500000Y-112750000D03*
X153000000Y-113750000D03*
X144250000Y-119250000D03*
D18*
X155905000Y-116500000D02*
X157500000Y-116500000D01*
X157500000Y-116500000D02*
X158000000Y-117000000D01*
X165250000Y-117095500D02*
X165250000Y-117750000D01*
X165274000Y-116250000D02*
X165274000Y-117071500D01*
X165274000Y-117071500D02*
X165250000Y-117095500D01*
X165274000Y-116250000D02*
X165274000Y-117476000D01*
X165274000Y-117476000D02*
X165250000Y-117500000D01*
X172750000Y-87500000D02*
X172750000Y-88500000D01*
X173750000Y-86500000D02*
X172750000Y-86500000D01*
X175230000Y-87475000D02*
X173775000Y-87475000D01*
X173775000Y-87475000D02*
X173750000Y-87500000D01*
X174250000Y-121250000D02*
X174250000Y-123500000D01*
X175480000Y-122350000D02*
X174350000Y-122350000D01*
X174350000Y-122350000D02*
X174250000Y-122250000D01*
X182250000Y-124000000D02*
X183500000Y-124000000D01*
X183500000Y-123000000D02*
X182250000Y-123000000D01*
X183500000Y-121000000D02*
X183500000Y-122000000D01*
X182250000Y-122000000D02*
X182250000Y-121000000D01*
X192250000Y-122250000D02*
X192000000Y-122250000D01*
X192000000Y-122250000D02*
X191500000Y-121750000D01*
X191500000Y-123000000D02*
X192750000Y-123000000D01*
X193250000Y-123750000D02*
X192250000Y-123750000D01*
X195250000Y-123750000D02*
X194250000Y-123750000D01*
X195250000Y-123750000D02*
X196250000Y-123750000D01*
X194250000Y-114500000D02*
X193250000Y-114500000D01*
X195250000Y-115500000D02*
X194250000Y-115500000D01*
X197250000Y-115500000D02*
X196250000Y-115500000D01*
X196250000Y-114500000D02*
X197250000Y-114500000D01*
X195350000Y-113020000D02*
X195350000Y-114400000D01*
X195350000Y-114400000D02*
X195250000Y-114500000D01*
X193250000Y-105250000D02*
X193250000Y-106250000D01*
X194250000Y-106250000D02*
X194250000Y-105250000D01*
X196250000Y-106250000D02*
X195250000Y-106250000D01*
X197250000Y-106250000D02*
X196250000Y-106250000D01*
X196250000Y-105250000D02*
X197250000Y-105250000D01*
X195350000Y-103770000D02*
X195350000Y-105150000D01*
X195350000Y-105150000D02*
X195250000Y-105250000D01*
X193250000Y-95750000D02*
X193250000Y-96750000D01*
X194250000Y-96750000D02*
X194250000Y-95750000D01*
X196250000Y-96750000D02*
X195250000Y-96750000D01*
X197250000Y-95750000D02*
X197250000Y-96750000D01*
X195250000Y-95750000D02*
X196250000Y-95750000D01*
X192500000Y-89500000D02*
X194830000Y-89500000D01*
X194830000Y-89500000D02*
X195350000Y-88980000D01*
X191500000Y-88500000D02*
X191500000Y-89500000D01*
X192500000Y-87500000D02*
X192500000Y-88500000D01*
X194500000Y-87500000D02*
X193500000Y-87500000D01*
X196500000Y-87500000D02*
X195500000Y-87500000D01*
X195500000Y-86500000D02*
X196500000Y-86500000D01*
X193500000Y-86500000D02*
X194500000Y-86500000D01*
X191500000Y-86500000D02*
X192500000Y-86500000D01*
X190020000Y-87475000D02*
X191475000Y-87475000D01*
X191475000Y-87475000D02*
X191500000Y-87500000D01*
X183000000Y-88400000D02*
X183000000Y-89300000D01*
X182000000Y-87500000D02*
X182000000Y-88400000D01*
X182000000Y-86600000D02*
X182000000Y-85700000D01*
X183000000Y-87500000D02*
X183000000Y-86600000D01*
X180770000Y-87475000D02*
X181975000Y-87475000D01*
X181975000Y-87475000D02*
X182000000Y-87500000D01*
X180345000Y-98250000D02*
X179450000Y-98250000D01*
X179450000Y-98250000D02*
X179400000Y-98200000D01*
X180476000Y-100000000D02*
X180476000Y-98381000D01*
X180476000Y-98381000D02*
X180345000Y-98250000D01*
X186274000Y-102709216D02*
X186274000Y-103074000D01*
X186274000Y-103074000D02*
X186900000Y-103700000D01*
X186651053Y-100917685D02*
X187582315Y-100917685D01*
X187582315Y-100917685D02*
X187600000Y-100900000D01*
X186250000Y-105250000D02*
X187250000Y-105250000D01*
X187250000Y-105250000D02*
X187300000Y-105300000D01*
X186681053Y-106962127D02*
X187562127Y-106962127D01*
X187562127Y-106962127D02*
X187600000Y-107000000D01*
X180250000Y-108000000D02*
X180250000Y-109500000D01*
X180250000Y-109500000D02*
X180000000Y-109750000D01*
X180000000Y-109750000D02*
X180000000Y-110900000D01*
X153098596Y-116500000D02*
X153092840Y-116494244D01*
X154000000Y-116500000D02*
X153098596Y-116500000D01*
X163750000Y-116250000D02*
X162750000Y-116250000D01*
X179800000Y-101900000D02*
X181200000Y-101900000D01*
X181200000Y-101900000D02*
X182100000Y-101000000D01*
X177899999Y-103800001D02*
X179800000Y-101900000D01*
X173700000Y-104100000D02*
X173999999Y-103800001D01*
X173999999Y-103800001D02*
X177899999Y-103800001D01*
X183500000Y-95600000D02*
X184746053Y-96846053D01*
X184746053Y-96846053D02*
X184746053Y-100917685D01*
X176900000Y-95600000D02*
X183500000Y-95600000D01*
X175900000Y-96600000D02*
X176900000Y-95600000D01*
X184600000Y-103653618D02*
X184627098Y-103653618D01*
X184627098Y-103653618D02*
X184750000Y-103530716D01*
X184750000Y-103530716D02*
X184750000Y-102709216D01*
X184154354Y-103675000D02*
X184578618Y-103675000D01*
X184578618Y-103675000D02*
X184600000Y-103653618D01*
X184628767Y-104325000D02*
X184628767Y-105152767D01*
X184628767Y-105152767D02*
X184726000Y-105250000D01*
X184662342Y-105186342D02*
X184726000Y-105250000D01*
X175000000Y-118800000D02*
X175424264Y-118800000D01*
X175424264Y-118800000D02*
X177224264Y-117000000D01*
X177224264Y-117000000D02*
X179900000Y-117000000D01*
X179900000Y-117000000D02*
X183700000Y-113200000D01*
X183700000Y-113200000D02*
X183700000Y-107300000D01*
X184037873Y-106962127D02*
X184776053Y-106962127D01*
X183700000Y-107300000D02*
X184037873Y-106962127D01*
X179900000Y-112200000D02*
X181905000Y-110195000D01*
X181905000Y-110195000D02*
X181905000Y-109750000D01*
D19*
X150250000Y-121500000D02*
X151722998Y-121500000D01*
X151722998Y-121500000D02*
X151972998Y-121250000D01*
X151972998Y-121250000D02*
X153000000Y-121250000D01*
X153000000Y-121250000D02*
X153750000Y-122000000D01*
X153750000Y-122000000D02*
X171022998Y-122000000D01*
X171022998Y-122000000D02*
X180022998Y-113000000D01*
X180022998Y-113000000D02*
X182000000Y-113000000D01*
X182000000Y-113000000D02*
X183000000Y-112000000D01*
X183000000Y-112000000D02*
X183000000Y-106250000D01*
X154500000Y-120777002D02*
X154500000Y-120750000D01*
X182951904Y-101753435D02*
X182951904Y-105048096D01*
X182951904Y-105048096D02*
X182250000Y-105750000D01*
X182250000Y-105750000D02*
X181205998Y-105750000D01*
X181205998Y-105750000D02*
X179707499Y-107248499D01*
X179707499Y-107248499D02*
X179707499Y-107792501D01*
X179707499Y-107792501D02*
X165974999Y-121525001D01*
X155247999Y-121525001D02*
X154500000Y-120777002D01*
X165974999Y-121525001D02*
X155247999Y-121525001D01*
X154500000Y-120750000D02*
X150500000Y-120750000D01*
X179000000Y-107250000D02*
X179180624Y-107250000D01*
X179180624Y-107250000D02*
X179182499Y-107251875D01*
X179000000Y-107250000D02*
X177000000Y-107250000D01*
X155000000Y-113750000D02*
X153549999Y-112299999D01*
X153549999Y-112299999D02*
X150049999Y-112299999D01*
X177000000Y-107250000D02*
X170500000Y-113750000D01*
X170500000Y-113750000D02*
X155000000Y-113750000D01*
X150049999Y-112299999D02*
X149750000Y-112000000D01*
X152500000Y-111500000D02*
X152250000Y-111250000D01*
X152250000Y-111250000D02*
X149174264Y-111250000D01*
X149174264Y-111250000D02*
X148750000Y-111250000D01*
X152750000Y-111750000D02*
X152500000Y-111500000D01*
X144750000Y-108947142D02*
X144848571Y-108848571D01*
X144750000Y-115000000D02*
X144750000Y-108947142D01*
X145275001Y-111224999D02*
X154500000Y-102000000D01*
X154500000Y-102000000D02*
X154500000Y-101750000D01*
X145000000Y-116000000D02*
X145000000Y-115527002D01*
X145000000Y-115527002D02*
X145275001Y-115252001D01*
X145275001Y-115252001D02*
X145275001Y-111224999D01*
X154750000Y-115750000D02*
X154750000Y-120250000D01*
X154750000Y-120250000D02*
X155500000Y-121000000D01*
X154576499Y-115576499D02*
X154750000Y-115750000D01*
X153072772Y-115666491D02*
X153162764Y-115576499D01*
X153162764Y-115576499D02*
X154576499Y-115576499D01*
X146500000Y-116750000D02*
X146500000Y-114500000D01*
X152963947Y-114641256D02*
X153263946Y-114941255D01*
X144000000Y-117250000D02*
X146000000Y-117250000D01*
X141250000Y-114500000D02*
X144000000Y-117250000D01*
X146500000Y-114500000D02*
X147250000Y-113750000D01*
X146000000Y-117250000D02*
X146500000Y-116750000D01*
X152072691Y-113750000D02*
X152963947Y-114641256D01*
X147250000Y-113750000D02*
X152072691Y-113750000D01*
X144540030Y-116790030D02*
X140799999Y-113049999D01*
X145709970Y-116790030D02*
X144540030Y-116790030D01*
X146000000Y-116500000D02*
X145709970Y-116790030D01*
X146000000Y-114250000D02*
X146000000Y-116500000D01*
X146800011Y-113449989D02*
X146000000Y-114250000D01*
X153000000Y-113750000D02*
X152699989Y-113449989D01*
X140799999Y-113049999D02*
X140500000Y-112750000D01*
X152699989Y-113449989D02*
X146800011Y-113449989D01*
X145000000Y-123250000D02*
X145000000Y-120000000D01*
X145000000Y-120000000D02*
X144250000Y-119250000D01*
X146000000Y-124250000D02*
X145000000Y-123250000D01*
X153512000Y-124250000D02*
X146000000Y-124250000D01*
X153850000Y-123000000D02*
X153850000Y-123912000D01*
X153850000Y-123912000D02*
X153512000Y-124250000D01*
G36*
X173175000Y-98718934D02*
X171696967Y-100196967D01*
X171680512Y-100221778D01*
X171675000Y-100250000D01*
X171675000Y-111468934D01*
X171218934Y-111925000D01*
X169531066Y-111925000D01*
X169075000Y-111468934D01*
X169075000Y-110031066D01*
X170303033Y-108803033D01*
X170319488Y-108778222D01*
X170325000Y-108750000D01*
X170325000Y-100281066D01*
X171803033Y-98803033D01*
X171819488Y-98778222D01*
X171825000Y-98750000D01*
X171825000Y-89825000D01*
X173175000Y-89825000D01*
X173175000Y-98718934D01*
X173175000Y-98718934D01*
G37*
X173175000Y-98718934D02*
X171696967Y-100196967D01*
X171680512Y-100221778D01*
X171675000Y-100250000D01*
X171675000Y-111468934D01*
X171218934Y-111925000D01*
X169531066Y-111925000D01*
X169075000Y-111468934D01*
X169075000Y-110031066D01*
X170303033Y-108803033D01*
X170319488Y-108778222D01*
X170325000Y-108750000D01*
X170325000Y-100281066D01*
X171803033Y-98803033D01*
X171819488Y-98778222D01*
X171825000Y-98750000D01*
X171825000Y-89825000D01*
X173175000Y-89825000D01*
X173175000Y-98718934D01*
G36*
X182125000Y-108600000D02*
X182130909Y-108629179D01*
X182146967Y-108653033D01*
X182425000Y-108931066D01*
X182425000Y-110368934D01*
X182268934Y-110525000D01*
X181531066Y-110525000D01*
X181375000Y-110368934D01*
X181375000Y-109731066D01*
X181453033Y-109653033D01*
X181469488Y-109628222D01*
X181475000Y-109600000D01*
X181475000Y-106575000D01*
X182125000Y-106575000D01*
X182125000Y-108600000D01*
X182125000Y-108600000D01*
G37*
X182125000Y-108600000D02*
X182130909Y-108629179D01*
X182146967Y-108653033D01*
X182425000Y-108931066D01*
X182425000Y-110368934D01*
X182268934Y-110525000D01*
X181531066Y-110525000D01*
X181375000Y-110368934D01*
X181375000Y-109731066D01*
X181453033Y-109653033D01*
X181469488Y-109628222D01*
X181475000Y-109600000D01*
X181475000Y-106575000D01*
X182125000Y-106575000D01*
X182125000Y-108600000D01*
G36*
X185225000Y-107625000D02*
X184375000Y-107625000D01*
X184375000Y-106480650D01*
X184406459Y-106404887D01*
X184406642Y-106196029D01*
X184375000Y-106119450D01*
X184375000Y-104675000D01*
X185225000Y-104675000D01*
X185225000Y-107625000D01*
X185225000Y-107625000D01*
G37*
X185225000Y-107625000D02*
X184375000Y-107625000D01*
X184375000Y-106480650D01*
X184406459Y-106404887D01*
X184406642Y-106196029D01*
X184375000Y-106119450D01*
X184375000Y-104675000D01*
X185225000Y-104675000D01*
X185225000Y-107625000D01*
G36*
X185225000Y-101568934D02*
X185046967Y-101746967D01*
X185030512Y-101771778D01*
X185025000Y-101800000D01*
X185025000Y-103225000D01*
X184275000Y-103225000D01*
X184275000Y-100275000D01*
X185225000Y-100275000D01*
X185225000Y-101568934D01*
X185225000Y-101568934D01*
G37*
X185225000Y-101568934D02*
X185046967Y-101746967D01*
X185030512Y-101771778D01*
X185025000Y-101800000D01*
X185025000Y-103225000D01*
X184275000Y-103225000D01*
X184275000Y-100275000D01*
X185225000Y-100275000D01*
X185225000Y-101568934D01*
G36*
X182625000Y-101337954D02*
X182537802Y-101425000D01*
X181775000Y-101425000D01*
X181775000Y-97575000D01*
X182625000Y-97575000D01*
X182625000Y-101337954D01*
X182625000Y-101337954D01*
G37*
X182625000Y-101337954D02*
X182537802Y-101425000D01*
X181775000Y-101425000D01*
X181775000Y-97575000D01*
X182625000Y-97575000D01*
X182625000Y-101337954D01*
G36*
X185225000Y-89425000D02*
X180075000Y-89425000D01*
X180075000Y-85475000D01*
X185225000Y-85475000D01*
X185225000Y-89425000D01*
X185225000Y-89425000D01*
G37*
X185225000Y-89425000D02*
X180075000Y-89425000D01*
X180075000Y-85475000D01*
X185225000Y-85475000D01*
X185225000Y-89425000D01*
G36*
X197325000Y-89725000D02*
X189275000Y-89725000D01*
X189275000Y-85475000D01*
X197325000Y-85475000D01*
X197325000Y-89725000D01*
X197325000Y-89725000D01*
G37*
X197325000Y-89725000D02*
X189275000Y-89725000D01*
X189275000Y-85475000D01*
X197325000Y-85475000D01*
X197325000Y-89725000D01*
G36*
X197325000Y-99025000D02*
X193375000Y-99025000D01*
X193375000Y-93775000D01*
X197325000Y-93775000D01*
X197325000Y-99025000D01*
X197325000Y-99025000D01*
G37*
X197325000Y-99025000D02*
X193375000Y-99025000D01*
X193375000Y-93775000D01*
X197325000Y-93775000D01*
X197325000Y-99025000D01*
G36*
X197425000Y-108175000D02*
X193325000Y-108175000D01*
X193325000Y-103075000D01*
X197425000Y-103075000D01*
X197425000Y-108175000D01*
X197425000Y-108175000D01*
G37*
X197425000Y-108175000D02*
X193325000Y-108175000D01*
X193325000Y-103075000D01*
X197425000Y-103075000D01*
X197425000Y-108175000D01*
G36*
X197425000Y-117425000D02*
X193325000Y-117425000D01*
X193325000Y-112325000D01*
X197425000Y-112325000D01*
X197425000Y-117425000D01*
X197425000Y-117425000D01*
G37*
X197425000Y-117425000D02*
X193325000Y-117425000D01*
X193325000Y-112325000D01*
X197425000Y-112325000D01*
X197425000Y-117425000D01*
G36*
X192446967Y-121553033D02*
X192471778Y-121569488D01*
X192500000Y-121575000D01*
X197425000Y-121575000D01*
X197425000Y-124425000D01*
X189575000Y-124425000D01*
X189575000Y-120325000D01*
X191218934Y-120325000D01*
X192446967Y-121553033D01*
X192446967Y-121553033D01*
G37*
X192446967Y-121553033D02*
X192471778Y-121569488D01*
X192500000Y-121575000D01*
X197425000Y-121575000D01*
X197425000Y-124425000D01*
X189575000Y-124425000D01*
X189575000Y-120325000D01*
X191218934Y-120325000D01*
X192446967Y-121553033D01*
G36*
X185425000Y-124425000D02*
X180325000Y-124425000D01*
X180325000Y-120325000D01*
X185425000Y-120325000D01*
X185425000Y-124425000D01*
X185425000Y-124425000D01*
G37*
X185425000Y-124425000D02*
X180325000Y-124425000D01*
X180325000Y-120325000D01*
X185425000Y-120325000D01*
X185425000Y-124425000D01*
G36*
X176175000Y-124425000D02*
X173825000Y-124425000D01*
X173825000Y-120325000D01*
X176175000Y-120325000D01*
X176175000Y-124425000D01*
X176175000Y-124425000D01*
G37*
X176175000Y-124425000D02*
X173825000Y-124425000D01*
X173825000Y-120325000D01*
X176175000Y-120325000D01*
X176175000Y-124425000D01*
G36*
X175925000Y-89425000D02*
X172575000Y-89425000D01*
X172575000Y-85575000D01*
X175925000Y-85575000D01*
X175925000Y-89425000D01*
X175925000Y-89425000D01*
G37*
X175925000Y-89425000D02*
X172575000Y-89425000D01*
X172575000Y-85575000D01*
X175925000Y-85575000D01*
X175925000Y-89425000D01*
M02*
