G04 #@! TF.FileFunction,Paste,Top*
%FSLAX46Y46*%
G04 Gerber Fmt 4.6, Leading zero omitted, Abs format (unit mm)*
G04 Created by KiCad (PCBNEW 4.0.5) date 03/01/17 00:06:24*
%MOMM*%
%LPD*%
G01*
G04 APERTURE LIST*
%ADD10C,0.100000*%
%ADD11R,0.707106X0.707106*%
%ADD12R,1.050000X0.250000*%
%ADD13R,0.250000X1.050000*%
%ADD14R,0.441941X0.441941*%
%ADD15O,0.900000X0.250000*%
%ADD16O,0.250000X0.900000*%
%ADD17R,1.200000X1.400000*%
%ADD18R,2.301240X0.500380*%
%ADD19R,2.499360X1.998980*%
%ADD20R,1.397000X0.431800*%
%ADD21R,0.600000X2.200000*%
%ADD22R,0.300000X1.600000*%
%ADD23R,0.889000X1.397000*%
%ADD24R,1.397000X0.889000*%
%ADD25R,0.635000X1.143000*%
%ADD26R,1.143000X0.635000*%
%ADD27R,0.600000X0.500000*%
%ADD28R,0.500000X0.600000*%
%ADD29R,0.797560X0.797560*%
%ADD30R,1.100000X0.600000*%
%ADD31R,1.500000X3.950000*%
%ADD32R,1.500000X4.250000*%
%ADD33R,3.950000X1.500000*%
%ADD34R,4.250000X1.500000*%
%ADD35C,2.500000*%
G04 APERTURE END LIST*
D10*
D11*
X150621446Y-118146446D03*
X150621446Y-117048815D03*
X150621446Y-115951185D03*
X150621446Y-114853554D03*
X149523815Y-118146446D03*
X149523815Y-117048815D03*
X149523815Y-115951185D03*
X149523815Y-114853554D03*
X148426185Y-118146446D03*
X148426185Y-117048815D03*
X148426185Y-115951185D03*
X148426185Y-114853554D03*
X147328554Y-118146446D03*
X147328554Y-117048815D03*
X147328554Y-115951185D03*
X147328554Y-114853554D03*
D12*
X151950000Y-118500000D03*
X151950000Y-118000000D03*
X151950000Y-117500000D03*
X151950000Y-117000000D03*
X151950000Y-116500000D03*
X151950000Y-116000000D03*
X151950000Y-115500000D03*
X151950000Y-115000000D03*
X151950000Y-114500000D03*
D13*
X150975000Y-113525000D03*
X150475000Y-113525000D03*
X149975000Y-113525000D03*
X149475000Y-113525000D03*
X148975000Y-113525000D03*
X148475000Y-113525000D03*
X147975000Y-113525000D03*
X147475000Y-113525000D03*
X146975000Y-113525000D03*
D12*
X146000000Y-114500000D03*
X146000000Y-115000000D03*
X146000000Y-115500000D03*
X146000000Y-116000000D03*
X146000000Y-116500000D03*
X146000000Y-117000000D03*
X146000000Y-117500000D03*
X146000000Y-118000000D03*
X146000000Y-118500000D03*
D13*
X146975000Y-119475000D03*
X147475000Y-119475000D03*
X147975000Y-119475000D03*
X148475000Y-119475000D03*
X148975000Y-119475000D03*
X149475000Y-119475000D03*
X149975000Y-119475000D03*
X150475000Y-119475000D03*
X150975000Y-119475000D03*
D14*
X180070971Y-102970971D03*
X180070971Y-103656991D03*
X180070971Y-104343009D03*
X180070971Y-105029029D03*
X180756991Y-102970971D03*
X180756991Y-103656991D03*
X180756991Y-104343009D03*
X180756991Y-105029029D03*
X181443009Y-102970971D03*
X181443009Y-103656991D03*
X181443009Y-104343009D03*
X181443009Y-105029029D03*
X182129029Y-102970971D03*
X182129029Y-103656991D03*
X182129029Y-104343009D03*
X182129029Y-105029029D03*
D15*
X179050000Y-102750000D03*
X179050000Y-103250000D03*
X179050000Y-103750000D03*
X179050000Y-104250000D03*
X179050000Y-104750000D03*
X179050000Y-105250000D03*
D16*
X179850000Y-106050000D03*
X180350000Y-106050000D03*
X180850000Y-106050000D03*
X181350000Y-106050000D03*
X181850000Y-106050000D03*
X182350000Y-106050000D03*
D15*
X183150000Y-105250000D03*
X183150000Y-104750000D03*
X183150000Y-104250000D03*
X183150000Y-103750000D03*
X183150000Y-103250000D03*
X183150000Y-102750000D03*
D16*
X182350000Y-101950000D03*
X181850000Y-101950000D03*
X181350000Y-101950000D03*
X180850000Y-101950000D03*
X180350000Y-101950000D03*
X179850000Y-101950000D03*
D17*
X177350000Y-104100000D03*
X177350000Y-101900000D03*
X175650000Y-101900000D03*
X175650000Y-104100000D03*
D18*
X146449320Y-92399800D03*
X146449320Y-93199900D03*
X146449320Y-94000000D03*
X146449320Y-94800100D03*
X146449320Y-95600200D03*
D19*
X146350260Y-89549920D03*
X140851160Y-89549920D03*
X146350260Y-98450080D03*
X140851160Y-98450080D03*
D20*
X160588000Y-112987300D03*
X160588000Y-112352300D03*
X160588000Y-111691900D03*
X160588000Y-111056900D03*
X160588000Y-110396500D03*
X160588000Y-109748800D03*
X160588000Y-109101100D03*
X155000000Y-109101100D03*
X155000000Y-109748800D03*
X155000000Y-110396500D03*
X155000000Y-111056900D03*
X155000000Y-111704600D03*
X155000000Y-112352300D03*
X155000000Y-113000000D03*
D21*
X172620000Y-121750000D03*
X172620000Y-114250000D03*
X171350000Y-121750000D03*
X171350000Y-114250000D03*
X170080000Y-121750000D03*
X170080000Y-114250000D03*
X168810000Y-121750000D03*
X168810000Y-114250000D03*
X167540000Y-121750000D03*
X167540000Y-114250000D03*
X166270000Y-121750000D03*
X166270000Y-114250000D03*
X165000000Y-121750000D03*
X165000000Y-114250000D03*
X163730000Y-121750000D03*
X163730000Y-114250000D03*
X172620000Y-107250000D03*
X172620000Y-99750000D03*
X171350000Y-107250000D03*
X171350000Y-99750000D03*
X170080000Y-107250000D03*
X170080000Y-99750000D03*
X168810000Y-107250000D03*
X168810000Y-99750000D03*
X167540000Y-107250000D03*
X167540000Y-99750000D03*
X166270000Y-107250000D03*
X166270000Y-99750000D03*
X165000000Y-107250000D03*
X165000000Y-99750000D03*
X163730000Y-107250000D03*
X163730000Y-99750000D03*
D22*
X155850000Y-106000000D03*
X155850000Y-100400000D03*
X155200000Y-106000000D03*
X155200000Y-100400000D03*
X154550000Y-106000000D03*
X154550000Y-100400000D03*
X153900000Y-106000000D03*
X153900000Y-100400000D03*
X153250000Y-106000000D03*
X153250000Y-100400000D03*
X152600000Y-106000000D03*
X152600000Y-100400000D03*
X151950000Y-106000000D03*
X151950000Y-100400000D03*
X151300000Y-106000000D03*
X151300000Y-100400000D03*
X150650000Y-106000000D03*
X150650000Y-100400000D03*
X150000000Y-106000000D03*
X150000000Y-100400000D03*
D17*
X156350000Y-118850000D03*
X156350000Y-116650000D03*
X154650000Y-116650000D03*
X154650000Y-118850000D03*
X146150000Y-101650000D03*
X146150000Y-103850000D03*
X147850000Y-103850000D03*
X147850000Y-101650000D03*
D23*
X158750000Y-114500000D03*
X156845000Y-114500000D03*
D24*
X160500000Y-106095000D03*
X160500000Y-108000000D03*
D25*
X157738000Y-119000000D03*
X159262000Y-119000000D03*
X162250000Y-120500000D03*
X160726000Y-120500000D03*
D24*
X162250000Y-121845000D03*
X162250000Y-123750000D03*
D25*
X163738000Y-112250000D03*
X165262000Y-112250000D03*
X154226000Y-115000000D03*
X155750000Y-115000000D03*
D23*
X162655000Y-114750000D03*
X160750000Y-114750000D03*
D25*
X162750000Y-99000000D03*
X161226000Y-99000000D03*
D23*
X162750000Y-101750000D03*
X160845000Y-101750000D03*
D26*
X162500000Y-107500000D03*
X162500000Y-105976000D03*
D23*
X163845000Y-110750000D03*
X165750000Y-110750000D03*
X172595000Y-92500000D03*
X174500000Y-92500000D03*
X169655000Y-110250000D03*
X167750000Y-110250000D03*
X172405000Y-97000000D03*
X170500000Y-97000000D03*
X172595000Y-111500000D03*
X174500000Y-111500000D03*
D25*
X144774000Y-101750000D03*
X143250000Y-101750000D03*
X146524000Y-105500000D03*
X145000000Y-105500000D03*
D24*
X149500000Y-92202500D03*
X149500000Y-90297500D03*
X154000000Y-92405000D03*
X154000000Y-90500000D03*
D26*
X160250000Y-97512000D03*
X160250000Y-95988000D03*
D23*
X164500000Y-92500000D03*
X162595000Y-92500000D03*
D24*
X178000000Y-100405000D03*
X178000000Y-98500000D03*
D27*
X179500000Y-101000000D03*
X179500000Y-100000000D03*
X177500000Y-106750000D03*
X177500000Y-107750000D03*
D28*
X178000000Y-105750000D03*
X177000000Y-105750000D03*
D27*
X178500000Y-106750000D03*
X178500000Y-107750000D03*
X184000000Y-108000000D03*
X184000000Y-107000000D03*
X184000000Y-100000000D03*
X184000000Y-101000000D03*
X178000000Y-92250000D03*
X178000000Y-91250000D03*
X187250000Y-92250000D03*
X187250000Y-91250000D03*
D28*
X191000000Y-91750000D03*
X192000000Y-91750000D03*
X191000000Y-101000000D03*
X192000000Y-101000000D03*
X191000000Y-110250000D03*
X192000000Y-110250000D03*
X191000000Y-119500000D03*
X192000000Y-119500000D03*
D27*
X187500000Y-118000000D03*
X187500000Y-119000000D03*
X178250000Y-118000000D03*
X178250000Y-119000000D03*
D26*
X172500000Y-93976000D03*
X172500000Y-95500000D03*
D25*
X170988000Y-110000000D03*
X172512000Y-110000000D03*
X150976000Y-92500000D03*
X152500000Y-92500000D03*
X162250000Y-119250000D03*
X160726000Y-119250000D03*
X162762000Y-100250000D03*
X161238000Y-100250000D03*
X163750000Y-109250000D03*
X165274000Y-109250000D03*
D26*
X156750000Y-120988000D03*
X156750000Y-122512000D03*
X142000000Y-113726000D03*
X142000000Y-115250000D03*
X140250000Y-113726000D03*
X140250000Y-115250000D03*
D27*
X183000000Y-108000000D03*
X183000000Y-107000000D03*
X183000000Y-100000000D03*
X183000000Y-101000000D03*
X179500000Y-109000000D03*
X179500000Y-108000000D03*
D28*
X180500000Y-100250000D03*
X181500000Y-100250000D03*
D27*
X185400000Y-102500000D03*
X185400000Y-103500000D03*
X185400000Y-104500000D03*
X185400000Y-105500000D03*
D28*
X181500000Y-107750000D03*
X180500000Y-107750000D03*
D29*
X158251400Y-122500000D03*
X159750000Y-122500000D03*
X142000000Y-116250700D03*
X142000000Y-117749300D03*
X140250000Y-116250700D03*
X140250000Y-117749300D03*
D10*
G36*
X146070395Y-110768258D02*
X147058223Y-111756086D01*
X146429605Y-112384704D01*
X145441777Y-111396876D01*
X146070395Y-110768258D01*
X146070395Y-110768258D01*
G37*
G36*
X144723357Y-112115296D02*
X145711185Y-113103124D01*
X145082567Y-113731742D01*
X144094739Y-112743914D01*
X144723357Y-112115296D01*
X144723357Y-112115296D01*
G37*
D23*
X154155000Y-120500000D03*
X152250000Y-120500000D03*
X143500000Y-120500000D03*
X145405000Y-120500000D03*
D24*
X158000000Y-106250000D03*
X158000000Y-104345000D03*
D23*
X155655000Y-98250000D03*
X153750000Y-98250000D03*
D30*
X160350000Y-92550000D03*
X157650000Y-92550000D03*
X157650000Y-93500000D03*
X160350000Y-94450000D03*
X157650000Y-94450000D03*
D31*
X175230000Y-87475000D03*
X180770000Y-87475000D03*
D32*
X178000000Y-87325000D03*
D31*
X184480000Y-87475000D03*
X190020000Y-87475000D03*
D32*
X187250000Y-87325000D03*
D33*
X195350000Y-88980000D03*
X195350000Y-94520000D03*
D34*
X195500000Y-91750000D03*
D33*
X195350000Y-98230000D03*
X195350000Y-103770000D03*
D34*
X195500000Y-101000000D03*
D33*
X195350000Y-107480000D03*
X195350000Y-113020000D03*
D34*
X195500000Y-110250000D03*
D33*
X195350000Y-116730000D03*
X195350000Y-122270000D03*
D34*
X195500000Y-119500000D03*
D31*
X181020000Y-122350000D03*
X175480000Y-122350000D03*
D32*
X178250000Y-122500000D03*
D31*
X190270000Y-122350000D03*
X184730000Y-122350000D03*
D32*
X187500000Y-122500000D03*
D35*
X169600000Y-87000000D03*
X143600000Y-87000000D03*
M02*
