G04 #@! TF.FileFunction,Soldermask,Bot*
%FSLAX46Y46*%
G04 Gerber Fmt 4.6, Leading zero omitted, Abs format (unit mm)*
G04 Created by KiCad (PCBNEW 4.0.5) date 03/01/17 00:06:24*
%MOMM*%
%LPD*%
G01*
G04 APERTURE LIST*
%ADD10C,0.100000*%
%ADD11C,0.600000*%
%ADD12C,0.899160*%
%ADD13R,1.524000X1.524000*%
%ADD14C,1.524000*%
%ADD15R,0.635000X1.143000*%
%ADD16R,0.889000X1.397000*%
%ADD17R,1.500000X3.950000*%
%ADD18R,3.950000X1.500000*%
%ADD19C,2.500000*%
G04 APERTURE END LIST*
D10*
D11*
X150475000Y-118000000D03*
X150475000Y-116500000D03*
X150475000Y-115000000D03*
X148975000Y-118000000D03*
X148975000Y-116500000D03*
X148975000Y-115000000D03*
X147475000Y-118000000D03*
X147475000Y-116500000D03*
X147475000Y-115000000D03*
X180200000Y-103100000D03*
X180200000Y-104000000D03*
X180200000Y-104900000D03*
X181100000Y-103100000D03*
X181100000Y-104000000D03*
X181100000Y-104900000D03*
X182000000Y-103100000D03*
X182000000Y-104000000D03*
X182000000Y-104900000D03*
D12*
X143850900Y-91800360D03*
X143850900Y-96199640D03*
D13*
X153850000Y-123000000D03*
D14*
X151310000Y-123000000D03*
X148770000Y-123000000D03*
X146230000Y-123000000D03*
X143690000Y-123000000D03*
X141150000Y-123000000D03*
D15*
X182000000Y-100000000D03*
X180476000Y-100000000D03*
D16*
X182250000Y-98250000D03*
X180345000Y-98250000D03*
D15*
X184750000Y-102709216D03*
X186274000Y-102709216D03*
D16*
X184746053Y-100917685D03*
X186651053Y-100917685D03*
D15*
X184726000Y-105250000D03*
X186250000Y-105250000D03*
D16*
X184776053Y-106962127D03*
X186681053Y-106962127D03*
D15*
X181774000Y-108000000D03*
X180250000Y-108000000D03*
D16*
X181905000Y-109750000D03*
X180000000Y-109750000D03*
D15*
X163750000Y-116250000D03*
X165274000Y-116250000D03*
D16*
X155905000Y-116500000D03*
X154000000Y-116500000D03*
D17*
X175230000Y-87475000D03*
X180770000Y-87475000D03*
X184480000Y-87475000D03*
X190020000Y-87475000D03*
D18*
X195350000Y-88980000D03*
X195350000Y-94520000D03*
X195350000Y-98230000D03*
X195350000Y-103770000D03*
X195350000Y-107480000D03*
X195350000Y-113020000D03*
X195350000Y-116730000D03*
X195350000Y-122270000D03*
D17*
X181020000Y-122350000D03*
X175480000Y-122350000D03*
X190270000Y-122350000D03*
X184730000Y-122350000D03*
D19*
X169600000Y-87000000D03*
X143600000Y-87000000D03*
M02*
