G04 #@! TF.FileFunction,Copper,L2,Inr,Signal*
%FSLAX46Y46*%
G04 Gerber Fmt 4.6, Leading zero omitted, Abs format (unit mm)*
G04 Created by KiCad (PCBNEW 4.0.5) date 03/01/17 00:06:24*
%MOMM*%
%LPD*%
G01*
G04 APERTURE LIST*
%ADD10C,0.100000*%
%ADD11C,0.600000*%
%ADD12R,1.524000X1.524000*%
%ADD13C,1.524000*%
%ADD14C,0.150000*%
G04 APERTURE END LIST*
D10*
D11*
X150475000Y-118000000D03*
X150475000Y-116500000D03*
X150475000Y-115000000D03*
X148975000Y-118000000D03*
X148975000Y-116500000D03*
X148975000Y-115000000D03*
X147475000Y-118000000D03*
X147475000Y-116500000D03*
X147475000Y-115000000D03*
X180200000Y-103100000D03*
X180200000Y-104000000D03*
X180200000Y-104900000D03*
X181100000Y-103100000D03*
X181100000Y-104000000D03*
X181100000Y-104900000D03*
X182000000Y-103100000D03*
X182000000Y-104000000D03*
X182000000Y-104900000D03*
D12*
X153850000Y-123000000D03*
D13*
X151310000Y-123000000D03*
X148770000Y-123000000D03*
X146230000Y-123000000D03*
X143690000Y-123000000D03*
X141150000Y-123000000D03*
D11*
X158000000Y-117000000D03*
X159000000Y-99000000D03*
X157000000Y-99000000D03*
X157000000Y-101000000D03*
X159000000Y-101000000D03*
X166000000Y-109000000D03*
X166000000Y-112000000D03*
X168000000Y-112000000D03*
X173000000Y-103000000D03*
X168000000Y-104000000D03*
X166000000Y-104000000D03*
X164000000Y-104000000D03*
X163000000Y-105000000D03*
X166000000Y-95000000D03*
X168000000Y-95000000D03*
X170000000Y-95000000D03*
X170000000Y-93000000D03*
X168000000Y-93000000D03*
X166000000Y-93000000D03*
X142000000Y-104000000D03*
X142000000Y-106000000D03*
X142000000Y-108000000D03*
X142000000Y-110000000D03*
X140000000Y-110000000D03*
X140000000Y-108000000D03*
X140000000Y-106000000D03*
X140000000Y-104000000D03*
X140000000Y-102000000D03*
X166000000Y-86000000D03*
X164000000Y-86000000D03*
X162000000Y-86000000D03*
X160000000Y-86000000D03*
X158000000Y-86000000D03*
X156000000Y-86000000D03*
X154000000Y-86000000D03*
X152000000Y-86000000D03*
X150000000Y-86000000D03*
X148000000Y-86000000D03*
X156000000Y-108000000D03*
X157000000Y-110000000D03*
X158000000Y-112000000D03*
X159000000Y-120000000D03*
X159000000Y-117000000D03*
X154000000Y-108000000D03*
X152000000Y-109000000D03*
X150000000Y-109000000D03*
X148000000Y-110000000D03*
X169000000Y-117000000D03*
X167000000Y-118000000D03*
X143000000Y-119000000D03*
X141000000Y-119000000D03*
X141000000Y-121000000D03*
X174000000Y-91000000D03*
X174000000Y-94000000D03*
X156000000Y-124000000D03*
X158000000Y-124000000D03*
X160000000Y-124000000D03*
X164000000Y-124000000D03*
X166000000Y-124000000D03*
X168000000Y-124000000D03*
X170000000Y-124000000D03*
X172000000Y-124000000D03*
X165250000Y-117750000D03*
X178378761Y-108378761D03*
X173750000Y-88500000D03*
X172750000Y-88500000D03*
X172750000Y-87500000D03*
X172750000Y-86500000D03*
X173750000Y-86500000D03*
X173750000Y-87500000D03*
X174250000Y-123500000D03*
X174250000Y-121250000D03*
X174250000Y-122250000D03*
X183500000Y-124000000D03*
X182250000Y-124000000D03*
X182250000Y-123000000D03*
X183500000Y-123000000D03*
X183500000Y-122000000D03*
X183500000Y-121000000D03*
X182250000Y-121000000D03*
X182250000Y-122000000D03*
X191500000Y-121500000D03*
X192250000Y-122250000D03*
X192750000Y-123000000D03*
X191500000Y-123000000D03*
X192250000Y-123750000D03*
X193250000Y-123750000D03*
X194250000Y-123750000D03*
X196250000Y-123750000D03*
X195250000Y-123750000D03*
X193250000Y-115500000D03*
X193250000Y-114500000D03*
X194250000Y-114500000D03*
X194250000Y-115500000D03*
X195250000Y-115500000D03*
X196250000Y-115500000D03*
X197250000Y-115500000D03*
X197250000Y-114500000D03*
X196250000Y-114500000D03*
X195250000Y-114500000D03*
X193250000Y-106250000D03*
X193250000Y-105250000D03*
X194250000Y-105250000D03*
X194250000Y-106250000D03*
X195250000Y-106250000D03*
X196250000Y-106250000D03*
X197250000Y-106250000D03*
X197250000Y-105250000D03*
X196250000Y-105250000D03*
X195250000Y-105250000D03*
X193250000Y-96750000D03*
X193250000Y-95750000D03*
X194250000Y-95750000D03*
X194250000Y-96750000D03*
X195250000Y-96750000D03*
X196250000Y-96750000D03*
X197250000Y-96750000D03*
X197250000Y-95750000D03*
X196250000Y-95750000D03*
X195250000Y-95750000D03*
X192500000Y-89500000D03*
X191500000Y-89500000D03*
X191500000Y-88500000D03*
X192500000Y-88500000D03*
X192500000Y-87500000D03*
X193500000Y-87500000D03*
X194500000Y-87500000D03*
X195500000Y-87500000D03*
X196500000Y-87500000D03*
X196500000Y-86500000D03*
X195500000Y-86500000D03*
X194500000Y-86500000D03*
X193500000Y-86500000D03*
X192500000Y-86500000D03*
X191500000Y-86500000D03*
X191500000Y-87500000D03*
X182000000Y-89300000D03*
X183000000Y-89300000D03*
X183000000Y-88400000D03*
X182000000Y-88400000D03*
X183000000Y-85700000D03*
X182000000Y-85700000D03*
X182000000Y-86600000D03*
X183000000Y-86600000D03*
X183000000Y-87500000D03*
X182000000Y-87500000D03*
X183881551Y-106300000D03*
X183700000Y-101700000D03*
X179400000Y-98200000D03*
X186900000Y-103700000D03*
X187600000Y-100900000D03*
X187300000Y-105300000D03*
X187600000Y-107000000D03*
X180000000Y-110900000D03*
X178000000Y-97600000D03*
X179500000Y-99300000D03*
X178500000Y-101750000D03*
X177500000Y-108500000D03*
X176250000Y-105750000D03*
X175500000Y-105250000D03*
X152250000Y-121775010D03*
X183300000Y-99200000D03*
X178900000Y-109600000D03*
X157750000Y-115750000D03*
X159250000Y-108000000D03*
X185000000Y-108500000D03*
X176750000Y-106750000D03*
X176750000Y-100250000D03*
X158000000Y-103250000D03*
X153750000Y-97000000D03*
X161500000Y-91750000D03*
X161500000Y-92500000D03*
X160250000Y-91750000D03*
X144000000Y-114000000D03*
X153092840Y-116494244D03*
X162750000Y-116250000D03*
X169750000Y-111500000D03*
X171000000Y-111250000D03*
X172500000Y-90250000D03*
X172500000Y-91250000D03*
X150250000Y-93250000D03*
X149500000Y-93000000D03*
X173700000Y-104100000D03*
X182100000Y-101000000D03*
X175900000Y-96600000D03*
X184154354Y-103675000D03*
X184628767Y-104325000D03*
X175000000Y-118800000D03*
X179900000Y-112200000D03*
X181900000Y-107000000D03*
X183000000Y-106250000D03*
X150250000Y-121500000D03*
X182951904Y-101753435D03*
X150500000Y-120750000D03*
X179182499Y-107251875D03*
X149750000Y-112000000D03*
X148750000Y-111250000D03*
X152750000Y-111750000D03*
X144848571Y-108848571D03*
X144750000Y-115000000D03*
X154500000Y-101750000D03*
X145000000Y-116000000D03*
X155500000Y-121000000D03*
X153072772Y-115666491D03*
X153263946Y-114941255D03*
X141250000Y-114500000D03*
X140500000Y-112750000D03*
X153000000Y-113750000D03*
X144250000Y-119250000D03*
D14*
G36*
X197700000Y-124700000D02*
X139300000Y-124700000D01*
X139300000Y-123195465D01*
X142702830Y-123195465D01*
X142852775Y-123558360D01*
X143130180Y-123836250D01*
X143492812Y-123986828D01*
X143885465Y-123987170D01*
X144248360Y-123837225D01*
X144526250Y-123559820D01*
X144676828Y-123197188D01*
X144676829Y-123195465D01*
X145242830Y-123195465D01*
X145392775Y-123558360D01*
X145670180Y-123836250D01*
X146032812Y-123986828D01*
X146425465Y-123987170D01*
X146788360Y-123837225D01*
X147066250Y-123559820D01*
X147216828Y-123197188D01*
X147216829Y-123195465D01*
X147782830Y-123195465D01*
X147932775Y-123558360D01*
X148210180Y-123836250D01*
X148572812Y-123986828D01*
X148965465Y-123987170D01*
X149328360Y-123837225D01*
X149606250Y-123559820D01*
X149756828Y-123197188D01*
X149756829Y-123195465D01*
X150322830Y-123195465D01*
X150472775Y-123558360D01*
X150750180Y-123836250D01*
X151112812Y-123986828D01*
X151505465Y-123987170D01*
X151868360Y-123837225D01*
X152146250Y-123559820D01*
X152296828Y-123197188D01*
X152297170Y-122804535D01*
X152147225Y-122441640D01*
X151869820Y-122163750D01*
X151507188Y-122013172D01*
X151114535Y-122012830D01*
X150751640Y-122162775D01*
X150473750Y-122440180D01*
X150323172Y-122802812D01*
X150322830Y-123195465D01*
X149756829Y-123195465D01*
X149757170Y-122804535D01*
X149607225Y-122441640D01*
X149329820Y-122163750D01*
X148967188Y-122013172D01*
X148574535Y-122012830D01*
X148211640Y-122162775D01*
X147933750Y-122440180D01*
X147783172Y-122802812D01*
X147782830Y-123195465D01*
X147216829Y-123195465D01*
X147217170Y-122804535D01*
X147067225Y-122441640D01*
X146789820Y-122163750D01*
X146427188Y-122013172D01*
X146034535Y-122012830D01*
X145671640Y-122162775D01*
X145393750Y-122440180D01*
X145243172Y-122802812D01*
X145242830Y-123195465D01*
X144676829Y-123195465D01*
X144677170Y-122804535D01*
X144527225Y-122441640D01*
X144249820Y-122163750D01*
X143887188Y-122013172D01*
X143494535Y-122012830D01*
X143131640Y-122162775D01*
X142853750Y-122440180D01*
X142703172Y-122802812D01*
X142702830Y-123195465D01*
X139300000Y-123195465D01*
X139300000Y-121603971D01*
X149724909Y-121603971D01*
X149804667Y-121797000D01*
X149952223Y-121944814D01*
X150145113Y-122024908D01*
X150353971Y-122025091D01*
X150547000Y-121945333D01*
X150613468Y-121878981D01*
X151724909Y-121878981D01*
X151804667Y-122072010D01*
X151952223Y-122219824D01*
X152145113Y-122299918D01*
X152353971Y-122300101D01*
X152504266Y-122238000D01*
X152858592Y-122238000D01*
X152858592Y-123762000D01*
X152874281Y-123845380D01*
X152923559Y-123921960D01*
X152998747Y-123973334D01*
X153088000Y-123991408D01*
X154612000Y-123991408D01*
X154695380Y-123975719D01*
X154771960Y-123926441D01*
X154823334Y-123851253D01*
X154841408Y-123762000D01*
X154841408Y-122238000D01*
X154825719Y-122154620D01*
X154776441Y-122078040D01*
X154701253Y-122026666D01*
X154612000Y-122008592D01*
X153088000Y-122008592D01*
X153004620Y-122024281D01*
X152928040Y-122073559D01*
X152876666Y-122148747D01*
X152858592Y-122238000D01*
X152504266Y-122238000D01*
X152547000Y-122220343D01*
X152694814Y-122072787D01*
X152774908Y-121879897D01*
X152775091Y-121671039D01*
X152695333Y-121478010D01*
X152547777Y-121330196D01*
X152354887Y-121250102D01*
X152146029Y-121249919D01*
X151953000Y-121329677D01*
X151805186Y-121477233D01*
X151725092Y-121670123D01*
X151724909Y-121878981D01*
X150613468Y-121878981D01*
X150694814Y-121797777D01*
X150774908Y-121604887D01*
X150775091Y-121396029D01*
X150707453Y-121232333D01*
X150797000Y-121195333D01*
X150888521Y-121103971D01*
X154974909Y-121103971D01*
X155054667Y-121297000D01*
X155202223Y-121444814D01*
X155395113Y-121524908D01*
X155603971Y-121525091D01*
X155797000Y-121445333D01*
X155944814Y-121297777D01*
X156024908Y-121104887D01*
X156025091Y-120896029D01*
X155945333Y-120703000D01*
X155797777Y-120555186D01*
X155604887Y-120475092D01*
X155396029Y-120474909D01*
X155203000Y-120554667D01*
X155055186Y-120702223D01*
X154975092Y-120895113D01*
X154974909Y-121103971D01*
X150888521Y-121103971D01*
X150944814Y-121047777D01*
X151024908Y-120854887D01*
X151025091Y-120646029D01*
X150945333Y-120453000D01*
X150797777Y-120305186D01*
X150604887Y-120225092D01*
X150396029Y-120224909D01*
X150203000Y-120304667D01*
X150055186Y-120452223D01*
X149975092Y-120645113D01*
X149974909Y-120853971D01*
X150042547Y-121017667D01*
X149953000Y-121054667D01*
X149805186Y-121202223D01*
X149725092Y-121395113D01*
X149724909Y-121603971D01*
X139300000Y-121603971D01*
X139300000Y-119353971D01*
X143724909Y-119353971D01*
X143804667Y-119547000D01*
X143952223Y-119694814D01*
X144145113Y-119774908D01*
X144353971Y-119775091D01*
X144547000Y-119695333D01*
X144694814Y-119547777D01*
X144774908Y-119354887D01*
X144775091Y-119146029D01*
X144695333Y-118953000D01*
X144646390Y-118903971D01*
X174474909Y-118903971D01*
X174554667Y-119097000D01*
X174702223Y-119244814D01*
X174895113Y-119324908D01*
X175103971Y-119325091D01*
X175297000Y-119245333D01*
X175444814Y-119097777D01*
X175524908Y-118904887D01*
X175525091Y-118696029D01*
X175445333Y-118503000D01*
X175297777Y-118355186D01*
X175104887Y-118275092D01*
X174896029Y-118274909D01*
X174703000Y-118354667D01*
X174555186Y-118502223D01*
X174475092Y-118695113D01*
X174474909Y-118903971D01*
X144646390Y-118903971D01*
X144547777Y-118805186D01*
X144354887Y-118725092D01*
X144146029Y-118724909D01*
X143953000Y-118804667D01*
X143805186Y-118952223D01*
X143725092Y-119145113D01*
X143724909Y-119353971D01*
X139300000Y-119353971D01*
X139300000Y-115103971D01*
X144224909Y-115103971D01*
X144304667Y-115297000D01*
X144452223Y-115444814D01*
X144645113Y-115524908D01*
X144774747Y-115525022D01*
X144703000Y-115554667D01*
X144555186Y-115702223D01*
X144475092Y-115895113D01*
X144474909Y-116103971D01*
X144554667Y-116297000D01*
X144702223Y-116444814D01*
X144895113Y-116524908D01*
X145103971Y-116525091D01*
X145297000Y-116445333D01*
X145444814Y-116297777D01*
X145524908Y-116104887D01*
X145525091Y-115896029D01*
X145473208Y-115770462D01*
X152547681Y-115770462D01*
X152627439Y-115963491D01*
X152754202Y-116090476D01*
X152648026Y-116196467D01*
X152567932Y-116389357D01*
X152567749Y-116598215D01*
X152647507Y-116791244D01*
X152795063Y-116939058D01*
X152987953Y-117019152D01*
X153196811Y-117019335D01*
X153389840Y-116939577D01*
X153537654Y-116792021D01*
X153617748Y-116599131D01*
X153617931Y-116390273D01*
X153602932Y-116353971D01*
X162224909Y-116353971D01*
X162304667Y-116547000D01*
X162452223Y-116694814D01*
X162645113Y-116774908D01*
X162853971Y-116775091D01*
X163047000Y-116695333D01*
X163194814Y-116547777D01*
X163274908Y-116354887D01*
X163275091Y-116146029D01*
X163195333Y-115953000D01*
X163047777Y-115805186D01*
X162854887Y-115725092D01*
X162646029Y-115724909D01*
X162453000Y-115804667D01*
X162305186Y-115952223D01*
X162225092Y-116145113D01*
X162224909Y-116353971D01*
X153602932Y-116353971D01*
X153538173Y-116197244D01*
X153411410Y-116070259D01*
X153517586Y-115964268D01*
X153563384Y-115853971D01*
X157224909Y-115853971D01*
X157304667Y-116047000D01*
X157452223Y-116194814D01*
X157645113Y-116274908D01*
X157853971Y-116275091D01*
X158047000Y-116195333D01*
X158194814Y-116047777D01*
X158274908Y-115854887D01*
X158275091Y-115646029D01*
X158195333Y-115453000D01*
X158047777Y-115305186D01*
X157854887Y-115225092D01*
X157646029Y-115224909D01*
X157453000Y-115304667D01*
X157305186Y-115452223D01*
X157225092Y-115645113D01*
X157224909Y-115853971D01*
X153563384Y-115853971D01*
X153597680Y-115771378D01*
X153597863Y-115562520D01*
X153530387Y-115399215D01*
X153560946Y-115386588D01*
X153708760Y-115239032D01*
X153788854Y-115046142D01*
X153789037Y-114837284D01*
X153709279Y-114644255D01*
X153561723Y-114496441D01*
X153368833Y-114416347D01*
X153159975Y-114416164D01*
X152966946Y-114495922D01*
X152819132Y-114643478D01*
X152739038Y-114836368D01*
X152738855Y-115045226D01*
X152806331Y-115208531D01*
X152775772Y-115221158D01*
X152627958Y-115368714D01*
X152547864Y-115561604D01*
X152547681Y-115770462D01*
X145473208Y-115770462D01*
X145445333Y-115703000D01*
X145297777Y-115555186D01*
X145104887Y-115475092D01*
X144975253Y-115474978D01*
X145047000Y-115445333D01*
X145194814Y-115297777D01*
X145274908Y-115104887D01*
X145275091Y-114896029D01*
X145195333Y-114703000D01*
X145047777Y-114555186D01*
X144854887Y-114475092D01*
X144646029Y-114474909D01*
X144453000Y-114554667D01*
X144305186Y-114702223D01*
X144225092Y-114895113D01*
X144224909Y-115103971D01*
X139300000Y-115103971D01*
X139300000Y-114603971D01*
X140724909Y-114603971D01*
X140804667Y-114797000D01*
X140952223Y-114944814D01*
X141145113Y-115024908D01*
X141353971Y-115025091D01*
X141547000Y-114945333D01*
X141694814Y-114797777D01*
X141774908Y-114604887D01*
X141775091Y-114396029D01*
X141695333Y-114203000D01*
X141596477Y-114103971D01*
X143474909Y-114103971D01*
X143554667Y-114297000D01*
X143702223Y-114444814D01*
X143895113Y-114524908D01*
X144103971Y-114525091D01*
X144297000Y-114445333D01*
X144444814Y-114297777D01*
X144524908Y-114104887D01*
X144525091Y-113896029D01*
X144507713Y-113853971D01*
X152474909Y-113853971D01*
X152554667Y-114047000D01*
X152702223Y-114194814D01*
X152895113Y-114274908D01*
X153103971Y-114275091D01*
X153297000Y-114195333D01*
X153444814Y-114047777D01*
X153524908Y-113854887D01*
X153525091Y-113646029D01*
X153445333Y-113453000D01*
X153297777Y-113305186D01*
X153104887Y-113225092D01*
X152896029Y-113224909D01*
X152703000Y-113304667D01*
X152555186Y-113452223D01*
X152475092Y-113645113D01*
X152474909Y-113853971D01*
X144507713Y-113853971D01*
X144445333Y-113703000D01*
X144297777Y-113555186D01*
X144104887Y-113475092D01*
X143896029Y-113474909D01*
X143703000Y-113554667D01*
X143555186Y-113702223D01*
X143475092Y-113895113D01*
X143474909Y-114103971D01*
X141596477Y-114103971D01*
X141547777Y-114055186D01*
X141354887Y-113975092D01*
X141146029Y-113974909D01*
X140953000Y-114054667D01*
X140805186Y-114202223D01*
X140725092Y-114395113D01*
X140724909Y-114603971D01*
X139300000Y-114603971D01*
X139300000Y-112853971D01*
X139974909Y-112853971D01*
X140054667Y-113047000D01*
X140202223Y-113194814D01*
X140395113Y-113274908D01*
X140603971Y-113275091D01*
X140797000Y-113195333D01*
X140944814Y-113047777D01*
X141024908Y-112854887D01*
X141025091Y-112646029D01*
X140945333Y-112453000D01*
X140797777Y-112305186D01*
X140604887Y-112225092D01*
X140396029Y-112224909D01*
X140203000Y-112304667D01*
X140055186Y-112452223D01*
X139975092Y-112645113D01*
X139974909Y-112853971D01*
X139300000Y-112853971D01*
X139300000Y-112103971D01*
X149224909Y-112103971D01*
X149304667Y-112297000D01*
X149452223Y-112444814D01*
X149645113Y-112524908D01*
X149853971Y-112525091D01*
X150047000Y-112445333D01*
X150188609Y-112303971D01*
X179374909Y-112303971D01*
X179454667Y-112497000D01*
X179602223Y-112644814D01*
X179795113Y-112724908D01*
X180003971Y-112725091D01*
X180197000Y-112645333D01*
X180344814Y-112497777D01*
X180424908Y-112304887D01*
X180425091Y-112096029D01*
X180345333Y-111903000D01*
X180197777Y-111755186D01*
X180004887Y-111675092D01*
X179796029Y-111674909D01*
X179603000Y-111754667D01*
X179455186Y-111902223D01*
X179375092Y-112095113D01*
X179374909Y-112303971D01*
X150188609Y-112303971D01*
X150194814Y-112297777D01*
X150274908Y-112104887D01*
X150275091Y-111896029D01*
X150257713Y-111853971D01*
X152224909Y-111853971D01*
X152304667Y-112047000D01*
X152452223Y-112194814D01*
X152645113Y-112274908D01*
X152853971Y-112275091D01*
X153047000Y-112195333D01*
X153194814Y-112047777D01*
X153274908Y-111854887D01*
X153275091Y-111646029D01*
X153257713Y-111603971D01*
X169224909Y-111603971D01*
X169304667Y-111797000D01*
X169452223Y-111944814D01*
X169645113Y-112024908D01*
X169853971Y-112025091D01*
X170047000Y-111945333D01*
X170194814Y-111797777D01*
X170274908Y-111604887D01*
X170275091Y-111396029D01*
X170257713Y-111353971D01*
X170474909Y-111353971D01*
X170554667Y-111547000D01*
X170702223Y-111694814D01*
X170895113Y-111774908D01*
X171103971Y-111775091D01*
X171297000Y-111695333D01*
X171444814Y-111547777D01*
X171524908Y-111354887D01*
X171525091Y-111146029D01*
X171445333Y-110953000D01*
X171297777Y-110805186D01*
X171104887Y-110725092D01*
X170896029Y-110724909D01*
X170703000Y-110804667D01*
X170555186Y-110952223D01*
X170475092Y-111145113D01*
X170474909Y-111353971D01*
X170257713Y-111353971D01*
X170195333Y-111203000D01*
X170047777Y-111055186D01*
X169854887Y-110975092D01*
X169646029Y-110974909D01*
X169453000Y-111054667D01*
X169305186Y-111202223D01*
X169225092Y-111395113D01*
X169224909Y-111603971D01*
X153257713Y-111603971D01*
X153195333Y-111453000D01*
X153047777Y-111305186D01*
X152854887Y-111225092D01*
X152646029Y-111224909D01*
X152453000Y-111304667D01*
X152305186Y-111452223D01*
X152225092Y-111645113D01*
X152224909Y-111853971D01*
X150257713Y-111853971D01*
X150195333Y-111703000D01*
X150047777Y-111555186D01*
X149854887Y-111475092D01*
X149646029Y-111474909D01*
X149453000Y-111554667D01*
X149305186Y-111702223D01*
X149225092Y-111895113D01*
X149224909Y-112103971D01*
X139300000Y-112103971D01*
X139300000Y-111353971D01*
X148224909Y-111353971D01*
X148304667Y-111547000D01*
X148452223Y-111694814D01*
X148645113Y-111774908D01*
X148853971Y-111775091D01*
X149047000Y-111695333D01*
X149194814Y-111547777D01*
X149274908Y-111354887D01*
X149275091Y-111146029D01*
X149195333Y-110953000D01*
X149047777Y-110805186D01*
X148854887Y-110725092D01*
X148646029Y-110724909D01*
X148453000Y-110804667D01*
X148305186Y-110952223D01*
X148225092Y-111145113D01*
X148224909Y-111353971D01*
X139300000Y-111353971D01*
X139300000Y-109703971D01*
X178374909Y-109703971D01*
X178454667Y-109897000D01*
X178602223Y-110044814D01*
X178795113Y-110124908D01*
X179003971Y-110125091D01*
X179197000Y-110045333D01*
X179344814Y-109897777D01*
X179424908Y-109704887D01*
X179425091Y-109496029D01*
X179345333Y-109303000D01*
X179197777Y-109155186D01*
X179004887Y-109075092D01*
X178796029Y-109074909D01*
X178603000Y-109154667D01*
X178455186Y-109302223D01*
X178375092Y-109495113D01*
X178374909Y-109703971D01*
X139300000Y-109703971D01*
X139300000Y-108952542D01*
X144323480Y-108952542D01*
X144403238Y-109145571D01*
X144550794Y-109293385D01*
X144743684Y-109373479D01*
X144952542Y-109373662D01*
X145145571Y-109293904D01*
X145293385Y-109146348D01*
X145373479Y-108953458D01*
X145373662Y-108744600D01*
X145315556Y-108603971D01*
X184474909Y-108603971D01*
X184554667Y-108797000D01*
X184702223Y-108944814D01*
X184895113Y-109024908D01*
X185103971Y-109025091D01*
X185297000Y-108945333D01*
X185444814Y-108797777D01*
X185524908Y-108604887D01*
X185525091Y-108396029D01*
X185445333Y-108203000D01*
X185297777Y-108055186D01*
X185104887Y-107975092D01*
X184896029Y-107974909D01*
X184703000Y-108054667D01*
X184555186Y-108202223D01*
X184475092Y-108395113D01*
X184474909Y-108603971D01*
X145315556Y-108603971D01*
X145293904Y-108551571D01*
X145146348Y-108403757D01*
X144953458Y-108323663D01*
X144744600Y-108323480D01*
X144551571Y-108403238D01*
X144403757Y-108550794D01*
X144323663Y-108743684D01*
X144323480Y-108952542D01*
X139300000Y-108952542D01*
X139300000Y-108103971D01*
X158724909Y-108103971D01*
X158804667Y-108297000D01*
X158952223Y-108444814D01*
X159145113Y-108524908D01*
X159353971Y-108525091D01*
X159547000Y-108445333D01*
X159694814Y-108297777D01*
X159774908Y-108104887D01*
X159775091Y-107896029D01*
X159695333Y-107703000D01*
X159547777Y-107555186D01*
X159354887Y-107475092D01*
X159146029Y-107474909D01*
X158953000Y-107554667D01*
X158805186Y-107702223D01*
X158725092Y-107895113D01*
X158724909Y-108103971D01*
X139300000Y-108103971D01*
X139300000Y-107355846D01*
X178657408Y-107355846D01*
X178737166Y-107548875D01*
X178884722Y-107696689D01*
X179077612Y-107776783D01*
X179286470Y-107776966D01*
X179479499Y-107697208D01*
X179627313Y-107549652D01*
X179707407Y-107356762D01*
X179707590Y-107147904D01*
X179689438Y-107103971D01*
X181374909Y-107103971D01*
X181454667Y-107297000D01*
X181602223Y-107444814D01*
X181795113Y-107524908D01*
X182003971Y-107525091D01*
X182197000Y-107445333D01*
X182344814Y-107297777D01*
X182424908Y-107104887D01*
X182425091Y-106896029D01*
X182345333Y-106703000D01*
X182197777Y-106555186D01*
X182004887Y-106475092D01*
X181796029Y-106474909D01*
X181603000Y-106554667D01*
X181455186Y-106702223D01*
X181375092Y-106895113D01*
X181374909Y-107103971D01*
X179689438Y-107103971D01*
X179627832Y-106954875D01*
X179480276Y-106807061D01*
X179287386Y-106726967D01*
X179078528Y-106726784D01*
X178885499Y-106806542D01*
X178737685Y-106954098D01*
X178657591Y-107146988D01*
X178657408Y-107355846D01*
X139300000Y-107355846D01*
X139300000Y-106853971D01*
X176224909Y-106853971D01*
X176304667Y-107047000D01*
X176452223Y-107194814D01*
X176645113Y-107274908D01*
X176853971Y-107275091D01*
X177047000Y-107195333D01*
X177194814Y-107047777D01*
X177274908Y-106854887D01*
X177275091Y-106646029D01*
X177195333Y-106453000D01*
X177096477Y-106353971D01*
X182474909Y-106353971D01*
X182554667Y-106547000D01*
X182702223Y-106694814D01*
X182895113Y-106774908D01*
X183103971Y-106775091D01*
X183297000Y-106695333D01*
X183444814Y-106547777D01*
X183524908Y-106354887D01*
X183525091Y-106146029D01*
X183445333Y-105953000D01*
X183297777Y-105805186D01*
X183104887Y-105725092D01*
X182896029Y-105724909D01*
X182703000Y-105804667D01*
X182555186Y-105952223D01*
X182475092Y-106145113D01*
X182474909Y-106353971D01*
X177096477Y-106353971D01*
X177047777Y-106305186D01*
X176854887Y-106225092D01*
X176646029Y-106224909D01*
X176453000Y-106304667D01*
X176305186Y-106452223D01*
X176225092Y-106645113D01*
X176224909Y-106853971D01*
X139300000Y-106853971D01*
X139300000Y-104203971D01*
X173174909Y-104203971D01*
X173254667Y-104397000D01*
X173402223Y-104544814D01*
X173595113Y-104624908D01*
X173803971Y-104625091D01*
X173997000Y-104545333D01*
X174144814Y-104397777D01*
X174224908Y-104204887D01*
X174225091Y-103996029D01*
X174145333Y-103803000D01*
X174121346Y-103778971D01*
X183629263Y-103778971D01*
X183709021Y-103972000D01*
X183856577Y-104119814D01*
X184049467Y-104199908D01*
X184112226Y-104199963D01*
X184103859Y-104220113D01*
X184103676Y-104428971D01*
X184183434Y-104622000D01*
X184330990Y-104769814D01*
X184523880Y-104849908D01*
X184732738Y-104850091D01*
X184925767Y-104770333D01*
X185073581Y-104622777D01*
X185153675Y-104429887D01*
X185153858Y-104221029D01*
X185074100Y-104028000D01*
X184926544Y-103880186D01*
X184733654Y-103800092D01*
X184670895Y-103800037D01*
X184679262Y-103779887D01*
X184679445Y-103571029D01*
X184599687Y-103378000D01*
X184452131Y-103230186D01*
X184259241Y-103150092D01*
X184050383Y-103149909D01*
X183857354Y-103229667D01*
X183709540Y-103377223D01*
X183629446Y-103570113D01*
X183629263Y-103778971D01*
X174121346Y-103778971D01*
X173997777Y-103655186D01*
X173804887Y-103575092D01*
X173596029Y-103574909D01*
X173403000Y-103654667D01*
X173255186Y-103802223D01*
X173175092Y-103995113D01*
X173174909Y-104203971D01*
X139300000Y-104203971D01*
X139300000Y-103353971D01*
X157474909Y-103353971D01*
X157554667Y-103547000D01*
X157702223Y-103694814D01*
X157895113Y-103774908D01*
X158103971Y-103775091D01*
X158297000Y-103695333D01*
X158444814Y-103547777D01*
X158524908Y-103354887D01*
X158525091Y-103146029D01*
X158445333Y-102953000D01*
X158297777Y-102805186D01*
X158104887Y-102725092D01*
X157896029Y-102724909D01*
X157703000Y-102804667D01*
X157555186Y-102952223D01*
X157475092Y-103145113D01*
X157474909Y-103353971D01*
X139300000Y-103353971D01*
X139300000Y-101853971D01*
X153974909Y-101853971D01*
X154054667Y-102047000D01*
X154202223Y-102194814D01*
X154395113Y-102274908D01*
X154603971Y-102275091D01*
X154797000Y-102195333D01*
X154944814Y-102047777D01*
X155023862Y-101857406D01*
X182426813Y-101857406D01*
X182506571Y-102050435D01*
X182654127Y-102198249D01*
X182847017Y-102278343D01*
X183055875Y-102278526D01*
X183248904Y-102198768D01*
X183396718Y-102051212D01*
X183476812Y-101858322D01*
X183476995Y-101649464D01*
X183397237Y-101456435D01*
X183249681Y-101308621D01*
X183056791Y-101228527D01*
X182847933Y-101228344D01*
X182654904Y-101308102D01*
X182507090Y-101455658D01*
X182426996Y-101648548D01*
X182426813Y-101857406D01*
X155023862Y-101857406D01*
X155024908Y-101854887D01*
X155025091Y-101646029D01*
X154945333Y-101453000D01*
X154797777Y-101305186D01*
X154604887Y-101225092D01*
X154396029Y-101224909D01*
X154203000Y-101304667D01*
X154055186Y-101452223D01*
X153975092Y-101645113D01*
X153974909Y-101853971D01*
X139300000Y-101853971D01*
X139300000Y-101103971D01*
X181574909Y-101103971D01*
X181654667Y-101297000D01*
X181802223Y-101444814D01*
X181995113Y-101524908D01*
X182203971Y-101525091D01*
X182397000Y-101445333D01*
X182544814Y-101297777D01*
X182624908Y-101104887D01*
X182625091Y-100896029D01*
X182545333Y-100703000D01*
X182397777Y-100555186D01*
X182204887Y-100475092D01*
X181996029Y-100474909D01*
X181803000Y-100554667D01*
X181655186Y-100702223D01*
X181575092Y-100895113D01*
X181574909Y-101103971D01*
X139300000Y-101103971D01*
X139300000Y-100353971D01*
X176224909Y-100353971D01*
X176304667Y-100547000D01*
X176452223Y-100694814D01*
X176645113Y-100774908D01*
X176853971Y-100775091D01*
X177047000Y-100695333D01*
X177194814Y-100547777D01*
X177274908Y-100354887D01*
X177275091Y-100146029D01*
X177195333Y-99953000D01*
X177047777Y-99805186D01*
X176854887Y-99725092D01*
X176646029Y-99724909D01*
X176453000Y-99804667D01*
X176305186Y-99952223D01*
X176225092Y-100145113D01*
X176224909Y-100353971D01*
X139300000Y-100353971D01*
X139300000Y-99303971D01*
X182774909Y-99303971D01*
X182854667Y-99497000D01*
X183002223Y-99644814D01*
X183195113Y-99724908D01*
X183403971Y-99725091D01*
X183597000Y-99645333D01*
X183744814Y-99497777D01*
X183824908Y-99304887D01*
X183825091Y-99096029D01*
X183745333Y-98903000D01*
X183597777Y-98755186D01*
X183404887Y-98675092D01*
X183196029Y-98674909D01*
X183003000Y-98754667D01*
X182855186Y-98902223D01*
X182775092Y-99095113D01*
X182774909Y-99303971D01*
X139300000Y-99303971D01*
X139300000Y-97103971D01*
X153224909Y-97103971D01*
X153304667Y-97297000D01*
X153452223Y-97444814D01*
X153645113Y-97524908D01*
X153853971Y-97525091D01*
X154047000Y-97445333D01*
X154194814Y-97297777D01*
X154274908Y-97104887D01*
X154275091Y-96896029D01*
X154195735Y-96703971D01*
X175374909Y-96703971D01*
X175454667Y-96897000D01*
X175602223Y-97044814D01*
X175795113Y-97124908D01*
X176003971Y-97125091D01*
X176197000Y-97045333D01*
X176344814Y-96897777D01*
X176424908Y-96704887D01*
X176425091Y-96496029D01*
X176345333Y-96303000D01*
X176197777Y-96155186D01*
X176004887Y-96075092D01*
X175796029Y-96074909D01*
X175603000Y-96154667D01*
X175455186Y-96302223D01*
X175375092Y-96495113D01*
X175374909Y-96703971D01*
X154195735Y-96703971D01*
X154195333Y-96703000D01*
X154047777Y-96555186D01*
X153854887Y-96475092D01*
X153646029Y-96474909D01*
X153453000Y-96554667D01*
X153305186Y-96702223D01*
X153225092Y-96895113D01*
X153224909Y-97103971D01*
X139300000Y-97103971D01*
X139300000Y-96333234D01*
X143176203Y-96333234D01*
X143278685Y-96581260D01*
X143468282Y-96771188D01*
X143716129Y-96874103D01*
X143984494Y-96874337D01*
X144232520Y-96771855D01*
X144422448Y-96582258D01*
X144525363Y-96334411D01*
X144525597Y-96066046D01*
X144423115Y-95818020D01*
X144233518Y-95628092D01*
X143985671Y-95525177D01*
X143717306Y-95524943D01*
X143469280Y-95627425D01*
X143279352Y-95817022D01*
X143176437Y-96064869D01*
X143176203Y-96333234D01*
X139300000Y-96333234D01*
X139300000Y-93103971D01*
X148974909Y-93103971D01*
X149054667Y-93297000D01*
X149202223Y-93444814D01*
X149395113Y-93524908D01*
X149603971Y-93525091D01*
X149767667Y-93457453D01*
X149804667Y-93547000D01*
X149952223Y-93694814D01*
X150145113Y-93774908D01*
X150353971Y-93775091D01*
X150547000Y-93695333D01*
X150694814Y-93547777D01*
X150774908Y-93354887D01*
X150775091Y-93146029D01*
X150695333Y-92953000D01*
X150547777Y-92805186D01*
X150354887Y-92725092D01*
X150146029Y-92724909D01*
X149982333Y-92792547D01*
X149945333Y-92703000D01*
X149797777Y-92555186D01*
X149604887Y-92475092D01*
X149396029Y-92474909D01*
X149203000Y-92554667D01*
X149055186Y-92702223D01*
X148975092Y-92895113D01*
X148974909Y-93103971D01*
X139300000Y-93103971D01*
X139300000Y-91933954D01*
X143176203Y-91933954D01*
X143278685Y-92181980D01*
X143468282Y-92371908D01*
X143716129Y-92474823D01*
X143984494Y-92475057D01*
X144232520Y-92372575D01*
X144422448Y-92182978D01*
X144525363Y-91935131D01*
X144525433Y-91853971D01*
X159724909Y-91853971D01*
X159804667Y-92047000D01*
X159952223Y-92194814D01*
X160145113Y-92274908D01*
X160353971Y-92275091D01*
X160547000Y-92195333D01*
X160694814Y-92047777D01*
X160774908Y-91854887D01*
X160774908Y-91853971D01*
X160974909Y-91853971D01*
X161054667Y-92047000D01*
X161132537Y-92125007D01*
X161055186Y-92202223D01*
X160975092Y-92395113D01*
X160974909Y-92603971D01*
X161054667Y-92797000D01*
X161202223Y-92944814D01*
X161395113Y-93024908D01*
X161603971Y-93025091D01*
X161797000Y-92945333D01*
X161944814Y-92797777D01*
X162024908Y-92604887D01*
X162025091Y-92396029D01*
X161945333Y-92203000D01*
X161867463Y-92124993D01*
X161944814Y-92047777D01*
X162024908Y-91854887D01*
X162025091Y-91646029D01*
X161945333Y-91453000D01*
X161797777Y-91305186D01*
X161604887Y-91225092D01*
X161396029Y-91224909D01*
X161203000Y-91304667D01*
X161055186Y-91452223D01*
X160975092Y-91645113D01*
X160974909Y-91853971D01*
X160774908Y-91853971D01*
X160775091Y-91646029D01*
X160695333Y-91453000D01*
X160547777Y-91305186D01*
X160354887Y-91225092D01*
X160146029Y-91224909D01*
X159953000Y-91304667D01*
X159805186Y-91452223D01*
X159725092Y-91645113D01*
X159724909Y-91853971D01*
X144525433Y-91853971D01*
X144525597Y-91666766D01*
X144423115Y-91418740D01*
X144233518Y-91228812D01*
X143985671Y-91125897D01*
X143717306Y-91125663D01*
X143469280Y-91228145D01*
X143279352Y-91417742D01*
X143176437Y-91665589D01*
X143176203Y-91933954D01*
X139300000Y-91933954D01*
X139300000Y-90353971D01*
X171974909Y-90353971D01*
X172054667Y-90547000D01*
X172202223Y-90694814D01*
X172335215Y-90750037D01*
X172203000Y-90804667D01*
X172055186Y-90952223D01*
X171975092Y-91145113D01*
X171974909Y-91353971D01*
X172054667Y-91547000D01*
X172202223Y-91694814D01*
X172395113Y-91774908D01*
X172603971Y-91775091D01*
X172797000Y-91695333D01*
X172944814Y-91547777D01*
X173024908Y-91354887D01*
X173025091Y-91146029D01*
X172945333Y-90953000D01*
X172797777Y-90805186D01*
X172664785Y-90749963D01*
X172797000Y-90695333D01*
X172944814Y-90547777D01*
X173024908Y-90354887D01*
X173025091Y-90146029D01*
X172945333Y-89953000D01*
X172797777Y-89805186D01*
X172604887Y-89725092D01*
X172396029Y-89724909D01*
X172203000Y-89804667D01*
X172055186Y-89952223D01*
X171975092Y-90145113D01*
X171974909Y-90353971D01*
X139300000Y-90353971D01*
X139300000Y-87292108D01*
X142124744Y-87292108D01*
X142348827Y-87834429D01*
X142763389Y-88249715D01*
X143305317Y-88474743D01*
X143892108Y-88475256D01*
X144434429Y-88251173D01*
X144849715Y-87836611D01*
X145074743Y-87294683D01*
X145074745Y-87292108D01*
X168124744Y-87292108D01*
X168348827Y-87834429D01*
X168763389Y-88249715D01*
X169305317Y-88474743D01*
X169892108Y-88475256D01*
X170434429Y-88251173D01*
X170849715Y-87836611D01*
X171074743Y-87294683D01*
X171075256Y-86707892D01*
X170851173Y-86165571D01*
X170436611Y-85750285D01*
X169894683Y-85525257D01*
X169307892Y-85524744D01*
X168765571Y-85748827D01*
X168350285Y-86163389D01*
X168125257Y-86705317D01*
X168124744Y-87292108D01*
X145074745Y-87292108D01*
X145075256Y-86707892D01*
X144851173Y-86165571D01*
X144436611Y-85750285D01*
X143894683Y-85525257D01*
X143307892Y-85524744D01*
X142765571Y-85748827D01*
X142350285Y-86163389D01*
X142125257Y-86705317D01*
X142124744Y-87292108D01*
X139300000Y-87292108D01*
X139300000Y-85300000D01*
X197700000Y-85300000D01*
X197700000Y-124700000D01*
X197700000Y-124700000D01*
G37*
X197700000Y-124700000D02*
X139300000Y-124700000D01*
X139300000Y-123195465D01*
X142702830Y-123195465D01*
X142852775Y-123558360D01*
X143130180Y-123836250D01*
X143492812Y-123986828D01*
X143885465Y-123987170D01*
X144248360Y-123837225D01*
X144526250Y-123559820D01*
X144676828Y-123197188D01*
X144676829Y-123195465D01*
X145242830Y-123195465D01*
X145392775Y-123558360D01*
X145670180Y-123836250D01*
X146032812Y-123986828D01*
X146425465Y-123987170D01*
X146788360Y-123837225D01*
X147066250Y-123559820D01*
X147216828Y-123197188D01*
X147216829Y-123195465D01*
X147782830Y-123195465D01*
X147932775Y-123558360D01*
X148210180Y-123836250D01*
X148572812Y-123986828D01*
X148965465Y-123987170D01*
X149328360Y-123837225D01*
X149606250Y-123559820D01*
X149756828Y-123197188D01*
X149756829Y-123195465D01*
X150322830Y-123195465D01*
X150472775Y-123558360D01*
X150750180Y-123836250D01*
X151112812Y-123986828D01*
X151505465Y-123987170D01*
X151868360Y-123837225D01*
X152146250Y-123559820D01*
X152296828Y-123197188D01*
X152297170Y-122804535D01*
X152147225Y-122441640D01*
X151869820Y-122163750D01*
X151507188Y-122013172D01*
X151114535Y-122012830D01*
X150751640Y-122162775D01*
X150473750Y-122440180D01*
X150323172Y-122802812D01*
X150322830Y-123195465D01*
X149756829Y-123195465D01*
X149757170Y-122804535D01*
X149607225Y-122441640D01*
X149329820Y-122163750D01*
X148967188Y-122013172D01*
X148574535Y-122012830D01*
X148211640Y-122162775D01*
X147933750Y-122440180D01*
X147783172Y-122802812D01*
X147782830Y-123195465D01*
X147216829Y-123195465D01*
X147217170Y-122804535D01*
X147067225Y-122441640D01*
X146789820Y-122163750D01*
X146427188Y-122013172D01*
X146034535Y-122012830D01*
X145671640Y-122162775D01*
X145393750Y-122440180D01*
X145243172Y-122802812D01*
X145242830Y-123195465D01*
X144676829Y-123195465D01*
X144677170Y-122804535D01*
X144527225Y-122441640D01*
X144249820Y-122163750D01*
X143887188Y-122013172D01*
X143494535Y-122012830D01*
X143131640Y-122162775D01*
X142853750Y-122440180D01*
X142703172Y-122802812D01*
X142702830Y-123195465D01*
X139300000Y-123195465D01*
X139300000Y-121603971D01*
X149724909Y-121603971D01*
X149804667Y-121797000D01*
X149952223Y-121944814D01*
X150145113Y-122024908D01*
X150353971Y-122025091D01*
X150547000Y-121945333D01*
X150613468Y-121878981D01*
X151724909Y-121878981D01*
X151804667Y-122072010D01*
X151952223Y-122219824D01*
X152145113Y-122299918D01*
X152353971Y-122300101D01*
X152504266Y-122238000D01*
X152858592Y-122238000D01*
X152858592Y-123762000D01*
X152874281Y-123845380D01*
X152923559Y-123921960D01*
X152998747Y-123973334D01*
X153088000Y-123991408D01*
X154612000Y-123991408D01*
X154695380Y-123975719D01*
X154771960Y-123926441D01*
X154823334Y-123851253D01*
X154841408Y-123762000D01*
X154841408Y-122238000D01*
X154825719Y-122154620D01*
X154776441Y-122078040D01*
X154701253Y-122026666D01*
X154612000Y-122008592D01*
X153088000Y-122008592D01*
X153004620Y-122024281D01*
X152928040Y-122073559D01*
X152876666Y-122148747D01*
X152858592Y-122238000D01*
X152504266Y-122238000D01*
X152547000Y-122220343D01*
X152694814Y-122072787D01*
X152774908Y-121879897D01*
X152775091Y-121671039D01*
X152695333Y-121478010D01*
X152547777Y-121330196D01*
X152354887Y-121250102D01*
X152146029Y-121249919D01*
X151953000Y-121329677D01*
X151805186Y-121477233D01*
X151725092Y-121670123D01*
X151724909Y-121878981D01*
X150613468Y-121878981D01*
X150694814Y-121797777D01*
X150774908Y-121604887D01*
X150775091Y-121396029D01*
X150707453Y-121232333D01*
X150797000Y-121195333D01*
X150888521Y-121103971D01*
X154974909Y-121103971D01*
X155054667Y-121297000D01*
X155202223Y-121444814D01*
X155395113Y-121524908D01*
X155603971Y-121525091D01*
X155797000Y-121445333D01*
X155944814Y-121297777D01*
X156024908Y-121104887D01*
X156025091Y-120896029D01*
X155945333Y-120703000D01*
X155797777Y-120555186D01*
X155604887Y-120475092D01*
X155396029Y-120474909D01*
X155203000Y-120554667D01*
X155055186Y-120702223D01*
X154975092Y-120895113D01*
X154974909Y-121103971D01*
X150888521Y-121103971D01*
X150944814Y-121047777D01*
X151024908Y-120854887D01*
X151025091Y-120646029D01*
X150945333Y-120453000D01*
X150797777Y-120305186D01*
X150604887Y-120225092D01*
X150396029Y-120224909D01*
X150203000Y-120304667D01*
X150055186Y-120452223D01*
X149975092Y-120645113D01*
X149974909Y-120853971D01*
X150042547Y-121017667D01*
X149953000Y-121054667D01*
X149805186Y-121202223D01*
X149725092Y-121395113D01*
X149724909Y-121603971D01*
X139300000Y-121603971D01*
X139300000Y-119353971D01*
X143724909Y-119353971D01*
X143804667Y-119547000D01*
X143952223Y-119694814D01*
X144145113Y-119774908D01*
X144353971Y-119775091D01*
X144547000Y-119695333D01*
X144694814Y-119547777D01*
X144774908Y-119354887D01*
X144775091Y-119146029D01*
X144695333Y-118953000D01*
X144646390Y-118903971D01*
X174474909Y-118903971D01*
X174554667Y-119097000D01*
X174702223Y-119244814D01*
X174895113Y-119324908D01*
X175103971Y-119325091D01*
X175297000Y-119245333D01*
X175444814Y-119097777D01*
X175524908Y-118904887D01*
X175525091Y-118696029D01*
X175445333Y-118503000D01*
X175297777Y-118355186D01*
X175104887Y-118275092D01*
X174896029Y-118274909D01*
X174703000Y-118354667D01*
X174555186Y-118502223D01*
X174475092Y-118695113D01*
X174474909Y-118903971D01*
X144646390Y-118903971D01*
X144547777Y-118805186D01*
X144354887Y-118725092D01*
X144146029Y-118724909D01*
X143953000Y-118804667D01*
X143805186Y-118952223D01*
X143725092Y-119145113D01*
X143724909Y-119353971D01*
X139300000Y-119353971D01*
X139300000Y-115103971D01*
X144224909Y-115103971D01*
X144304667Y-115297000D01*
X144452223Y-115444814D01*
X144645113Y-115524908D01*
X144774747Y-115525022D01*
X144703000Y-115554667D01*
X144555186Y-115702223D01*
X144475092Y-115895113D01*
X144474909Y-116103971D01*
X144554667Y-116297000D01*
X144702223Y-116444814D01*
X144895113Y-116524908D01*
X145103971Y-116525091D01*
X145297000Y-116445333D01*
X145444814Y-116297777D01*
X145524908Y-116104887D01*
X145525091Y-115896029D01*
X145473208Y-115770462D01*
X152547681Y-115770462D01*
X152627439Y-115963491D01*
X152754202Y-116090476D01*
X152648026Y-116196467D01*
X152567932Y-116389357D01*
X152567749Y-116598215D01*
X152647507Y-116791244D01*
X152795063Y-116939058D01*
X152987953Y-117019152D01*
X153196811Y-117019335D01*
X153389840Y-116939577D01*
X153537654Y-116792021D01*
X153617748Y-116599131D01*
X153617931Y-116390273D01*
X153602932Y-116353971D01*
X162224909Y-116353971D01*
X162304667Y-116547000D01*
X162452223Y-116694814D01*
X162645113Y-116774908D01*
X162853971Y-116775091D01*
X163047000Y-116695333D01*
X163194814Y-116547777D01*
X163274908Y-116354887D01*
X163275091Y-116146029D01*
X163195333Y-115953000D01*
X163047777Y-115805186D01*
X162854887Y-115725092D01*
X162646029Y-115724909D01*
X162453000Y-115804667D01*
X162305186Y-115952223D01*
X162225092Y-116145113D01*
X162224909Y-116353971D01*
X153602932Y-116353971D01*
X153538173Y-116197244D01*
X153411410Y-116070259D01*
X153517586Y-115964268D01*
X153563384Y-115853971D01*
X157224909Y-115853971D01*
X157304667Y-116047000D01*
X157452223Y-116194814D01*
X157645113Y-116274908D01*
X157853971Y-116275091D01*
X158047000Y-116195333D01*
X158194814Y-116047777D01*
X158274908Y-115854887D01*
X158275091Y-115646029D01*
X158195333Y-115453000D01*
X158047777Y-115305186D01*
X157854887Y-115225092D01*
X157646029Y-115224909D01*
X157453000Y-115304667D01*
X157305186Y-115452223D01*
X157225092Y-115645113D01*
X157224909Y-115853971D01*
X153563384Y-115853971D01*
X153597680Y-115771378D01*
X153597863Y-115562520D01*
X153530387Y-115399215D01*
X153560946Y-115386588D01*
X153708760Y-115239032D01*
X153788854Y-115046142D01*
X153789037Y-114837284D01*
X153709279Y-114644255D01*
X153561723Y-114496441D01*
X153368833Y-114416347D01*
X153159975Y-114416164D01*
X152966946Y-114495922D01*
X152819132Y-114643478D01*
X152739038Y-114836368D01*
X152738855Y-115045226D01*
X152806331Y-115208531D01*
X152775772Y-115221158D01*
X152627958Y-115368714D01*
X152547864Y-115561604D01*
X152547681Y-115770462D01*
X145473208Y-115770462D01*
X145445333Y-115703000D01*
X145297777Y-115555186D01*
X145104887Y-115475092D01*
X144975253Y-115474978D01*
X145047000Y-115445333D01*
X145194814Y-115297777D01*
X145274908Y-115104887D01*
X145275091Y-114896029D01*
X145195333Y-114703000D01*
X145047777Y-114555186D01*
X144854887Y-114475092D01*
X144646029Y-114474909D01*
X144453000Y-114554667D01*
X144305186Y-114702223D01*
X144225092Y-114895113D01*
X144224909Y-115103971D01*
X139300000Y-115103971D01*
X139300000Y-114603971D01*
X140724909Y-114603971D01*
X140804667Y-114797000D01*
X140952223Y-114944814D01*
X141145113Y-115024908D01*
X141353971Y-115025091D01*
X141547000Y-114945333D01*
X141694814Y-114797777D01*
X141774908Y-114604887D01*
X141775091Y-114396029D01*
X141695333Y-114203000D01*
X141596477Y-114103971D01*
X143474909Y-114103971D01*
X143554667Y-114297000D01*
X143702223Y-114444814D01*
X143895113Y-114524908D01*
X144103971Y-114525091D01*
X144297000Y-114445333D01*
X144444814Y-114297777D01*
X144524908Y-114104887D01*
X144525091Y-113896029D01*
X144507713Y-113853971D01*
X152474909Y-113853971D01*
X152554667Y-114047000D01*
X152702223Y-114194814D01*
X152895113Y-114274908D01*
X153103971Y-114275091D01*
X153297000Y-114195333D01*
X153444814Y-114047777D01*
X153524908Y-113854887D01*
X153525091Y-113646029D01*
X153445333Y-113453000D01*
X153297777Y-113305186D01*
X153104887Y-113225092D01*
X152896029Y-113224909D01*
X152703000Y-113304667D01*
X152555186Y-113452223D01*
X152475092Y-113645113D01*
X152474909Y-113853971D01*
X144507713Y-113853971D01*
X144445333Y-113703000D01*
X144297777Y-113555186D01*
X144104887Y-113475092D01*
X143896029Y-113474909D01*
X143703000Y-113554667D01*
X143555186Y-113702223D01*
X143475092Y-113895113D01*
X143474909Y-114103971D01*
X141596477Y-114103971D01*
X141547777Y-114055186D01*
X141354887Y-113975092D01*
X141146029Y-113974909D01*
X140953000Y-114054667D01*
X140805186Y-114202223D01*
X140725092Y-114395113D01*
X140724909Y-114603971D01*
X139300000Y-114603971D01*
X139300000Y-112853971D01*
X139974909Y-112853971D01*
X140054667Y-113047000D01*
X140202223Y-113194814D01*
X140395113Y-113274908D01*
X140603971Y-113275091D01*
X140797000Y-113195333D01*
X140944814Y-113047777D01*
X141024908Y-112854887D01*
X141025091Y-112646029D01*
X140945333Y-112453000D01*
X140797777Y-112305186D01*
X140604887Y-112225092D01*
X140396029Y-112224909D01*
X140203000Y-112304667D01*
X140055186Y-112452223D01*
X139975092Y-112645113D01*
X139974909Y-112853971D01*
X139300000Y-112853971D01*
X139300000Y-112103971D01*
X149224909Y-112103971D01*
X149304667Y-112297000D01*
X149452223Y-112444814D01*
X149645113Y-112524908D01*
X149853971Y-112525091D01*
X150047000Y-112445333D01*
X150188609Y-112303971D01*
X179374909Y-112303971D01*
X179454667Y-112497000D01*
X179602223Y-112644814D01*
X179795113Y-112724908D01*
X180003971Y-112725091D01*
X180197000Y-112645333D01*
X180344814Y-112497777D01*
X180424908Y-112304887D01*
X180425091Y-112096029D01*
X180345333Y-111903000D01*
X180197777Y-111755186D01*
X180004887Y-111675092D01*
X179796029Y-111674909D01*
X179603000Y-111754667D01*
X179455186Y-111902223D01*
X179375092Y-112095113D01*
X179374909Y-112303971D01*
X150188609Y-112303971D01*
X150194814Y-112297777D01*
X150274908Y-112104887D01*
X150275091Y-111896029D01*
X150257713Y-111853971D01*
X152224909Y-111853971D01*
X152304667Y-112047000D01*
X152452223Y-112194814D01*
X152645113Y-112274908D01*
X152853971Y-112275091D01*
X153047000Y-112195333D01*
X153194814Y-112047777D01*
X153274908Y-111854887D01*
X153275091Y-111646029D01*
X153257713Y-111603971D01*
X169224909Y-111603971D01*
X169304667Y-111797000D01*
X169452223Y-111944814D01*
X169645113Y-112024908D01*
X169853971Y-112025091D01*
X170047000Y-111945333D01*
X170194814Y-111797777D01*
X170274908Y-111604887D01*
X170275091Y-111396029D01*
X170257713Y-111353971D01*
X170474909Y-111353971D01*
X170554667Y-111547000D01*
X170702223Y-111694814D01*
X170895113Y-111774908D01*
X171103971Y-111775091D01*
X171297000Y-111695333D01*
X171444814Y-111547777D01*
X171524908Y-111354887D01*
X171525091Y-111146029D01*
X171445333Y-110953000D01*
X171297777Y-110805186D01*
X171104887Y-110725092D01*
X170896029Y-110724909D01*
X170703000Y-110804667D01*
X170555186Y-110952223D01*
X170475092Y-111145113D01*
X170474909Y-111353971D01*
X170257713Y-111353971D01*
X170195333Y-111203000D01*
X170047777Y-111055186D01*
X169854887Y-110975092D01*
X169646029Y-110974909D01*
X169453000Y-111054667D01*
X169305186Y-111202223D01*
X169225092Y-111395113D01*
X169224909Y-111603971D01*
X153257713Y-111603971D01*
X153195333Y-111453000D01*
X153047777Y-111305186D01*
X152854887Y-111225092D01*
X152646029Y-111224909D01*
X152453000Y-111304667D01*
X152305186Y-111452223D01*
X152225092Y-111645113D01*
X152224909Y-111853971D01*
X150257713Y-111853971D01*
X150195333Y-111703000D01*
X150047777Y-111555186D01*
X149854887Y-111475092D01*
X149646029Y-111474909D01*
X149453000Y-111554667D01*
X149305186Y-111702223D01*
X149225092Y-111895113D01*
X149224909Y-112103971D01*
X139300000Y-112103971D01*
X139300000Y-111353971D01*
X148224909Y-111353971D01*
X148304667Y-111547000D01*
X148452223Y-111694814D01*
X148645113Y-111774908D01*
X148853971Y-111775091D01*
X149047000Y-111695333D01*
X149194814Y-111547777D01*
X149274908Y-111354887D01*
X149275091Y-111146029D01*
X149195333Y-110953000D01*
X149047777Y-110805186D01*
X148854887Y-110725092D01*
X148646029Y-110724909D01*
X148453000Y-110804667D01*
X148305186Y-110952223D01*
X148225092Y-111145113D01*
X148224909Y-111353971D01*
X139300000Y-111353971D01*
X139300000Y-109703971D01*
X178374909Y-109703971D01*
X178454667Y-109897000D01*
X178602223Y-110044814D01*
X178795113Y-110124908D01*
X179003971Y-110125091D01*
X179197000Y-110045333D01*
X179344814Y-109897777D01*
X179424908Y-109704887D01*
X179425091Y-109496029D01*
X179345333Y-109303000D01*
X179197777Y-109155186D01*
X179004887Y-109075092D01*
X178796029Y-109074909D01*
X178603000Y-109154667D01*
X178455186Y-109302223D01*
X178375092Y-109495113D01*
X178374909Y-109703971D01*
X139300000Y-109703971D01*
X139300000Y-108952542D01*
X144323480Y-108952542D01*
X144403238Y-109145571D01*
X144550794Y-109293385D01*
X144743684Y-109373479D01*
X144952542Y-109373662D01*
X145145571Y-109293904D01*
X145293385Y-109146348D01*
X145373479Y-108953458D01*
X145373662Y-108744600D01*
X145315556Y-108603971D01*
X184474909Y-108603971D01*
X184554667Y-108797000D01*
X184702223Y-108944814D01*
X184895113Y-109024908D01*
X185103971Y-109025091D01*
X185297000Y-108945333D01*
X185444814Y-108797777D01*
X185524908Y-108604887D01*
X185525091Y-108396029D01*
X185445333Y-108203000D01*
X185297777Y-108055186D01*
X185104887Y-107975092D01*
X184896029Y-107974909D01*
X184703000Y-108054667D01*
X184555186Y-108202223D01*
X184475092Y-108395113D01*
X184474909Y-108603971D01*
X145315556Y-108603971D01*
X145293904Y-108551571D01*
X145146348Y-108403757D01*
X144953458Y-108323663D01*
X144744600Y-108323480D01*
X144551571Y-108403238D01*
X144403757Y-108550794D01*
X144323663Y-108743684D01*
X144323480Y-108952542D01*
X139300000Y-108952542D01*
X139300000Y-108103971D01*
X158724909Y-108103971D01*
X158804667Y-108297000D01*
X158952223Y-108444814D01*
X159145113Y-108524908D01*
X159353971Y-108525091D01*
X159547000Y-108445333D01*
X159694814Y-108297777D01*
X159774908Y-108104887D01*
X159775091Y-107896029D01*
X159695333Y-107703000D01*
X159547777Y-107555186D01*
X159354887Y-107475092D01*
X159146029Y-107474909D01*
X158953000Y-107554667D01*
X158805186Y-107702223D01*
X158725092Y-107895113D01*
X158724909Y-108103971D01*
X139300000Y-108103971D01*
X139300000Y-107355846D01*
X178657408Y-107355846D01*
X178737166Y-107548875D01*
X178884722Y-107696689D01*
X179077612Y-107776783D01*
X179286470Y-107776966D01*
X179479499Y-107697208D01*
X179627313Y-107549652D01*
X179707407Y-107356762D01*
X179707590Y-107147904D01*
X179689438Y-107103971D01*
X181374909Y-107103971D01*
X181454667Y-107297000D01*
X181602223Y-107444814D01*
X181795113Y-107524908D01*
X182003971Y-107525091D01*
X182197000Y-107445333D01*
X182344814Y-107297777D01*
X182424908Y-107104887D01*
X182425091Y-106896029D01*
X182345333Y-106703000D01*
X182197777Y-106555186D01*
X182004887Y-106475092D01*
X181796029Y-106474909D01*
X181603000Y-106554667D01*
X181455186Y-106702223D01*
X181375092Y-106895113D01*
X181374909Y-107103971D01*
X179689438Y-107103971D01*
X179627832Y-106954875D01*
X179480276Y-106807061D01*
X179287386Y-106726967D01*
X179078528Y-106726784D01*
X178885499Y-106806542D01*
X178737685Y-106954098D01*
X178657591Y-107146988D01*
X178657408Y-107355846D01*
X139300000Y-107355846D01*
X139300000Y-106853971D01*
X176224909Y-106853971D01*
X176304667Y-107047000D01*
X176452223Y-107194814D01*
X176645113Y-107274908D01*
X176853971Y-107275091D01*
X177047000Y-107195333D01*
X177194814Y-107047777D01*
X177274908Y-106854887D01*
X177275091Y-106646029D01*
X177195333Y-106453000D01*
X177096477Y-106353971D01*
X182474909Y-106353971D01*
X182554667Y-106547000D01*
X182702223Y-106694814D01*
X182895113Y-106774908D01*
X183103971Y-106775091D01*
X183297000Y-106695333D01*
X183444814Y-106547777D01*
X183524908Y-106354887D01*
X183525091Y-106146029D01*
X183445333Y-105953000D01*
X183297777Y-105805186D01*
X183104887Y-105725092D01*
X182896029Y-105724909D01*
X182703000Y-105804667D01*
X182555186Y-105952223D01*
X182475092Y-106145113D01*
X182474909Y-106353971D01*
X177096477Y-106353971D01*
X177047777Y-106305186D01*
X176854887Y-106225092D01*
X176646029Y-106224909D01*
X176453000Y-106304667D01*
X176305186Y-106452223D01*
X176225092Y-106645113D01*
X176224909Y-106853971D01*
X139300000Y-106853971D01*
X139300000Y-104203971D01*
X173174909Y-104203971D01*
X173254667Y-104397000D01*
X173402223Y-104544814D01*
X173595113Y-104624908D01*
X173803971Y-104625091D01*
X173997000Y-104545333D01*
X174144814Y-104397777D01*
X174224908Y-104204887D01*
X174225091Y-103996029D01*
X174145333Y-103803000D01*
X174121346Y-103778971D01*
X183629263Y-103778971D01*
X183709021Y-103972000D01*
X183856577Y-104119814D01*
X184049467Y-104199908D01*
X184112226Y-104199963D01*
X184103859Y-104220113D01*
X184103676Y-104428971D01*
X184183434Y-104622000D01*
X184330990Y-104769814D01*
X184523880Y-104849908D01*
X184732738Y-104850091D01*
X184925767Y-104770333D01*
X185073581Y-104622777D01*
X185153675Y-104429887D01*
X185153858Y-104221029D01*
X185074100Y-104028000D01*
X184926544Y-103880186D01*
X184733654Y-103800092D01*
X184670895Y-103800037D01*
X184679262Y-103779887D01*
X184679445Y-103571029D01*
X184599687Y-103378000D01*
X184452131Y-103230186D01*
X184259241Y-103150092D01*
X184050383Y-103149909D01*
X183857354Y-103229667D01*
X183709540Y-103377223D01*
X183629446Y-103570113D01*
X183629263Y-103778971D01*
X174121346Y-103778971D01*
X173997777Y-103655186D01*
X173804887Y-103575092D01*
X173596029Y-103574909D01*
X173403000Y-103654667D01*
X173255186Y-103802223D01*
X173175092Y-103995113D01*
X173174909Y-104203971D01*
X139300000Y-104203971D01*
X139300000Y-103353971D01*
X157474909Y-103353971D01*
X157554667Y-103547000D01*
X157702223Y-103694814D01*
X157895113Y-103774908D01*
X158103971Y-103775091D01*
X158297000Y-103695333D01*
X158444814Y-103547777D01*
X158524908Y-103354887D01*
X158525091Y-103146029D01*
X158445333Y-102953000D01*
X158297777Y-102805186D01*
X158104887Y-102725092D01*
X157896029Y-102724909D01*
X157703000Y-102804667D01*
X157555186Y-102952223D01*
X157475092Y-103145113D01*
X157474909Y-103353971D01*
X139300000Y-103353971D01*
X139300000Y-101853971D01*
X153974909Y-101853971D01*
X154054667Y-102047000D01*
X154202223Y-102194814D01*
X154395113Y-102274908D01*
X154603971Y-102275091D01*
X154797000Y-102195333D01*
X154944814Y-102047777D01*
X155023862Y-101857406D01*
X182426813Y-101857406D01*
X182506571Y-102050435D01*
X182654127Y-102198249D01*
X182847017Y-102278343D01*
X183055875Y-102278526D01*
X183248904Y-102198768D01*
X183396718Y-102051212D01*
X183476812Y-101858322D01*
X183476995Y-101649464D01*
X183397237Y-101456435D01*
X183249681Y-101308621D01*
X183056791Y-101228527D01*
X182847933Y-101228344D01*
X182654904Y-101308102D01*
X182507090Y-101455658D01*
X182426996Y-101648548D01*
X182426813Y-101857406D01*
X155023862Y-101857406D01*
X155024908Y-101854887D01*
X155025091Y-101646029D01*
X154945333Y-101453000D01*
X154797777Y-101305186D01*
X154604887Y-101225092D01*
X154396029Y-101224909D01*
X154203000Y-101304667D01*
X154055186Y-101452223D01*
X153975092Y-101645113D01*
X153974909Y-101853971D01*
X139300000Y-101853971D01*
X139300000Y-101103971D01*
X181574909Y-101103971D01*
X181654667Y-101297000D01*
X181802223Y-101444814D01*
X181995113Y-101524908D01*
X182203971Y-101525091D01*
X182397000Y-101445333D01*
X182544814Y-101297777D01*
X182624908Y-101104887D01*
X182625091Y-100896029D01*
X182545333Y-100703000D01*
X182397777Y-100555186D01*
X182204887Y-100475092D01*
X181996029Y-100474909D01*
X181803000Y-100554667D01*
X181655186Y-100702223D01*
X181575092Y-100895113D01*
X181574909Y-101103971D01*
X139300000Y-101103971D01*
X139300000Y-100353971D01*
X176224909Y-100353971D01*
X176304667Y-100547000D01*
X176452223Y-100694814D01*
X176645113Y-100774908D01*
X176853971Y-100775091D01*
X177047000Y-100695333D01*
X177194814Y-100547777D01*
X177274908Y-100354887D01*
X177275091Y-100146029D01*
X177195333Y-99953000D01*
X177047777Y-99805186D01*
X176854887Y-99725092D01*
X176646029Y-99724909D01*
X176453000Y-99804667D01*
X176305186Y-99952223D01*
X176225092Y-100145113D01*
X176224909Y-100353971D01*
X139300000Y-100353971D01*
X139300000Y-99303971D01*
X182774909Y-99303971D01*
X182854667Y-99497000D01*
X183002223Y-99644814D01*
X183195113Y-99724908D01*
X183403971Y-99725091D01*
X183597000Y-99645333D01*
X183744814Y-99497777D01*
X183824908Y-99304887D01*
X183825091Y-99096029D01*
X183745333Y-98903000D01*
X183597777Y-98755186D01*
X183404887Y-98675092D01*
X183196029Y-98674909D01*
X183003000Y-98754667D01*
X182855186Y-98902223D01*
X182775092Y-99095113D01*
X182774909Y-99303971D01*
X139300000Y-99303971D01*
X139300000Y-97103971D01*
X153224909Y-97103971D01*
X153304667Y-97297000D01*
X153452223Y-97444814D01*
X153645113Y-97524908D01*
X153853971Y-97525091D01*
X154047000Y-97445333D01*
X154194814Y-97297777D01*
X154274908Y-97104887D01*
X154275091Y-96896029D01*
X154195735Y-96703971D01*
X175374909Y-96703971D01*
X175454667Y-96897000D01*
X175602223Y-97044814D01*
X175795113Y-97124908D01*
X176003971Y-97125091D01*
X176197000Y-97045333D01*
X176344814Y-96897777D01*
X176424908Y-96704887D01*
X176425091Y-96496029D01*
X176345333Y-96303000D01*
X176197777Y-96155186D01*
X176004887Y-96075092D01*
X175796029Y-96074909D01*
X175603000Y-96154667D01*
X175455186Y-96302223D01*
X175375092Y-96495113D01*
X175374909Y-96703971D01*
X154195735Y-96703971D01*
X154195333Y-96703000D01*
X154047777Y-96555186D01*
X153854887Y-96475092D01*
X153646029Y-96474909D01*
X153453000Y-96554667D01*
X153305186Y-96702223D01*
X153225092Y-96895113D01*
X153224909Y-97103971D01*
X139300000Y-97103971D01*
X139300000Y-96333234D01*
X143176203Y-96333234D01*
X143278685Y-96581260D01*
X143468282Y-96771188D01*
X143716129Y-96874103D01*
X143984494Y-96874337D01*
X144232520Y-96771855D01*
X144422448Y-96582258D01*
X144525363Y-96334411D01*
X144525597Y-96066046D01*
X144423115Y-95818020D01*
X144233518Y-95628092D01*
X143985671Y-95525177D01*
X143717306Y-95524943D01*
X143469280Y-95627425D01*
X143279352Y-95817022D01*
X143176437Y-96064869D01*
X143176203Y-96333234D01*
X139300000Y-96333234D01*
X139300000Y-93103971D01*
X148974909Y-93103971D01*
X149054667Y-93297000D01*
X149202223Y-93444814D01*
X149395113Y-93524908D01*
X149603971Y-93525091D01*
X149767667Y-93457453D01*
X149804667Y-93547000D01*
X149952223Y-93694814D01*
X150145113Y-93774908D01*
X150353971Y-93775091D01*
X150547000Y-93695333D01*
X150694814Y-93547777D01*
X150774908Y-93354887D01*
X150775091Y-93146029D01*
X150695333Y-92953000D01*
X150547777Y-92805186D01*
X150354887Y-92725092D01*
X150146029Y-92724909D01*
X149982333Y-92792547D01*
X149945333Y-92703000D01*
X149797777Y-92555186D01*
X149604887Y-92475092D01*
X149396029Y-92474909D01*
X149203000Y-92554667D01*
X149055186Y-92702223D01*
X148975092Y-92895113D01*
X148974909Y-93103971D01*
X139300000Y-93103971D01*
X139300000Y-91933954D01*
X143176203Y-91933954D01*
X143278685Y-92181980D01*
X143468282Y-92371908D01*
X143716129Y-92474823D01*
X143984494Y-92475057D01*
X144232520Y-92372575D01*
X144422448Y-92182978D01*
X144525363Y-91935131D01*
X144525433Y-91853971D01*
X159724909Y-91853971D01*
X159804667Y-92047000D01*
X159952223Y-92194814D01*
X160145113Y-92274908D01*
X160353971Y-92275091D01*
X160547000Y-92195333D01*
X160694814Y-92047777D01*
X160774908Y-91854887D01*
X160774908Y-91853971D01*
X160974909Y-91853971D01*
X161054667Y-92047000D01*
X161132537Y-92125007D01*
X161055186Y-92202223D01*
X160975092Y-92395113D01*
X160974909Y-92603971D01*
X161054667Y-92797000D01*
X161202223Y-92944814D01*
X161395113Y-93024908D01*
X161603971Y-93025091D01*
X161797000Y-92945333D01*
X161944814Y-92797777D01*
X162024908Y-92604887D01*
X162025091Y-92396029D01*
X161945333Y-92203000D01*
X161867463Y-92124993D01*
X161944814Y-92047777D01*
X162024908Y-91854887D01*
X162025091Y-91646029D01*
X161945333Y-91453000D01*
X161797777Y-91305186D01*
X161604887Y-91225092D01*
X161396029Y-91224909D01*
X161203000Y-91304667D01*
X161055186Y-91452223D01*
X160975092Y-91645113D01*
X160974909Y-91853971D01*
X160774908Y-91853971D01*
X160775091Y-91646029D01*
X160695333Y-91453000D01*
X160547777Y-91305186D01*
X160354887Y-91225092D01*
X160146029Y-91224909D01*
X159953000Y-91304667D01*
X159805186Y-91452223D01*
X159725092Y-91645113D01*
X159724909Y-91853971D01*
X144525433Y-91853971D01*
X144525597Y-91666766D01*
X144423115Y-91418740D01*
X144233518Y-91228812D01*
X143985671Y-91125897D01*
X143717306Y-91125663D01*
X143469280Y-91228145D01*
X143279352Y-91417742D01*
X143176437Y-91665589D01*
X143176203Y-91933954D01*
X139300000Y-91933954D01*
X139300000Y-90353971D01*
X171974909Y-90353971D01*
X172054667Y-90547000D01*
X172202223Y-90694814D01*
X172335215Y-90750037D01*
X172203000Y-90804667D01*
X172055186Y-90952223D01*
X171975092Y-91145113D01*
X171974909Y-91353971D01*
X172054667Y-91547000D01*
X172202223Y-91694814D01*
X172395113Y-91774908D01*
X172603971Y-91775091D01*
X172797000Y-91695333D01*
X172944814Y-91547777D01*
X173024908Y-91354887D01*
X173025091Y-91146029D01*
X172945333Y-90953000D01*
X172797777Y-90805186D01*
X172664785Y-90749963D01*
X172797000Y-90695333D01*
X172944814Y-90547777D01*
X173024908Y-90354887D01*
X173025091Y-90146029D01*
X172945333Y-89953000D01*
X172797777Y-89805186D01*
X172604887Y-89725092D01*
X172396029Y-89724909D01*
X172203000Y-89804667D01*
X172055186Y-89952223D01*
X171975092Y-90145113D01*
X171974909Y-90353971D01*
X139300000Y-90353971D01*
X139300000Y-87292108D01*
X142124744Y-87292108D01*
X142348827Y-87834429D01*
X142763389Y-88249715D01*
X143305317Y-88474743D01*
X143892108Y-88475256D01*
X144434429Y-88251173D01*
X144849715Y-87836611D01*
X145074743Y-87294683D01*
X145074745Y-87292108D01*
X168124744Y-87292108D01*
X168348827Y-87834429D01*
X168763389Y-88249715D01*
X169305317Y-88474743D01*
X169892108Y-88475256D01*
X170434429Y-88251173D01*
X170849715Y-87836611D01*
X171074743Y-87294683D01*
X171075256Y-86707892D01*
X170851173Y-86165571D01*
X170436611Y-85750285D01*
X169894683Y-85525257D01*
X169307892Y-85524744D01*
X168765571Y-85748827D01*
X168350285Y-86163389D01*
X168125257Y-86705317D01*
X168124744Y-87292108D01*
X145074745Y-87292108D01*
X145075256Y-86707892D01*
X144851173Y-86165571D01*
X144436611Y-85750285D01*
X143894683Y-85525257D01*
X143307892Y-85524744D01*
X142765571Y-85748827D01*
X142350285Y-86163389D01*
X142125257Y-86705317D01*
X142124744Y-87292108D01*
X139300000Y-87292108D01*
X139300000Y-85300000D01*
X197700000Y-85300000D01*
X197700000Y-124700000D01*
M02*
