G04 #@! TF.FileFunction,Copper,L1,Top,Signal*
%FSLAX46Y46*%
G04 Gerber Fmt 4.6, Leading zero omitted, Abs format (unit mm)*
G04 Created by KiCad (PCBNEW 4.0.5) date 03/01/17 00:06:24*
%MOMM*%
%LPD*%
G01*
G04 APERTURE LIST*
%ADD10C,0.100000*%
%ADD11R,4.000000X4.000000*%
%ADD12C,0.600000*%
%ADD13R,1.050000X0.250000*%
%ADD14R,0.250000X1.050000*%
%ADD15R,2.500000X2.500000*%
%ADD16O,0.900000X0.250000*%
%ADD17O,0.250000X0.900000*%
%ADD18R,1.200000X1.400000*%
%ADD19R,2.301240X0.500380*%
%ADD20R,2.499360X1.998980*%
%ADD21R,1.397000X0.431800*%
%ADD22R,0.600000X2.200000*%
%ADD23R,0.300000X1.600000*%
%ADD24R,1.524000X1.524000*%
%ADD25C,1.524000*%
%ADD26R,0.889000X1.397000*%
%ADD27R,1.397000X0.889000*%
%ADD28R,0.635000X1.143000*%
%ADD29R,1.143000X0.635000*%
%ADD30R,0.600000X0.500000*%
%ADD31R,0.500000X0.600000*%
%ADD32R,0.797560X0.797560*%
%ADD33R,1.100000X0.600000*%
%ADD34R,1.500000X3.950000*%
%ADD35R,1.500000X4.250000*%
%ADD36R,3.950000X1.500000*%
%ADD37R,4.250000X1.500000*%
%ADD38C,0.250000*%
%ADD39C,0.150000*%
G04 APERTURE END LIST*
D10*
D11*
X148975000Y-116500000D03*
D12*
X150475000Y-118000000D03*
X150475000Y-116500000D03*
X150475000Y-115000000D03*
X148975000Y-118000000D03*
X148975000Y-116500000D03*
X148975000Y-115000000D03*
X147475000Y-118000000D03*
X147475000Y-116500000D03*
X147475000Y-115000000D03*
D13*
X151950000Y-118500000D03*
X151950000Y-118000000D03*
X151950000Y-117500000D03*
X151950000Y-117000000D03*
X151950000Y-116500000D03*
X151950000Y-116000000D03*
X151950000Y-115500000D03*
X151950000Y-115000000D03*
X151950000Y-114500000D03*
D14*
X150975000Y-113525000D03*
X150475000Y-113525000D03*
X149975000Y-113525000D03*
X149475000Y-113525000D03*
X148975000Y-113525000D03*
X148475000Y-113525000D03*
X147975000Y-113525000D03*
X147475000Y-113525000D03*
X146975000Y-113525000D03*
D13*
X146000000Y-114500000D03*
X146000000Y-115000000D03*
X146000000Y-115500000D03*
X146000000Y-116000000D03*
X146000000Y-116500000D03*
X146000000Y-117000000D03*
X146000000Y-117500000D03*
X146000000Y-118000000D03*
X146000000Y-118500000D03*
D14*
X146975000Y-119475000D03*
X147475000Y-119475000D03*
X147975000Y-119475000D03*
X148475000Y-119475000D03*
X148975000Y-119475000D03*
X149475000Y-119475000D03*
X149975000Y-119475000D03*
X150475000Y-119475000D03*
X150975000Y-119475000D03*
D15*
X181100000Y-104000000D03*
D12*
X180200000Y-103100000D03*
X180200000Y-104000000D03*
X180200000Y-104900000D03*
X181100000Y-103100000D03*
X181100000Y-104000000D03*
X181100000Y-104900000D03*
X182000000Y-103100000D03*
X182000000Y-104000000D03*
X182000000Y-104900000D03*
D16*
X179050000Y-102750000D03*
X179050000Y-103250000D03*
X179050000Y-103750000D03*
X179050000Y-104250000D03*
X179050000Y-104750000D03*
X179050000Y-105250000D03*
D17*
X179850000Y-106050000D03*
X180350000Y-106050000D03*
X180850000Y-106050000D03*
X181350000Y-106050000D03*
X181850000Y-106050000D03*
X182350000Y-106050000D03*
D16*
X183150000Y-105250000D03*
X183150000Y-104750000D03*
X183150000Y-104250000D03*
X183150000Y-103750000D03*
X183150000Y-103250000D03*
X183150000Y-102750000D03*
D17*
X182350000Y-101950000D03*
X181850000Y-101950000D03*
X181350000Y-101950000D03*
X180850000Y-101950000D03*
X180350000Y-101950000D03*
X179850000Y-101950000D03*
D18*
X177350000Y-104100000D03*
X177350000Y-101900000D03*
X175650000Y-101900000D03*
X175650000Y-104100000D03*
D19*
X146449320Y-92399800D03*
X146449320Y-93199900D03*
X146449320Y-94000000D03*
X146449320Y-94800100D03*
X146449320Y-95600200D03*
D20*
X146350260Y-89549920D03*
X140851160Y-89549920D03*
X146350260Y-98450080D03*
X140851160Y-98450080D03*
D21*
X160588000Y-112987300D03*
X160588000Y-112352300D03*
X160588000Y-111691900D03*
X160588000Y-111056900D03*
X160588000Y-110396500D03*
X160588000Y-109748800D03*
X160588000Y-109101100D03*
X155000000Y-109101100D03*
X155000000Y-109748800D03*
X155000000Y-110396500D03*
X155000000Y-111056900D03*
X155000000Y-111704600D03*
X155000000Y-112352300D03*
X155000000Y-113000000D03*
D22*
X172620000Y-121750000D03*
X172620000Y-114250000D03*
X171350000Y-121750000D03*
X171350000Y-114250000D03*
X170080000Y-121750000D03*
X170080000Y-114250000D03*
X168810000Y-121750000D03*
X168810000Y-114250000D03*
X167540000Y-121750000D03*
X167540000Y-114250000D03*
X166270000Y-121750000D03*
X166270000Y-114250000D03*
X165000000Y-121750000D03*
X165000000Y-114250000D03*
X163730000Y-121750000D03*
X163730000Y-114250000D03*
X172620000Y-107250000D03*
X172620000Y-99750000D03*
X171350000Y-107250000D03*
X171350000Y-99750000D03*
X170080000Y-107250000D03*
X170080000Y-99750000D03*
X168810000Y-107250000D03*
X168810000Y-99750000D03*
X167540000Y-107250000D03*
X167540000Y-99750000D03*
X166270000Y-107250000D03*
X166270000Y-99750000D03*
X165000000Y-107250000D03*
X165000000Y-99750000D03*
X163730000Y-107250000D03*
X163730000Y-99750000D03*
D23*
X155850000Y-106000000D03*
X155850000Y-100400000D03*
X155200000Y-106000000D03*
X155200000Y-100400000D03*
X154550000Y-106000000D03*
X154550000Y-100400000D03*
X153900000Y-106000000D03*
X153900000Y-100400000D03*
X153250000Y-106000000D03*
X153250000Y-100400000D03*
X152600000Y-106000000D03*
X152600000Y-100400000D03*
X151950000Y-106000000D03*
X151950000Y-100400000D03*
X151300000Y-106000000D03*
X151300000Y-100400000D03*
X150650000Y-106000000D03*
X150650000Y-100400000D03*
X150000000Y-106000000D03*
X150000000Y-100400000D03*
D18*
X156350000Y-118850000D03*
X156350000Y-116650000D03*
X154650000Y-116650000D03*
X154650000Y-118850000D03*
X146150000Y-101650000D03*
X146150000Y-103850000D03*
X147850000Y-103850000D03*
X147850000Y-101650000D03*
D24*
X153850000Y-123000000D03*
D25*
X151310000Y-123000000D03*
X148770000Y-123000000D03*
X146230000Y-123000000D03*
X143690000Y-123000000D03*
X141150000Y-123000000D03*
D26*
X158750000Y-114500000D03*
X156845000Y-114500000D03*
D27*
X160500000Y-106095000D03*
X160500000Y-108000000D03*
D28*
X157738000Y-119000000D03*
X159262000Y-119000000D03*
X162250000Y-120500000D03*
X160726000Y-120500000D03*
D27*
X162250000Y-121845000D03*
X162250000Y-123750000D03*
D28*
X163738000Y-112250000D03*
X165262000Y-112250000D03*
X154226000Y-115000000D03*
X155750000Y-115000000D03*
D26*
X162655000Y-114750000D03*
X160750000Y-114750000D03*
D28*
X162750000Y-99000000D03*
X161226000Y-99000000D03*
D26*
X162750000Y-101750000D03*
X160845000Y-101750000D03*
D29*
X162500000Y-107500000D03*
X162500000Y-105976000D03*
D26*
X163845000Y-110750000D03*
X165750000Y-110750000D03*
X172595000Y-92500000D03*
X174500000Y-92500000D03*
X169655000Y-110250000D03*
X167750000Y-110250000D03*
X172405000Y-97000000D03*
X170500000Y-97000000D03*
X172595000Y-111500000D03*
X174500000Y-111500000D03*
D28*
X144774000Y-101750000D03*
X143250000Y-101750000D03*
X146524000Y-105500000D03*
X145000000Y-105500000D03*
D27*
X149500000Y-92202500D03*
X149500000Y-90297500D03*
X154000000Y-92405000D03*
X154000000Y-90500000D03*
D29*
X160250000Y-97512000D03*
X160250000Y-95988000D03*
D26*
X164500000Y-92500000D03*
X162595000Y-92500000D03*
D27*
X178000000Y-100405000D03*
X178000000Y-98500000D03*
D30*
X179500000Y-101000000D03*
X179500000Y-100000000D03*
X177500000Y-106750000D03*
X177500000Y-107750000D03*
D31*
X178000000Y-105750000D03*
X177000000Y-105750000D03*
D30*
X178500000Y-106750000D03*
X178500000Y-107750000D03*
X184000000Y-108000000D03*
X184000000Y-107000000D03*
X184000000Y-100000000D03*
X184000000Y-101000000D03*
X178000000Y-92250000D03*
X178000000Y-91250000D03*
X187250000Y-92250000D03*
X187250000Y-91250000D03*
D31*
X191000000Y-91750000D03*
X192000000Y-91750000D03*
X191000000Y-101000000D03*
X192000000Y-101000000D03*
X191000000Y-110250000D03*
X192000000Y-110250000D03*
X191000000Y-119500000D03*
X192000000Y-119500000D03*
D30*
X187500000Y-118000000D03*
X187500000Y-119000000D03*
X178250000Y-118000000D03*
X178250000Y-119000000D03*
D29*
X172500000Y-93976000D03*
X172500000Y-95500000D03*
D28*
X170988000Y-110000000D03*
X172512000Y-110000000D03*
X150976000Y-92500000D03*
X152500000Y-92500000D03*
X162250000Y-119250000D03*
X160726000Y-119250000D03*
X162762000Y-100250000D03*
X161238000Y-100250000D03*
X163750000Y-109250000D03*
X165274000Y-109250000D03*
D29*
X156750000Y-120988000D03*
X156750000Y-122512000D03*
X142000000Y-113726000D03*
X142000000Y-115250000D03*
X140250000Y-113726000D03*
X140250000Y-115250000D03*
D30*
X183000000Y-108000000D03*
X183000000Y-107000000D03*
X183000000Y-100000000D03*
X183000000Y-101000000D03*
X179500000Y-109000000D03*
X179500000Y-108000000D03*
D31*
X180500000Y-100250000D03*
X181500000Y-100250000D03*
D30*
X185400000Y-102500000D03*
X185400000Y-103500000D03*
X185400000Y-104500000D03*
X185400000Y-105500000D03*
D31*
X181500000Y-107750000D03*
X180500000Y-107750000D03*
D32*
X158251400Y-122500000D03*
X159750000Y-122500000D03*
X142000000Y-116250700D03*
X142000000Y-117749300D03*
X140250000Y-116250700D03*
X140250000Y-117749300D03*
D10*
G36*
X146070395Y-110768258D02*
X147058223Y-111756086D01*
X146429605Y-112384704D01*
X145441777Y-111396876D01*
X146070395Y-110768258D01*
X146070395Y-110768258D01*
G37*
G36*
X144723357Y-112115296D02*
X145711185Y-113103124D01*
X145082567Y-113731742D01*
X144094739Y-112743914D01*
X144723357Y-112115296D01*
X144723357Y-112115296D01*
G37*
D26*
X154155000Y-120500000D03*
X152250000Y-120500000D03*
X143500000Y-120500000D03*
X145405000Y-120500000D03*
D27*
X158000000Y-106250000D03*
X158000000Y-104345000D03*
D26*
X155655000Y-98250000D03*
X153750000Y-98250000D03*
D33*
X160350000Y-92550000D03*
X157650000Y-92550000D03*
X157650000Y-93500000D03*
X160350000Y-94450000D03*
X157650000Y-94450000D03*
D34*
X175230000Y-87475000D03*
X180770000Y-87475000D03*
D35*
X178000000Y-87325000D03*
D34*
X184480000Y-87475000D03*
X190020000Y-87475000D03*
D35*
X187250000Y-87325000D03*
D36*
X195350000Y-88980000D03*
X195350000Y-94520000D03*
D37*
X195500000Y-91750000D03*
D36*
X195350000Y-98230000D03*
X195350000Y-103770000D03*
D37*
X195500000Y-101000000D03*
D36*
X195350000Y-107480000D03*
X195350000Y-113020000D03*
D37*
X195500000Y-110250000D03*
D36*
X195350000Y-116730000D03*
X195350000Y-122270000D03*
D37*
X195500000Y-119500000D03*
D34*
X181020000Y-122350000D03*
X175480000Y-122350000D03*
D35*
X178250000Y-122500000D03*
D34*
X190270000Y-122350000D03*
X184730000Y-122350000D03*
D35*
X187500000Y-122500000D03*
D12*
X158000000Y-117000000D03*
X159000000Y-99000000D03*
X157000000Y-99000000D03*
X157000000Y-101000000D03*
X159000000Y-101000000D03*
X166000000Y-109000000D03*
X166000000Y-112000000D03*
X168000000Y-112000000D03*
X173000000Y-103000000D03*
X168000000Y-104000000D03*
X166000000Y-104000000D03*
X164000000Y-104000000D03*
X163000000Y-105000000D03*
X166000000Y-95000000D03*
X168000000Y-95000000D03*
X170000000Y-95000000D03*
X170000000Y-93000000D03*
X168000000Y-93000000D03*
X166000000Y-93000000D03*
X142000000Y-104000000D03*
X142000000Y-106000000D03*
X142000000Y-108000000D03*
X142000000Y-110000000D03*
X140000000Y-110000000D03*
X140000000Y-108000000D03*
X140000000Y-106000000D03*
X140000000Y-104000000D03*
X140000000Y-102000000D03*
X166000000Y-86000000D03*
X164000000Y-86000000D03*
X162000000Y-86000000D03*
X160000000Y-86000000D03*
X158000000Y-86000000D03*
X156000000Y-86000000D03*
X154000000Y-86000000D03*
X152000000Y-86000000D03*
X150000000Y-86000000D03*
X148000000Y-86000000D03*
X156000000Y-108000000D03*
X157000000Y-110000000D03*
X158000000Y-112000000D03*
X159000000Y-120000000D03*
X159000000Y-117000000D03*
X154000000Y-108000000D03*
X152000000Y-109000000D03*
X150000000Y-109000000D03*
X148000000Y-110000000D03*
X169000000Y-117000000D03*
X167000000Y-118000000D03*
X143000000Y-119000000D03*
X141000000Y-119000000D03*
X141000000Y-121000000D03*
X174000000Y-91000000D03*
X174000000Y-94000000D03*
X156000000Y-124000000D03*
X158000000Y-124000000D03*
X160000000Y-124000000D03*
X164000000Y-124000000D03*
X166000000Y-124000000D03*
X168000000Y-124000000D03*
X170000000Y-124000000D03*
X172000000Y-124000000D03*
X165250000Y-117750000D03*
X178378761Y-108378761D03*
X173750000Y-88500000D03*
X172750000Y-88500000D03*
X172750000Y-87500000D03*
X172750000Y-86500000D03*
X173750000Y-86500000D03*
X173750000Y-87500000D03*
X174250000Y-123500000D03*
X174250000Y-121250000D03*
X174250000Y-122250000D03*
X183500000Y-124000000D03*
X182250000Y-124000000D03*
X182250000Y-123000000D03*
X183500000Y-123000000D03*
X183500000Y-122000000D03*
X183500000Y-121000000D03*
X182250000Y-121000000D03*
X182250000Y-122000000D03*
X191500000Y-121500000D03*
X192250000Y-122250000D03*
X192750000Y-123000000D03*
X191500000Y-123000000D03*
X192250000Y-123750000D03*
X193250000Y-123750000D03*
X194250000Y-123750000D03*
X196250000Y-123750000D03*
X195250000Y-123750000D03*
X193250000Y-115500000D03*
X193250000Y-114500000D03*
X194250000Y-114500000D03*
X194250000Y-115500000D03*
X195250000Y-115500000D03*
X196250000Y-115500000D03*
X197250000Y-115500000D03*
X197250000Y-114500000D03*
X196250000Y-114500000D03*
X195250000Y-114500000D03*
X193250000Y-106250000D03*
X193250000Y-105250000D03*
X194250000Y-105250000D03*
X194250000Y-106250000D03*
X195250000Y-106250000D03*
X196250000Y-106250000D03*
X197250000Y-106250000D03*
X197250000Y-105250000D03*
X196250000Y-105250000D03*
X195250000Y-105250000D03*
X193250000Y-96750000D03*
X193250000Y-95750000D03*
X194250000Y-95750000D03*
X194250000Y-96750000D03*
X195250000Y-96750000D03*
X196250000Y-96750000D03*
X197250000Y-96750000D03*
X197250000Y-95750000D03*
X196250000Y-95750000D03*
X195250000Y-95750000D03*
X192500000Y-89500000D03*
X191500000Y-89500000D03*
X191500000Y-88500000D03*
X192500000Y-88500000D03*
X192500000Y-87500000D03*
X193500000Y-87500000D03*
X194500000Y-87500000D03*
X195500000Y-87500000D03*
X196500000Y-87500000D03*
X196500000Y-86500000D03*
X195500000Y-86500000D03*
X194500000Y-86500000D03*
X193500000Y-86500000D03*
X192500000Y-86500000D03*
X191500000Y-86500000D03*
X191500000Y-87500000D03*
X182000000Y-89300000D03*
X183000000Y-89300000D03*
X183000000Y-88400000D03*
X182000000Y-88400000D03*
X183000000Y-85700000D03*
X182000000Y-85700000D03*
X182000000Y-86600000D03*
X183000000Y-86600000D03*
X183000000Y-87500000D03*
X182000000Y-87500000D03*
X183881551Y-106300000D03*
X183700000Y-101700000D03*
X179400000Y-98200000D03*
X186900000Y-103700000D03*
X187600000Y-100900000D03*
X187300000Y-105300000D03*
X187600000Y-107000000D03*
X180000000Y-110900000D03*
X178000000Y-97600000D03*
X179500000Y-99300000D03*
X178500000Y-101750000D03*
X177500000Y-108500000D03*
X176250000Y-105750000D03*
X175500000Y-105250000D03*
X152250000Y-121775010D03*
X183300000Y-99200000D03*
X178900000Y-109600000D03*
X157750000Y-115750000D03*
X159250000Y-108000000D03*
X185000000Y-108500000D03*
X176750000Y-106750000D03*
X176750000Y-100250000D03*
X158000000Y-103250000D03*
X153750000Y-97000000D03*
X161500000Y-91750000D03*
X161500000Y-92500000D03*
X160250000Y-91750000D03*
X144000000Y-114000000D03*
X153092840Y-116494244D03*
X162750000Y-116250000D03*
X169750000Y-111500000D03*
X171000000Y-111250000D03*
X172500000Y-90250000D03*
X172500000Y-91250000D03*
X150250000Y-93250000D03*
X149500000Y-93000000D03*
X173700000Y-104100000D03*
X182100000Y-101000000D03*
X175900000Y-96600000D03*
X184154354Y-103675000D03*
X184628767Y-104325000D03*
X175000000Y-118800000D03*
X179900000Y-112200000D03*
X181900000Y-107000000D03*
X183000000Y-106250000D03*
X150250000Y-121500000D03*
X182951904Y-101753435D03*
X150500000Y-120750000D03*
X179182499Y-107251875D03*
X149750000Y-112000000D03*
X148750000Y-111250000D03*
X152750000Y-111750000D03*
X144848571Y-108848571D03*
X144750000Y-115000000D03*
X154500000Y-101750000D03*
X145000000Y-116000000D03*
X155500000Y-121000000D03*
X153072772Y-115666491D03*
X153263946Y-114941255D03*
X141250000Y-114500000D03*
X140500000Y-112750000D03*
X153000000Y-113750000D03*
X144250000Y-119250000D03*
D38*
X179050000Y-105250000D02*
X179850000Y-105250000D01*
X179850000Y-105250000D02*
X180200000Y-104900000D01*
X179050000Y-104250000D02*
X179950000Y-104250000D01*
X179950000Y-104250000D02*
X180200000Y-104000000D01*
X150975000Y-119475000D02*
X150475000Y-119475000D01*
X157000000Y-99000000D02*
X159000000Y-99000000D01*
X157000000Y-101000000D02*
X157000000Y-99000000D01*
X159000000Y-101000000D02*
X157000000Y-101000000D01*
X161238000Y-100250000D02*
X159750000Y-100250000D01*
X159750000Y-100250000D02*
X159000000Y-101000000D01*
X166000000Y-112000000D02*
X166000000Y-109000000D01*
X168000000Y-112000000D02*
X166000000Y-112000000D01*
X167750000Y-110250000D02*
X167750000Y-111750000D01*
X167750000Y-111750000D02*
X168000000Y-112000000D01*
X168000000Y-104000000D02*
X172000000Y-104000000D01*
X172000000Y-104000000D02*
X173000000Y-103000000D01*
X166000000Y-104000000D02*
X168000000Y-104000000D01*
X164000000Y-104000000D02*
X166000000Y-104000000D01*
X163000000Y-105000000D02*
X164000000Y-104000000D01*
X162500000Y-105976000D02*
X162500000Y-105500000D01*
X162500000Y-105500000D02*
X163000000Y-105000000D01*
X168000000Y-95000000D02*
X166000000Y-95000000D01*
X170000000Y-95000000D02*
X168000000Y-95000000D01*
X170000000Y-93000000D02*
X170000000Y-95000000D01*
X168000000Y-93000000D02*
X170000000Y-93000000D01*
X166000000Y-93000000D02*
X168000000Y-93000000D01*
X164500000Y-92500000D02*
X165500000Y-92500000D01*
X165500000Y-92500000D02*
X166000000Y-93000000D01*
X142000000Y-106000000D02*
X142000000Y-104000000D01*
X142000000Y-108000000D02*
X142000000Y-106000000D01*
X142000000Y-110000000D02*
X142000000Y-108000000D01*
X140000000Y-110000000D02*
X142000000Y-110000000D01*
X140000000Y-108000000D02*
X140000000Y-110000000D01*
X140000000Y-106000000D02*
X140000000Y-108000000D01*
X140000000Y-104000000D02*
X140000000Y-106000000D01*
X140000000Y-102000000D02*
X140000000Y-104000000D01*
X143250000Y-101750000D02*
X140250000Y-101750000D01*
X140250000Y-101750000D02*
X140000000Y-102000000D01*
X164000000Y-86000000D02*
X166000000Y-86000000D01*
X162000000Y-86000000D02*
X164000000Y-86000000D01*
X160000000Y-86000000D02*
X162000000Y-86000000D01*
X158000000Y-86000000D02*
X160000000Y-86000000D01*
X156000000Y-86000000D02*
X158000000Y-86000000D01*
X154000000Y-86000000D02*
X156000000Y-86000000D01*
X152000000Y-86000000D02*
X154000000Y-86000000D01*
X150000000Y-86000000D02*
X152000000Y-86000000D01*
X148000000Y-86000000D02*
X150000000Y-86000000D01*
X149500000Y-90297500D02*
X149500000Y-87500000D01*
X149500000Y-87500000D02*
X148000000Y-86000000D01*
X157000000Y-110000000D02*
X157000000Y-109000000D01*
X157000000Y-109000000D02*
X156000000Y-108000000D01*
X158000000Y-112000000D02*
X158000000Y-111000000D01*
X158000000Y-111000000D02*
X157000000Y-110000000D01*
X158750000Y-114500000D02*
X158750000Y-112750000D01*
X158750000Y-112750000D02*
X158000000Y-112000000D01*
X160726000Y-120500000D02*
X159500000Y-120500000D01*
X159500000Y-120500000D02*
X159000000Y-120000000D01*
X159262000Y-119000000D02*
X159262000Y-117262000D01*
X159262000Y-117262000D02*
X159000000Y-117000000D01*
X152000000Y-109000000D02*
X153000000Y-109000000D01*
X153000000Y-109000000D02*
X154000000Y-108000000D01*
X150000000Y-109000000D02*
X152000000Y-109000000D01*
X148000000Y-110000000D02*
X149000000Y-110000000D01*
X149000000Y-110000000D02*
X150000000Y-109000000D01*
X146250000Y-111576481D02*
X146423519Y-111576481D01*
X146423519Y-111576481D02*
X148000000Y-110000000D01*
X167000000Y-118000000D02*
X168000000Y-118000000D01*
X168000000Y-118000000D02*
X169000000Y-117000000D01*
X165250000Y-117750000D02*
X166750000Y-117750000D01*
X166750000Y-117750000D02*
X167000000Y-118000000D01*
X141000000Y-119000000D02*
X143000000Y-119000000D01*
X141000000Y-121000000D02*
X141000000Y-119000000D01*
X141150000Y-123000000D02*
X141150000Y-121150000D01*
X141150000Y-121150000D02*
X141000000Y-121000000D01*
X174000000Y-94000000D02*
X174000000Y-91000000D01*
X174500000Y-92500000D02*
X174500000Y-93500000D01*
X174500000Y-93500000D02*
X174000000Y-94000000D01*
X158000000Y-124000000D02*
X156000000Y-124000000D01*
X160000000Y-124000000D02*
X158000000Y-124000000D01*
X162250000Y-123750000D02*
X160250000Y-123750000D01*
X160250000Y-123750000D02*
X160000000Y-124000000D01*
X166000000Y-124000000D02*
X164000000Y-124000000D01*
X168000000Y-124000000D02*
X166000000Y-124000000D01*
X170000000Y-124000000D02*
X168000000Y-124000000D01*
X172000000Y-124000000D02*
X170000000Y-124000000D01*
X174250000Y-123500000D02*
X172500000Y-123500000D01*
X172500000Y-123500000D02*
X172000000Y-124000000D01*
X178500000Y-108257522D02*
X178378761Y-108378761D01*
X178500000Y-107750000D02*
X178500000Y-108257522D01*
X172750000Y-88500000D02*
X173750000Y-88500000D01*
X172750000Y-86500000D02*
X172750000Y-87500000D01*
X173750000Y-87500000D02*
X173750000Y-86500000D01*
X174250000Y-122250000D02*
X174250000Y-121250000D01*
X182250000Y-123000000D02*
X182250000Y-124000000D01*
X183500000Y-122000000D02*
X183500000Y-123000000D01*
X182250000Y-121000000D02*
X183500000Y-121000000D01*
X181020000Y-122350000D02*
X181900000Y-122350000D01*
X181900000Y-122350000D02*
X182250000Y-122000000D01*
X192750000Y-123000000D02*
X192750000Y-122750000D01*
X192750000Y-122750000D02*
X192250000Y-122250000D01*
X192250000Y-123750000D02*
X191500000Y-123000000D01*
X194250000Y-123750000D02*
X193250000Y-123750000D01*
X195350000Y-122270000D02*
X195350000Y-123650000D01*
X195350000Y-123650000D02*
X195250000Y-123750000D01*
X193250000Y-114500000D02*
X193250000Y-115500000D01*
X194250000Y-115500000D02*
X194250000Y-114500000D01*
X196250000Y-115500000D02*
X195250000Y-115500000D01*
X197250000Y-114500000D02*
X197250000Y-115500000D01*
X195250000Y-114500000D02*
X196250000Y-114500000D01*
X194250000Y-105250000D02*
X193250000Y-105250000D01*
X195250000Y-106250000D02*
X194250000Y-106250000D01*
X197250000Y-105250000D02*
X197250000Y-106250000D01*
X195250000Y-105250000D02*
X196250000Y-105250000D01*
X194250000Y-95750000D02*
X193250000Y-95750000D01*
X195250000Y-96750000D02*
X194250000Y-96750000D01*
X197250000Y-96750000D02*
X196250000Y-96750000D01*
X196250000Y-95750000D02*
X197250000Y-95750000D01*
X195350000Y-94520000D02*
X195350000Y-95650000D01*
X195350000Y-95650000D02*
X195250000Y-95750000D01*
X191500000Y-89500000D02*
X192500000Y-89500000D01*
X192500000Y-88500000D02*
X191500000Y-88500000D01*
X193500000Y-87500000D02*
X192500000Y-87500000D01*
X195500000Y-87500000D02*
X194500000Y-87500000D01*
X196500000Y-86500000D02*
X196500000Y-87500000D01*
X194500000Y-86500000D02*
X195500000Y-86500000D01*
X192500000Y-86500000D02*
X193500000Y-86500000D01*
X191500000Y-87500000D02*
X191500000Y-86500000D01*
X183000000Y-89300000D02*
X182000000Y-89300000D01*
X182000000Y-88400000D02*
X183000000Y-88400000D01*
X182000000Y-85700000D02*
X183000000Y-85700000D01*
X183000000Y-86600000D02*
X182000000Y-86600000D01*
X182000000Y-87500000D02*
X183000000Y-87500000D01*
X184000000Y-107000000D02*
X184000000Y-106418449D01*
X184000000Y-106418449D02*
X183881551Y-106300000D01*
X184000000Y-101000000D02*
X184000000Y-101400000D01*
X184000000Y-101400000D02*
X183700000Y-101700000D01*
X178000000Y-98500000D02*
X178000000Y-97600000D01*
X179500000Y-100000000D02*
X179500000Y-99300000D01*
X180350000Y-101950000D02*
X180350000Y-102950000D01*
X180350000Y-102950000D02*
X180200000Y-103100000D01*
X179050000Y-103750000D02*
X179950000Y-103750000D01*
X179950000Y-103750000D02*
X180200000Y-104000000D01*
X177350000Y-101900000D02*
X178350000Y-101900000D01*
X178350000Y-101900000D02*
X178500000Y-101750000D01*
X146975000Y-113525000D02*
X146975000Y-114500000D01*
X146975000Y-114500000D02*
X147475000Y-115000000D01*
X150475000Y-119475000D02*
X150475000Y-118000000D01*
X146000000Y-118000000D02*
X147475000Y-118000000D01*
X151950000Y-116500000D02*
X150475000Y-116500000D01*
X177500000Y-107750000D02*
X177500000Y-108500000D01*
X177000000Y-105750000D02*
X176250000Y-105750000D01*
X175650000Y-104100000D02*
X175650000Y-105100000D01*
X175650000Y-105100000D02*
X175500000Y-105250000D01*
X178500000Y-106750000D02*
X178750000Y-106750000D01*
X178750000Y-106750000D02*
X179450000Y-106050000D01*
X179450000Y-106050000D02*
X179850000Y-106050000D01*
X152250000Y-120500000D02*
X152250000Y-121775010D01*
X183000000Y-100000000D02*
X183000000Y-99500000D01*
X183000000Y-99500000D02*
X183300000Y-99200000D01*
X184000000Y-100000000D02*
X183000000Y-100000000D01*
X179500000Y-109000000D02*
X178900000Y-109600000D01*
X156845000Y-114500000D02*
X156845000Y-114845000D01*
X156845000Y-114845000D02*
X157750000Y-115750000D01*
X160500000Y-108000000D02*
X159250000Y-108000000D01*
X184000000Y-108000000D02*
X184500000Y-108000000D01*
X184500000Y-108000000D02*
X185000000Y-108500000D01*
X184000000Y-108000000D02*
X183000000Y-108000000D01*
X177500000Y-106750000D02*
X176750000Y-106750000D01*
X178000000Y-100405000D02*
X176905000Y-100405000D01*
X176905000Y-100405000D02*
X176750000Y-100250000D01*
X179500000Y-101000000D02*
X179450000Y-101000000D01*
X179450000Y-101000000D02*
X179496750Y-100953250D01*
X179496750Y-100953250D02*
X178948500Y-100405000D01*
X178948500Y-100405000D02*
X178000000Y-100405000D01*
X179850000Y-101950000D02*
X179850000Y-101350000D01*
X179850000Y-101350000D02*
X179500000Y-101000000D01*
X178500000Y-106300000D02*
X178500000Y-106750000D01*
X178000000Y-105750000D02*
X178000000Y-105800000D01*
X178000000Y-105800000D02*
X178500000Y-106300000D01*
X158000000Y-104345000D02*
X158000000Y-103250000D01*
X153750000Y-98250000D02*
X153750000Y-97000000D01*
X161500000Y-92500000D02*
X161500000Y-91750000D01*
X162595000Y-92500000D02*
X161500000Y-92500000D01*
X160350000Y-92550000D02*
X160350000Y-91850000D01*
X160350000Y-91850000D02*
X160250000Y-91750000D01*
X144902962Y-112923519D02*
X144902962Y-113097038D01*
X144902962Y-113097038D02*
X144000000Y-114000000D01*
X152792841Y-116194245D02*
X153092840Y-116494244D01*
X151950000Y-116000000D02*
X152049999Y-116099999D01*
X152049999Y-116099999D02*
X152695001Y-116099999D01*
X152789247Y-116194245D02*
X152792841Y-116194245D01*
X152695001Y-116099999D02*
X152789247Y-116194245D01*
X152250000Y-120500000D02*
X152519476Y-120230524D01*
X152519476Y-120230524D02*
X152519476Y-119753108D01*
X152519476Y-119753108D02*
X151950000Y-119183632D01*
X151950000Y-119183632D02*
X151950000Y-118500000D01*
X144902962Y-112923519D02*
X144902962Y-114177962D01*
X144902962Y-114177962D02*
X145225000Y-114500000D01*
X145225000Y-114500000D02*
X146000000Y-114500000D01*
X160588000Y-109101100D02*
X160588000Y-108088000D01*
X160588000Y-108088000D02*
X160500000Y-108000000D01*
X155200000Y-104800000D02*
X155655000Y-104345000D01*
X155655000Y-104345000D02*
X158000000Y-104345000D01*
X155200000Y-106000000D02*
X155200000Y-104800000D01*
X153250000Y-100400000D02*
X153250000Y-98750000D01*
X153250000Y-98750000D02*
X153750000Y-98250000D01*
X145405000Y-120500000D02*
X145405000Y-120754000D01*
X145405000Y-120754000D02*
X143690000Y-122469000D01*
X143690000Y-122469000D02*
X143690000Y-123000000D01*
X145500000Y-118500000D02*
X146000000Y-118500000D01*
X145250000Y-118750000D02*
X145500000Y-118500000D01*
X145250000Y-119396500D02*
X145250000Y-118750000D01*
X145405000Y-120500000D02*
X145405000Y-119551500D01*
X145405000Y-119551500D02*
X145250000Y-119396500D01*
X177500000Y-106750000D02*
X178500000Y-106750000D01*
X155000000Y-113000000D02*
X156750000Y-113000000D01*
X156750000Y-113000000D02*
X156845000Y-113095000D01*
X156845000Y-113095000D02*
X156845000Y-114500000D01*
X155000000Y-113000000D02*
X155000000Y-112352300D01*
D39*
X157738000Y-119000000D02*
X156500000Y-119000000D01*
X156500000Y-119000000D02*
X156350000Y-118850000D01*
X151950000Y-118000000D02*
X152625000Y-118000000D01*
X152625000Y-118000000D02*
X152700001Y-117924999D01*
X152700001Y-117924999D02*
X155524999Y-117924999D01*
X155524999Y-117924999D02*
X156350000Y-118750000D01*
X156350000Y-118750000D02*
X156350000Y-118850000D01*
D38*
X160588000Y-112352300D02*
X159639500Y-112352300D01*
X159639500Y-112352300D02*
X159469501Y-112522299D01*
X159469501Y-112522299D02*
X159469501Y-116215501D01*
X159469501Y-116215501D02*
X162250000Y-118996000D01*
X162250000Y-118996000D02*
X162250000Y-119250000D01*
X162750000Y-116250000D02*
X162750000Y-114845000D01*
X162750000Y-114845000D02*
X162655000Y-114750000D01*
X160588000Y-111691900D02*
X161941900Y-111691900D01*
X161941900Y-111691900D02*
X162989580Y-112739580D01*
X162989580Y-112739580D02*
X163248420Y-112739580D01*
X163248420Y-112739580D02*
X163738000Y-112250000D01*
D39*
X154226000Y-115000000D02*
X154226000Y-116226000D01*
X154226000Y-116226000D02*
X154650000Y-116650000D01*
X151950000Y-117500000D02*
X153900000Y-117500000D01*
X153900000Y-117500000D02*
X154650000Y-116750000D01*
X154650000Y-116750000D02*
X154650000Y-116650000D01*
D38*
X160588000Y-109748800D02*
X158498800Y-109748800D01*
X158498800Y-109748800D02*
X158000000Y-109250000D01*
X158000000Y-109250000D02*
X158000000Y-108000000D01*
X158000000Y-108000000D02*
X159329829Y-106670171D01*
X159329829Y-106670171D02*
X159329829Y-105424171D01*
X159329829Y-105424171D02*
X162750000Y-102004000D01*
X162750000Y-102004000D02*
X162750000Y-101750000D01*
X160588000Y-110396500D02*
X163491500Y-110396500D01*
X163491500Y-110396500D02*
X163845000Y-110750000D01*
X169655000Y-110250000D02*
X169655000Y-111405000D01*
X169655000Y-111405000D02*
X169750000Y-111500000D01*
X170988000Y-110000000D02*
X170988000Y-111238000D01*
X170988000Y-111238000D02*
X171000000Y-111250000D01*
X172500000Y-91250000D02*
X172500000Y-90250000D01*
X172595000Y-92500000D02*
X172595000Y-91345000D01*
X172595000Y-91345000D02*
X172500000Y-91250000D01*
X150976000Y-92500000D02*
X150976000Y-92524000D01*
X150976000Y-92524000D02*
X150250000Y-93250000D01*
X149500000Y-92202500D02*
X149500000Y-93000000D01*
D39*
X144774000Y-101750000D02*
X146050000Y-101750000D01*
X146050000Y-101750000D02*
X146150000Y-101650000D01*
X146150000Y-101650000D02*
X146150000Y-101750000D01*
X146150000Y-101750000D02*
X146975001Y-102575001D01*
X146975001Y-102575001D02*
X148774999Y-102575001D01*
X148774999Y-102575001D02*
X150000000Y-101350000D01*
X150000000Y-101350000D02*
X150000000Y-100400000D01*
X146524000Y-105500000D02*
X146524000Y-105246000D01*
X146524000Y-105246000D02*
X147850000Y-103920000D01*
X147850000Y-103920000D02*
X147850000Y-103850000D01*
X147850000Y-103850000D02*
X148600000Y-103850000D01*
X148600000Y-103850000D02*
X150650000Y-101800000D01*
X150650000Y-101800000D02*
X150650000Y-101350000D01*
X150650000Y-101350000D02*
X150650000Y-100400000D01*
D38*
X172000000Y-105250000D02*
X172550000Y-105250000D01*
X172550000Y-105250000D02*
X173700000Y-104100000D01*
X181850000Y-101950000D02*
X181850000Y-101250000D01*
X181850000Y-101250000D02*
X182100000Y-101000000D01*
X172000000Y-105250000D02*
X172620000Y-105870000D01*
X172620000Y-105870000D02*
X172620000Y-107250000D01*
X165650000Y-105250000D02*
X172000000Y-105250000D01*
X165000000Y-107250000D02*
X165000000Y-105900000D01*
X165000000Y-105900000D02*
X165650000Y-105250000D01*
X175200000Y-100100000D02*
X175200000Y-97300000D01*
X175200000Y-97300000D02*
X175900000Y-96600000D01*
X173550000Y-101750000D02*
X175200000Y-100100000D01*
X170750000Y-101750000D02*
X173550000Y-101750000D01*
X183150000Y-103750000D02*
X184079354Y-103750000D01*
X184079354Y-103750000D02*
X184154354Y-103675000D01*
X165000000Y-99750000D02*
X165000000Y-101100000D01*
X171350000Y-101150000D02*
X171350000Y-99750000D01*
X165000000Y-101100000D02*
X165650000Y-101750000D01*
X170750000Y-101750000D02*
X171350000Y-101150000D01*
X165650000Y-101750000D02*
X170750000Y-101750000D01*
X183150000Y-104250000D02*
X184553767Y-104250000D01*
X184553767Y-104250000D02*
X184628767Y-104325000D01*
X172000000Y-119500000D02*
X174300000Y-119500000D01*
X174300000Y-119500000D02*
X175000000Y-118800000D01*
X172000000Y-119500000D02*
X172620000Y-120120000D01*
X172620000Y-120120000D02*
X172620000Y-121750000D01*
X165750000Y-119500000D02*
X172000000Y-119500000D01*
X165000000Y-120250000D02*
X165750000Y-119500000D01*
X165000000Y-121750000D02*
X165000000Y-120250000D01*
X175850000Y-116250000D02*
X179900000Y-112200000D01*
X170750000Y-116250000D02*
X175850000Y-116250000D01*
X165000000Y-114250000D02*
X165000000Y-115600000D01*
X165000000Y-115600000D02*
X165650000Y-116250000D01*
X165650000Y-116250000D02*
X170750000Y-116250000D01*
X170750000Y-116250000D02*
X171350000Y-115650000D01*
X171350000Y-115650000D02*
X171350000Y-114250000D01*
X181850000Y-106050000D02*
X181850000Y-106950000D01*
X181850000Y-106950000D02*
X181900000Y-107000000D01*
D39*
X180500000Y-100200000D02*
X180850000Y-99850000D01*
X180500000Y-100250000D02*
X180500000Y-100200000D01*
X180850000Y-99850000D02*
X180850000Y-99437868D01*
X180850000Y-99437868D02*
X182475000Y-97812868D01*
X182475000Y-97812868D02*
X182475000Y-97175000D01*
X182475000Y-97175000D02*
X178000000Y-92700000D01*
X178000000Y-92700000D02*
X178000000Y-92250000D01*
X180935000Y-101168344D02*
X180835000Y-101068344D01*
X180500000Y-100300000D02*
X180500000Y-100250000D01*
X180835000Y-101068344D02*
X180835000Y-100635000D01*
X180835000Y-100635000D02*
X180500000Y-100300000D01*
X180850000Y-101950000D02*
X180850000Y-101375000D01*
X180850000Y-101375000D02*
X180935000Y-101290000D01*
X180935000Y-101290000D02*
X180935000Y-101168344D01*
X178000000Y-91250000D02*
X178000000Y-87325000D01*
X181150000Y-99562132D02*
X182775000Y-97937132D01*
X181500000Y-100250000D02*
X181500000Y-100200000D01*
X181150000Y-99850000D02*
X181150000Y-99562132D01*
X182775000Y-97175000D02*
X187250000Y-92700000D01*
X181500000Y-100200000D02*
X181150000Y-99850000D01*
X182775000Y-97937132D02*
X182775000Y-97175000D01*
X187250000Y-92700000D02*
X187250000Y-92250000D01*
X181165000Y-100635000D02*
X181500000Y-100300000D01*
X181265000Y-101031656D02*
X181165000Y-100931656D01*
X181165000Y-100931656D02*
X181165000Y-100635000D01*
X181500000Y-100300000D02*
X181500000Y-100250000D01*
X181265000Y-101290000D02*
X181265000Y-101031656D01*
X181350000Y-101950000D02*
X181350000Y-101375000D01*
X181350000Y-101375000D02*
X181265000Y-101290000D01*
X187250000Y-91250000D02*
X187250000Y-87325000D01*
X183150000Y-102750000D02*
X183725000Y-102750000D01*
X183725000Y-102750000D02*
X183825000Y-102850000D01*
X183825000Y-102850000D02*
X185000000Y-102850000D01*
X185000000Y-102850000D02*
X185350000Y-102500000D01*
X185350000Y-102500000D02*
X185400000Y-102500000D01*
X191000000Y-92850000D02*
X191000000Y-91750000D01*
X187400000Y-96450000D02*
X191000000Y-92850000D01*
X186737868Y-96450000D02*
X187400000Y-96450000D01*
X186350000Y-96837868D02*
X186737868Y-96450000D01*
X186152868Y-102835000D02*
X186350000Y-102637868D01*
X185450000Y-102500000D02*
X185785000Y-102835000D01*
X186350000Y-102637868D02*
X186350000Y-96837868D01*
X185785000Y-102835000D02*
X186152868Y-102835000D01*
X192000000Y-91750000D02*
X192400000Y-91750000D01*
X192400000Y-91750000D02*
X195500000Y-91750000D01*
X183725000Y-103250000D02*
X183825000Y-103150000D01*
X183150000Y-103250000D02*
X183725000Y-103250000D01*
X183825000Y-103150000D02*
X185000000Y-103150000D01*
X185000000Y-103150000D02*
X185350000Y-103500000D01*
X185350000Y-103500000D02*
X185400000Y-103500000D01*
X187400000Y-96750000D02*
X191000000Y-100350000D01*
X186862132Y-96750000D02*
X187400000Y-96750000D01*
X191000000Y-100350000D02*
X191000000Y-101000000D01*
X186650000Y-102762132D02*
X186650000Y-96962132D01*
X186247132Y-103165000D02*
X186650000Y-102762132D01*
X186650000Y-96962132D02*
X186862132Y-96750000D01*
X185785000Y-103165000D02*
X186247132Y-103165000D01*
X185450000Y-103500000D02*
X185785000Y-103165000D01*
X192000000Y-101000000D02*
X195500000Y-101000000D01*
X185350000Y-104500000D02*
X185400000Y-104500000D01*
X185000000Y-104850000D02*
X185350000Y-104500000D01*
X183825000Y-104850000D02*
X185000000Y-104850000D01*
X183725000Y-104750000D02*
X183825000Y-104850000D01*
X183150000Y-104750000D02*
X183725000Y-104750000D01*
X187300000Y-114550000D02*
X191000000Y-110850000D01*
X191000000Y-110850000D02*
X191000000Y-110250000D01*
X186650000Y-114437868D02*
X186762132Y-114550000D01*
X186297132Y-104835000D02*
X186650000Y-105187868D01*
X185450000Y-104500000D02*
X185785000Y-104835000D01*
X185785000Y-104835000D02*
X186297132Y-104835000D01*
X186650000Y-105187868D02*
X186650000Y-114437868D01*
X186762132Y-114550000D02*
X187300000Y-114550000D01*
X192000000Y-110250000D02*
X195500000Y-110250000D01*
X183150000Y-105250000D02*
X183725000Y-105250000D01*
X183725000Y-105250000D02*
X183810000Y-105165000D01*
X183810000Y-105165000D02*
X185015000Y-105165000D01*
X185350000Y-105500000D02*
X185400000Y-105500000D01*
X185015000Y-105165000D02*
X185350000Y-105500000D01*
X187300000Y-114850000D02*
X191000000Y-118550000D01*
X191000000Y-118550000D02*
X191000000Y-119500000D01*
X186350000Y-114562132D02*
X186637868Y-114850000D01*
X186350000Y-105312132D02*
X186350000Y-114562132D01*
X186202868Y-105165000D02*
X186350000Y-105312132D01*
X185450000Y-105500000D02*
X185785000Y-105165000D01*
X185785000Y-105165000D02*
X186202868Y-105165000D01*
X186637868Y-114850000D02*
X187300000Y-114850000D01*
X192000000Y-119500000D02*
X195500000Y-119500000D01*
X182665000Y-112735000D02*
X183025000Y-113095000D01*
X183025000Y-113095000D02*
X183025000Y-113475000D01*
X183025000Y-113475000D02*
X187500000Y-117950000D01*
X187500000Y-117950000D02*
X187500000Y-118000000D01*
X182665000Y-111681656D02*
X182665000Y-112735000D01*
X181500000Y-107750000D02*
X181500000Y-108200000D01*
X181500000Y-108200000D02*
X181165000Y-108535000D01*
X181165000Y-108535000D02*
X181165000Y-110181656D01*
X181165000Y-110181656D02*
X182665000Y-111681656D01*
X181265000Y-106968344D02*
X181165000Y-107068344D01*
X181165000Y-107068344D02*
X181165000Y-107365000D01*
X181165000Y-107365000D02*
X181500000Y-107700000D01*
X181500000Y-107700000D02*
X181500000Y-107750000D01*
X181350000Y-106050000D02*
X181350000Y-106625000D01*
X181350000Y-106625000D02*
X181265000Y-106710000D01*
X181265000Y-106710000D02*
X181265000Y-106968344D01*
X187500000Y-119000000D02*
X187500000Y-119400000D01*
X187500000Y-119400000D02*
X187500000Y-122500000D01*
X180835000Y-110318344D02*
X182335000Y-111818344D01*
X182335000Y-111818344D02*
X182335000Y-112871690D01*
X180500000Y-107750000D02*
X180500000Y-108200000D01*
X180500000Y-108200000D02*
X180835000Y-108535000D01*
X180835000Y-108535000D02*
X180835000Y-110318344D01*
X182335000Y-112871690D02*
X182725000Y-113261690D01*
X182725000Y-113261690D02*
X182725000Y-113475000D01*
X182725000Y-113475000D02*
X178250000Y-117950000D01*
X178250000Y-117950000D02*
X178250000Y-118000000D01*
X180835000Y-107365000D02*
X180500000Y-107700000D01*
X180935000Y-106831656D02*
X180835000Y-106931656D01*
X180835000Y-106931656D02*
X180835000Y-107365000D01*
X180500000Y-107700000D02*
X180500000Y-107750000D01*
X180850000Y-106050000D02*
X180850000Y-106625000D01*
X180850000Y-106625000D02*
X180935000Y-106710000D01*
X180935000Y-106710000D02*
X180935000Y-106831656D01*
X178250000Y-119000000D02*
X178250000Y-122500000D01*
X183000000Y-106250000D02*
X183000000Y-107000000D01*
X149475000Y-119475000D02*
X149475000Y-120725000D01*
X149475000Y-120725000D02*
X150250000Y-121500000D01*
X182350000Y-106050000D02*
X182350000Y-106350000D01*
X182350000Y-106350000D02*
X183000000Y-107000000D01*
X182951904Y-101753435D02*
X182951904Y-101048096D01*
X182951904Y-101048096D02*
X183000000Y-101000000D01*
X149975000Y-119475000D02*
X149975000Y-120225000D01*
X149975000Y-120225000D02*
X150500000Y-120750000D01*
X182350000Y-101950000D02*
X182350000Y-101650000D01*
X182350000Y-101650000D02*
X183000000Y-101000000D01*
X179182499Y-107251875D02*
X179182499Y-107682499D01*
X179182499Y-107682499D02*
X179500000Y-108000000D01*
X149475000Y-113525000D02*
X149475000Y-112275000D01*
X149475000Y-112275000D02*
X149750000Y-112000000D01*
X180000000Y-107100000D02*
X180050000Y-107100000D01*
X180050000Y-107100000D02*
X180350000Y-106800000D01*
X179500000Y-108000000D02*
X179500000Y-107600000D01*
X179500000Y-107600000D02*
X180000000Y-107100000D01*
X180350000Y-106050000D02*
X180350000Y-106800000D01*
X150475000Y-113525000D02*
X150475000Y-112850000D01*
X150475000Y-112850000D02*
X152268100Y-111056900D01*
X152268100Y-111056900D02*
X154151500Y-111056900D01*
X154151500Y-111056900D02*
X155000000Y-111056900D01*
X149975000Y-113525000D02*
X149975000Y-112775000D01*
X149975000Y-112775000D02*
X152353500Y-110396500D01*
X152353500Y-110396500D02*
X154151500Y-110396500D01*
X154151500Y-110396500D02*
X155000000Y-110396500D01*
X148975000Y-113525000D02*
X148975000Y-112025000D01*
X148975000Y-112025000D02*
X151251200Y-109748800D01*
X151251200Y-109748800D02*
X154151500Y-109748800D01*
X154151500Y-109748800D02*
X155000000Y-109748800D01*
X148475000Y-111525000D02*
X148750000Y-111250000D01*
X148475000Y-113525000D02*
X148475000Y-111525000D01*
X152750000Y-111750000D02*
X154954600Y-111750000D01*
X154954600Y-111750000D02*
X155000000Y-111704600D01*
X149197142Y-104500000D02*
X145148570Y-108548572D01*
X153900000Y-100400000D02*
X153900000Y-101050000D01*
X153900000Y-101050000D02*
X150450000Y-104500000D01*
X150450000Y-104500000D02*
X149197142Y-104500000D01*
X145148570Y-108548572D02*
X144848571Y-108848571D01*
X145250000Y-115500000D02*
X145325000Y-115500000D01*
X144750000Y-115000000D02*
X145250000Y-115500000D01*
X145325000Y-115500000D02*
X146000000Y-115500000D01*
X154500000Y-101750000D02*
X154500000Y-100450000D01*
X154500000Y-100450000D02*
X154550000Y-100400000D01*
X146000000Y-116000000D02*
X145000000Y-116000000D01*
X153250000Y-106000000D02*
X153250000Y-106650000D01*
X147564466Y-107750000D02*
X143494139Y-111820327D01*
X153250000Y-106650000D02*
X152150000Y-107750000D01*
X152150000Y-107750000D02*
X147564466Y-107750000D01*
X143494139Y-111820327D02*
X143494139Y-113212708D01*
X145325000Y-116500000D02*
X146000000Y-116500000D01*
X143494139Y-113212708D02*
X143474549Y-113232298D01*
X143474549Y-113232298D02*
X143474549Y-115251553D01*
X143474549Y-115251553D02*
X144747998Y-116525002D01*
X144747998Y-116525002D02*
X145299998Y-116525002D01*
X145299998Y-116525002D02*
X145325000Y-116500000D01*
X150000000Y-106000000D02*
X148439619Y-106000000D01*
X148439619Y-106000000D02*
X143114911Y-111324708D01*
X143114911Y-111324708D02*
X143114911Y-115316194D01*
X143114911Y-115316194D02*
X144798717Y-117000000D01*
X144798717Y-117000000D02*
X145325000Y-117000000D01*
X145325000Y-117000000D02*
X146000000Y-117000000D01*
X175650000Y-101900000D02*
X175650000Y-102000000D01*
X175650000Y-102000000D02*
X176475001Y-102825001D01*
X176475001Y-102825001D02*
X178374999Y-102825001D01*
X178374999Y-102825001D02*
X178450000Y-102750000D01*
X178450000Y-102750000D02*
X179050000Y-102750000D01*
X177350000Y-104100000D02*
X177350000Y-104000000D01*
X178450000Y-103250000D02*
X179050000Y-103250000D01*
X177350000Y-104000000D02*
X178100000Y-103250000D01*
X178100000Y-103250000D02*
X178450000Y-103250000D01*
X152110000Y-97843344D02*
X152110000Y-99040000D01*
X151181656Y-96915000D02*
X152110000Y-97843344D01*
X152110000Y-99040000D02*
X151950000Y-99200000D01*
X151950000Y-99200000D02*
X151950000Y-100400000D01*
X145068344Y-96915000D02*
X151181656Y-96915000D01*
X144318344Y-97665000D02*
X145068344Y-96915000D01*
X143181656Y-97665000D02*
X144318344Y-97665000D01*
X141835000Y-96318344D02*
X143181656Y-97665000D01*
X141835000Y-94431656D02*
X141835000Y-96318344D01*
X142831706Y-93434950D02*
X141835000Y-94431656D01*
X144488340Y-93434950D02*
X142831706Y-93434950D01*
X146449320Y-93199900D02*
X144723390Y-93199900D01*
X144723390Y-93199900D02*
X144488340Y-93434950D01*
X151318344Y-96585000D02*
X152440000Y-97706656D01*
X152440000Y-97706656D02*
X152440000Y-99040000D01*
X152440000Y-99040000D02*
X152600000Y-99200000D01*
X152600000Y-99200000D02*
X152600000Y-100400000D01*
X144931656Y-96585000D02*
X151318344Y-96585000D01*
X144181656Y-97335000D02*
X144931656Y-96585000D01*
X143318344Y-97335000D02*
X144181656Y-97335000D01*
X142165000Y-96181656D02*
X143318344Y-97335000D01*
X142165000Y-94568344D02*
X142165000Y-96181656D01*
X142968394Y-93764950D02*
X142165000Y-94568344D01*
X146449320Y-94000000D02*
X144723390Y-94000000D01*
X144723390Y-94000000D02*
X144488340Y-93764950D01*
X144488340Y-93764950D02*
X142968394Y-93764950D01*
X155500000Y-121000000D02*
X156738000Y-121000000D01*
X156738000Y-121000000D02*
X156750000Y-120988000D01*
X152906281Y-115500000D02*
X153072772Y-115666491D01*
X151950000Y-115500000D02*
X152906281Y-115500000D01*
X153205201Y-115000000D02*
X153263946Y-114941255D01*
X151950000Y-115000000D02*
X153205201Y-115000000D01*
X142000000Y-113726000D02*
X142000000Y-113750000D01*
X142000000Y-113750000D02*
X141250000Y-114500000D01*
X140500000Y-112750000D02*
X140500000Y-113476000D01*
X140500000Y-113476000D02*
X140250000Y-113726000D01*
X153000000Y-114125000D02*
X153000000Y-113750000D01*
X151950000Y-114500000D02*
X152625000Y-114500000D01*
X152625000Y-114500000D02*
X153000000Y-114125000D01*
X144500000Y-117500000D02*
X146000000Y-117500000D01*
X144250000Y-117750000D02*
X144500000Y-117500000D01*
X144250000Y-119250000D02*
X144250000Y-117750000D01*
X146230000Y-121770000D02*
X146975000Y-121025000D01*
X146975000Y-121025000D02*
X146975000Y-119475000D01*
X146230000Y-123000000D02*
X146230000Y-121770000D01*
X148770000Y-123000000D02*
X147475000Y-121705000D01*
X147475000Y-121705000D02*
X147475000Y-119475000D01*
X151310000Y-123000000D02*
X150548001Y-122238001D01*
X147975000Y-120150000D02*
X147975000Y-119475000D01*
X150548001Y-122238001D02*
X150063001Y-122238001D01*
X150063001Y-122238001D02*
X147975000Y-120150000D01*
X156750000Y-122512000D02*
X158239400Y-122512000D01*
X158239400Y-122512000D02*
X158251400Y-122500000D01*
X142000000Y-116250700D02*
X142000000Y-115250000D01*
X140250000Y-115250000D02*
X140250000Y-116250700D01*
D38*
X158750000Y-94150000D02*
X158750000Y-92850000D01*
X158750000Y-92850000D02*
X158450000Y-92550000D01*
X158450000Y-92550000D02*
X157650000Y-92550000D01*
X157650000Y-94450000D02*
X158450000Y-94450000D01*
X158450000Y-94450000D02*
X158750000Y-94150000D01*
X160350000Y-94450000D02*
X160350000Y-95888000D01*
X160350000Y-95888000D02*
X160250000Y-95988000D01*
D39*
X146350260Y-98450080D02*
X145549920Y-98450080D01*
X145549920Y-98450080D02*
X145000000Y-99000000D01*
X145000000Y-99000000D02*
X141401080Y-99000000D01*
X141401080Y-99000000D02*
X140851160Y-98450080D01*
X140851160Y-89549920D02*
X141000000Y-89401080D01*
X141000000Y-89401080D02*
X141000000Y-91000000D01*
X141000000Y-91000000D02*
X140000000Y-92000000D01*
X140000000Y-92000000D02*
X140000000Y-96000000D01*
X140000000Y-96000000D02*
X140851160Y-96851160D01*
X140851160Y-96851160D02*
X140851160Y-98450080D01*
X146350260Y-89549920D02*
X140851160Y-89549920D01*
G36*
X151425000Y-92031066D02*
X151425000Y-92968934D01*
X150718934Y-93675000D01*
X149281066Y-93675000D01*
X148303033Y-92696967D01*
X148278222Y-92680512D01*
X148250000Y-92675000D01*
X145325000Y-92675000D01*
X145325000Y-92075000D01*
X148500000Y-92075000D01*
X148529179Y-92069091D01*
X148553033Y-92053033D01*
X148781066Y-91825000D01*
X151218934Y-91825000D01*
X151425000Y-92031066D01*
X151425000Y-92031066D01*
G37*
X151425000Y-92031066D02*
X151425000Y-92968934D01*
X150718934Y-93675000D01*
X149281066Y-93675000D01*
X148303033Y-92696967D01*
X148278222Y-92680512D01*
X148250000Y-92675000D01*
X145325000Y-92675000D01*
X145325000Y-92075000D01*
X148500000Y-92075000D01*
X148529179Y-92069091D01*
X148553033Y-92053033D01*
X148781066Y-91825000D01*
X151218934Y-91825000D01*
X151425000Y-92031066D01*
G36*
X155196967Y-92053033D02*
X155221778Y-92069488D01*
X155250000Y-92075000D01*
X158175000Y-92075000D01*
X158175000Y-92925000D01*
X155250000Y-92925000D01*
X155220821Y-92930909D01*
X155196967Y-92946967D01*
X154968934Y-93175000D01*
X152281066Y-93175000D01*
X152075000Y-92968934D01*
X152075000Y-92031066D01*
X152281066Y-91825000D01*
X154968934Y-91825000D01*
X155196967Y-92053033D01*
X155196967Y-92053033D01*
G37*
X155196967Y-92053033D02*
X155221778Y-92069488D01*
X155250000Y-92075000D01*
X158175000Y-92075000D01*
X158175000Y-92925000D01*
X155250000Y-92925000D01*
X155220821Y-92930909D01*
X155196967Y-92946967D01*
X154968934Y-93175000D01*
X152281066Y-93175000D01*
X152075000Y-92968934D01*
X152075000Y-92031066D01*
X152281066Y-91825000D01*
X154968934Y-91825000D01*
X155196967Y-92053033D01*
G36*
X173175000Y-95281066D02*
X173175000Y-100925000D01*
X172325000Y-100925000D01*
X172325000Y-98500000D01*
X172319091Y-98470821D01*
X172303033Y-98446967D01*
X171825000Y-97968934D01*
X171825000Y-95281066D01*
X172031066Y-95075000D01*
X172968934Y-95075000D01*
X173175000Y-95281066D01*
X173175000Y-95281066D01*
G37*
X173175000Y-95281066D02*
X173175000Y-100925000D01*
X172325000Y-100925000D01*
X172325000Y-98500000D01*
X172319091Y-98470821D01*
X172303033Y-98446967D01*
X171825000Y-97968934D01*
X171825000Y-95281066D01*
X172031066Y-95075000D01*
X172968934Y-95075000D01*
X173175000Y-95281066D01*
G36*
X163175000Y-92968934D02*
X162968934Y-93175000D01*
X161531066Y-93175000D01*
X161303033Y-92946967D01*
X161278222Y-92930512D01*
X161250000Y-92925000D01*
X159781066Y-92925000D01*
X159575000Y-92718934D01*
X159575000Y-91325000D01*
X163175000Y-91325000D01*
X163175000Y-92968934D01*
X163175000Y-92968934D01*
G37*
X163175000Y-92968934D02*
X162968934Y-93175000D01*
X161531066Y-93175000D01*
X161303033Y-92946967D01*
X161278222Y-92930512D01*
X161250000Y-92925000D01*
X159781066Y-92925000D01*
X159575000Y-92718934D01*
X159575000Y-91325000D01*
X163175000Y-91325000D01*
X163175000Y-92968934D01*
G36*
X173675000Y-87027062D02*
X173675000Y-89750000D01*
X173680909Y-89779179D01*
X173696967Y-89803033D01*
X175175000Y-91281066D01*
X175175000Y-93968934D01*
X174196967Y-94946967D01*
X174180512Y-94971778D01*
X174175000Y-95000000D01*
X174175000Y-100630025D01*
X173405026Y-101400000D01*
X171594974Y-101400000D01*
X171597487Y-101397487D01*
X171673358Y-101283940D01*
X171683054Y-101235195D01*
X171700000Y-101150000D01*
X171700000Y-101070000D01*
X171733380Y-101063719D01*
X171809960Y-101014441D01*
X171861334Y-100939253D01*
X171879408Y-100850000D01*
X171879408Y-98650000D01*
X171863719Y-98566620D01*
X171814441Y-98490040D01*
X171739253Y-98438666D01*
X171650000Y-98420592D01*
X171050000Y-98420592D01*
X170966620Y-98436281D01*
X170890040Y-98485559D01*
X170838666Y-98560747D01*
X170820592Y-98650000D01*
X170820592Y-100850000D01*
X170836281Y-100933380D01*
X170885559Y-101009960D01*
X170950615Y-101054411D01*
X170605026Y-101400000D01*
X165794975Y-101400000D01*
X165429205Y-101034231D01*
X165459960Y-101014441D01*
X165511334Y-100939253D01*
X165529408Y-100850000D01*
X165529408Y-98650000D01*
X165740592Y-98650000D01*
X165740592Y-100850000D01*
X165756281Y-100933380D01*
X165805559Y-101009960D01*
X165880747Y-101061334D01*
X165970000Y-101079408D01*
X166570000Y-101079408D01*
X166653380Y-101063719D01*
X166729960Y-101014441D01*
X166781334Y-100939253D01*
X166799408Y-100850000D01*
X166799408Y-98650000D01*
X169550592Y-98650000D01*
X169550592Y-100850000D01*
X169566281Y-100933380D01*
X169615559Y-101009960D01*
X169690747Y-101061334D01*
X169780000Y-101079408D01*
X170380000Y-101079408D01*
X170463380Y-101063719D01*
X170539960Y-101014441D01*
X170591334Y-100939253D01*
X170609408Y-100850000D01*
X170609408Y-98650000D01*
X170593719Y-98566620D01*
X170544441Y-98490040D01*
X170469253Y-98438666D01*
X170380000Y-98420592D01*
X169780000Y-98420592D01*
X169696620Y-98436281D01*
X169620040Y-98485559D01*
X169568666Y-98560747D01*
X169550592Y-98650000D01*
X166799408Y-98650000D01*
X166783719Y-98566620D01*
X166734441Y-98490040D01*
X166659253Y-98438666D01*
X166570000Y-98420592D01*
X165970000Y-98420592D01*
X165886620Y-98436281D01*
X165810040Y-98485559D01*
X165758666Y-98560747D01*
X165740592Y-98650000D01*
X165529408Y-98650000D01*
X165513719Y-98566620D01*
X165464441Y-98490040D01*
X165389253Y-98438666D01*
X165300000Y-98420592D01*
X164700000Y-98420592D01*
X164616620Y-98436281D01*
X164540040Y-98485559D01*
X164488666Y-98560747D01*
X164475000Y-98628232D01*
X164475000Y-98250000D01*
X164459612Y-98168222D01*
X164411282Y-98093114D01*
X164337538Y-98042727D01*
X164250000Y-98025000D01*
X162250000Y-98025000D01*
X162168222Y-98040388D01*
X162093114Y-98088718D01*
X162042727Y-98162462D01*
X162025000Y-98250000D01*
X162025000Y-100656802D01*
X161840901Y-100840901D01*
X161792727Y-100912462D01*
X161775000Y-101000000D01*
X161775000Y-102250000D01*
X161791537Y-102334666D01*
X161840901Y-102409099D01*
X161845414Y-102413612D01*
X159082342Y-105176684D01*
X159006471Y-105290232D01*
X158979829Y-105424171D01*
X158979829Y-106525196D01*
X157752513Y-107752513D01*
X157676642Y-107866061D01*
X157650000Y-108000000D01*
X157650000Y-109250000D01*
X157669610Y-109348587D01*
X157676642Y-109383939D01*
X157752513Y-109497487D01*
X158251313Y-109996288D01*
X158364861Y-110072158D01*
X158498800Y-110098800D01*
X159676657Y-110098800D01*
X159660092Y-110180600D01*
X159660092Y-110612400D01*
X159675781Y-110695780D01*
X159725059Y-110772360D01*
X159800247Y-110823734D01*
X159889500Y-110841808D01*
X161286500Y-110841808D01*
X161369880Y-110826119D01*
X161446460Y-110776841D01*
X161467191Y-110746500D01*
X163025000Y-110746500D01*
X163025000Y-111500000D01*
X163040388Y-111581778D01*
X163063737Y-111618065D01*
X162713388Y-111968414D01*
X162189387Y-111444413D01*
X162075839Y-111368542D01*
X162063361Y-111366060D01*
X161941900Y-111341900D01*
X161467581Y-111341900D01*
X161450941Y-111316040D01*
X161375753Y-111264666D01*
X161286500Y-111246592D01*
X159889500Y-111246592D01*
X159806120Y-111262281D01*
X159729540Y-111311559D01*
X159678166Y-111386747D01*
X159660092Y-111476000D01*
X159660092Y-111907800D01*
X159675781Y-111991180D01*
X159682937Y-112002300D01*
X159639500Y-112002300D01*
X159505561Y-112028942D01*
X159392013Y-112104813D01*
X159222014Y-112274812D01*
X159146143Y-112388360D01*
X159119501Y-112522299D01*
X159119501Y-116215501D01*
X159144425Y-116340805D01*
X159146143Y-116349440D01*
X159222014Y-116462988D01*
X161525000Y-118765975D01*
X161525000Y-120656802D01*
X161090901Y-121090901D01*
X161042727Y-121162462D01*
X161025000Y-121250000D01*
X161025000Y-122250000D01*
X161041537Y-122334666D01*
X161090901Y-122409099D01*
X161340901Y-122659099D01*
X161412462Y-122707273D01*
X161500000Y-122725000D01*
X162656802Y-122725000D01*
X163090901Y-123159099D01*
X163162462Y-123207273D01*
X163250000Y-123225000D01*
X164000000Y-123225000D01*
X164084666Y-123208463D01*
X164159099Y-123159099D01*
X164409099Y-122909099D01*
X164457273Y-122837538D01*
X164470592Y-122771767D01*
X164470592Y-122850000D01*
X164486281Y-122933380D01*
X164535559Y-123009960D01*
X164610747Y-123061334D01*
X164700000Y-123079408D01*
X165300000Y-123079408D01*
X165383380Y-123063719D01*
X165459960Y-123014441D01*
X165511334Y-122939253D01*
X165529408Y-122850000D01*
X165529408Y-120650000D01*
X165740592Y-120650000D01*
X165740592Y-122850000D01*
X165756281Y-122933380D01*
X165805559Y-123009960D01*
X165880747Y-123061334D01*
X165970000Y-123079408D01*
X166570000Y-123079408D01*
X166653380Y-123063719D01*
X166729960Y-123014441D01*
X166781334Y-122939253D01*
X166799408Y-122850000D01*
X166799408Y-120650000D01*
X169550592Y-120650000D01*
X169550592Y-122850000D01*
X169566281Y-122933380D01*
X169615559Y-123009960D01*
X169690747Y-123061334D01*
X169780000Y-123079408D01*
X170380000Y-123079408D01*
X170463380Y-123063719D01*
X170539960Y-123014441D01*
X170591334Y-122939253D01*
X170609408Y-122850000D01*
X170609408Y-120650000D01*
X170820592Y-120650000D01*
X170820592Y-122850000D01*
X170836281Y-122933380D01*
X170885559Y-123009960D01*
X170960747Y-123061334D01*
X171050000Y-123079408D01*
X171650000Y-123079408D01*
X171733380Y-123063719D01*
X171809960Y-123014441D01*
X171861334Y-122939253D01*
X171879408Y-122850000D01*
X171879408Y-120650000D01*
X171863719Y-120566620D01*
X171814441Y-120490040D01*
X171739253Y-120438666D01*
X171650000Y-120420592D01*
X171050000Y-120420592D01*
X170966620Y-120436281D01*
X170890040Y-120485559D01*
X170838666Y-120560747D01*
X170820592Y-120650000D01*
X170609408Y-120650000D01*
X170593719Y-120566620D01*
X170544441Y-120490040D01*
X170469253Y-120438666D01*
X170380000Y-120420592D01*
X169780000Y-120420592D01*
X169696620Y-120436281D01*
X169620040Y-120485559D01*
X169568666Y-120560747D01*
X169550592Y-120650000D01*
X166799408Y-120650000D01*
X166783719Y-120566620D01*
X166734441Y-120490040D01*
X166659253Y-120438666D01*
X166570000Y-120420592D01*
X165970000Y-120420592D01*
X165886620Y-120436281D01*
X165810040Y-120485559D01*
X165758666Y-120560747D01*
X165740592Y-120650000D01*
X165529408Y-120650000D01*
X165513719Y-120566620D01*
X165464441Y-120490040D01*
X165389253Y-120438666D01*
X165350000Y-120430717D01*
X165350000Y-120394974D01*
X165894974Y-119850000D01*
X171855026Y-119850000D01*
X172270000Y-120264975D01*
X172270000Y-120430000D01*
X172236620Y-120436281D01*
X172160040Y-120485559D01*
X172108666Y-120560747D01*
X172090592Y-120650000D01*
X172090592Y-122850000D01*
X172106281Y-122933380D01*
X172155559Y-123009960D01*
X172230747Y-123061334D01*
X172320000Y-123079408D01*
X172920000Y-123079408D01*
X173003380Y-123063719D01*
X173079960Y-123014441D01*
X173131334Y-122939253D01*
X173149408Y-122850000D01*
X173149408Y-120650000D01*
X173133719Y-120566620D01*
X173084441Y-120490040D01*
X173009253Y-120438666D01*
X172970000Y-120430717D01*
X172970000Y-120120000D01*
X172947778Y-120008282D01*
X172943358Y-119986060D01*
X172867487Y-119872512D01*
X172844975Y-119850000D01*
X174175000Y-119850000D01*
X174175000Y-124700000D01*
X139300000Y-124700000D01*
X139300000Y-113408500D01*
X139449092Y-113408500D01*
X139449092Y-114043500D01*
X139464781Y-114126880D01*
X139514059Y-114203460D01*
X139589247Y-114254834D01*
X139678500Y-114272908D01*
X140775835Y-114272908D01*
X140725092Y-114395113D01*
X140724909Y-114603971D01*
X140765865Y-114703092D01*
X139678500Y-114703092D01*
X139595120Y-114718781D01*
X139518540Y-114768059D01*
X139467166Y-114843247D01*
X139449092Y-114932500D01*
X139449092Y-115567500D01*
X139464781Y-115650880D01*
X139514059Y-115727460D01*
X139589247Y-115778834D01*
X139634746Y-115788048D01*
X139621812Y-115851920D01*
X139621812Y-116649480D01*
X139637501Y-116732860D01*
X139686779Y-116809440D01*
X139761967Y-116860814D01*
X139851220Y-116878888D01*
X140648780Y-116878888D01*
X140732160Y-116863199D01*
X140808740Y-116813921D01*
X140860114Y-116738733D01*
X140878188Y-116649480D01*
X140878188Y-115851920D01*
X140866252Y-115788487D01*
X140904880Y-115781219D01*
X140981460Y-115731941D01*
X141032834Y-115656753D01*
X141050908Y-115567500D01*
X141050908Y-114985791D01*
X141145113Y-115024908D01*
X141199092Y-115024955D01*
X141199092Y-115567500D01*
X141214781Y-115650880D01*
X141264059Y-115727460D01*
X141339247Y-115778834D01*
X141384746Y-115788048D01*
X141371812Y-115851920D01*
X141371812Y-116649480D01*
X141387501Y-116732860D01*
X141436779Y-116809440D01*
X141511967Y-116860814D01*
X141601220Y-116878888D01*
X142398780Y-116878888D01*
X142482160Y-116863199D01*
X142558740Y-116813921D01*
X142610114Y-116738733D01*
X142628188Y-116649480D01*
X142628188Y-115851920D01*
X142616252Y-115788487D01*
X142654880Y-115781219D01*
X142731460Y-115731941D01*
X142782834Y-115656753D01*
X142800908Y-115567500D01*
X142800908Y-114932500D01*
X142785219Y-114849120D01*
X142735941Y-114772540D01*
X142660753Y-114721166D01*
X142571500Y-114703092D01*
X141734130Y-114703092D01*
X141774908Y-114604887D01*
X141775088Y-114399176D01*
X141901356Y-114272908D01*
X142571500Y-114272908D01*
X142654880Y-114257219D01*
X142731460Y-114207941D01*
X142782834Y-114132753D01*
X142800908Y-114043500D01*
X142800908Y-113408500D01*
X142785219Y-113325120D01*
X142735941Y-113248540D01*
X142660753Y-113197166D01*
X142571500Y-113179092D01*
X141428500Y-113179092D01*
X141345120Y-113194781D01*
X141268540Y-113244059D01*
X141217166Y-113319247D01*
X141199092Y-113408500D01*
X141199092Y-113974955D01*
X141146029Y-113974909D01*
X141050908Y-114014212D01*
X141050908Y-113408500D01*
X141035219Y-113325120D01*
X140985941Y-113248540D01*
X140910753Y-113197166D01*
X140821500Y-113179092D01*
X140813269Y-113179092D01*
X140944814Y-113047777D01*
X141024908Y-112854887D01*
X141025091Y-112646029D01*
X140945333Y-112453000D01*
X140797777Y-112305186D01*
X140604887Y-112225092D01*
X140396029Y-112224909D01*
X140203000Y-112304667D01*
X140055186Y-112452223D01*
X139975092Y-112645113D01*
X139974909Y-112853971D01*
X140054667Y-113047000D01*
X140186528Y-113179092D01*
X139678500Y-113179092D01*
X139595120Y-113194781D01*
X139518540Y-113244059D01*
X139467166Y-113319247D01*
X139449092Y-113408500D01*
X139300000Y-113408500D01*
X139300000Y-99825000D01*
X148000000Y-99825000D01*
X148027259Y-99819871D01*
X148052295Y-99803761D01*
X148069091Y-99779179D01*
X148075000Y-99750000D01*
X148075000Y-97215000D01*
X151057392Y-97215000D01*
X151810000Y-97967608D01*
X151810000Y-98915736D01*
X151737868Y-98987868D01*
X151672836Y-99085195D01*
X151650000Y-99200000D01*
X151650000Y-99429150D01*
X151640040Y-99435559D01*
X151588666Y-99510747D01*
X151570592Y-99600000D01*
X151570592Y-101200000D01*
X151586281Y-101283380D01*
X151635559Y-101359960D01*
X151710747Y-101411334D01*
X151800000Y-101429408D01*
X152100000Y-101429408D01*
X152183380Y-101413719D01*
X152259960Y-101364441D01*
X152274628Y-101342973D01*
X152285559Y-101359960D01*
X152360747Y-101411334D01*
X152450000Y-101429408D01*
X152750000Y-101429408D01*
X152833380Y-101413719D01*
X152909960Y-101364441D01*
X152924628Y-101342973D01*
X152935559Y-101359960D01*
X153010747Y-101411334D01*
X153096946Y-101428790D01*
X150325736Y-104200000D01*
X149197142Y-104200000D01*
X149082337Y-104222836D01*
X148985010Y-104287868D01*
X148668370Y-104604508D01*
X148679408Y-104550000D01*
X148679408Y-104134205D01*
X148714805Y-104127164D01*
X148812132Y-104062132D01*
X150862132Y-102012132D01*
X150927164Y-101914805D01*
X150950000Y-101800000D01*
X150950000Y-101370850D01*
X150959960Y-101364441D01*
X151011334Y-101289253D01*
X151029408Y-101200000D01*
X151029408Y-99600000D01*
X151013719Y-99516620D01*
X150964441Y-99440040D01*
X150889253Y-99388666D01*
X150800000Y-99370592D01*
X150500000Y-99370592D01*
X150416620Y-99386281D01*
X150340040Y-99435559D01*
X150325372Y-99457027D01*
X150314441Y-99440040D01*
X150239253Y-99388666D01*
X150150000Y-99370592D01*
X149850000Y-99370592D01*
X149766620Y-99386281D01*
X149690040Y-99435559D01*
X149638666Y-99510747D01*
X149620592Y-99600000D01*
X149620592Y-101200000D01*
X149636281Y-101283380D01*
X149638660Y-101287076D01*
X148650735Y-102275001D01*
X147099265Y-102275001D01*
X146979408Y-102155144D01*
X146979408Y-100950000D01*
X146963719Y-100866620D01*
X146914441Y-100790040D01*
X146839253Y-100738666D01*
X146750000Y-100720592D01*
X145550000Y-100720592D01*
X145466620Y-100736281D01*
X145390040Y-100785559D01*
X145338666Y-100860747D01*
X145320592Y-100950000D01*
X145320592Y-101176821D01*
X145305219Y-101095120D01*
X145255941Y-101018540D01*
X145180753Y-100967166D01*
X145091500Y-100949092D01*
X144456500Y-100949092D01*
X144373120Y-100964781D01*
X144296540Y-101014059D01*
X144245166Y-101089247D01*
X144227092Y-101178500D01*
X144227092Y-102321500D01*
X144242781Y-102404880D01*
X144292059Y-102481460D01*
X144367247Y-102532834D01*
X144456500Y-102550908D01*
X145091500Y-102550908D01*
X145174880Y-102535219D01*
X145251460Y-102485941D01*
X145302834Y-102410753D01*
X145320592Y-102323060D01*
X145320592Y-102350000D01*
X145336281Y-102433380D01*
X145385559Y-102509960D01*
X145460747Y-102561334D01*
X145550000Y-102579408D01*
X146555144Y-102579408D01*
X146762869Y-102787133D01*
X146860196Y-102852165D01*
X146975001Y-102875001D01*
X148774999Y-102875001D01*
X148889804Y-102852165D01*
X148987131Y-102787133D01*
X150212132Y-101562132D01*
X150277164Y-101464805D01*
X150295244Y-101373911D01*
X150309960Y-101364441D01*
X150324628Y-101342973D01*
X150335559Y-101359960D01*
X150350000Y-101369827D01*
X150350000Y-101675736D01*
X148679408Y-103346328D01*
X148679408Y-103150000D01*
X148663719Y-103066620D01*
X148614441Y-102990040D01*
X148539253Y-102938666D01*
X148450000Y-102920592D01*
X147250000Y-102920592D01*
X147166620Y-102936281D01*
X147090040Y-102985559D01*
X147038666Y-103060747D01*
X147020592Y-103150000D01*
X147020592Y-104325144D01*
X146646644Y-104699092D01*
X146206500Y-104699092D01*
X146123120Y-104714781D01*
X146046540Y-104764059D01*
X145995166Y-104839247D01*
X145977092Y-104928500D01*
X145977092Y-106071500D01*
X145992781Y-106154880D01*
X146042059Y-106231460D01*
X146117247Y-106282834D01*
X146206500Y-106300908D01*
X146841500Y-106300908D01*
X146924880Y-106285219D01*
X147001460Y-106235941D01*
X147052834Y-106160753D01*
X147070908Y-106071500D01*
X147070908Y-105123356D01*
X147414856Y-104779408D01*
X148450000Y-104779408D01*
X148503545Y-104769333D01*
X144949219Y-108323659D01*
X144744600Y-108323480D01*
X144551571Y-108403238D01*
X144403757Y-108550794D01*
X144323663Y-108743684D01*
X144323480Y-108952542D01*
X144403238Y-109145571D01*
X144550794Y-109293385D01*
X144671747Y-109343608D01*
X142902779Y-111112576D01*
X142837747Y-111209903D01*
X142814911Y-111324708D01*
X142814911Y-115316194D01*
X142837747Y-115430999D01*
X142902779Y-115528326D01*
X144574453Y-117200000D01*
X144500000Y-117200000D01*
X144385195Y-117222836D01*
X144287868Y-117287868D01*
X144037868Y-117537868D01*
X143972836Y-117635195D01*
X143950000Y-117750000D01*
X143950000Y-118807662D01*
X143805186Y-118952223D01*
X143725092Y-119145113D01*
X143724909Y-119353971D01*
X143804667Y-119547000D01*
X143952223Y-119694814D01*
X144145113Y-119774908D01*
X144353971Y-119775091D01*
X144547000Y-119695333D01*
X144694814Y-119547777D01*
X144774908Y-119354887D01*
X144775091Y-119146029D01*
X144695333Y-118953000D01*
X144550000Y-118807413D01*
X144550000Y-117874264D01*
X144624264Y-117800000D01*
X144900250Y-117800000D01*
X145037750Y-117937500D01*
X145821000Y-117937500D01*
X145821000Y-117875000D01*
X146179000Y-117875000D01*
X146179000Y-117937500D01*
X146199000Y-117937500D01*
X146199000Y-118062500D01*
X146179000Y-118062500D01*
X146179000Y-118125000D01*
X145821000Y-118125000D01*
X145821000Y-118062500D01*
X145037750Y-118062500D01*
X144892000Y-118208250D01*
X144892000Y-118240966D01*
X144980756Y-118455243D01*
X145015269Y-118489756D01*
X145002513Y-118502513D01*
X144926642Y-118616061D01*
X144900000Y-118750000D01*
X144900000Y-119396500D01*
X144921978Y-119506990D01*
X144926642Y-119530439D01*
X144955147Y-119573099D01*
X144877120Y-119587781D01*
X144800540Y-119637059D01*
X144749166Y-119712247D01*
X144731092Y-119801500D01*
X144731092Y-120932933D01*
X143651060Y-122012966D01*
X143494535Y-122012830D01*
X143131640Y-122162775D01*
X142853750Y-122440180D01*
X142703172Y-122802812D01*
X142702830Y-123195465D01*
X142852775Y-123558360D01*
X143130180Y-123836250D01*
X143492812Y-123986828D01*
X143885465Y-123987170D01*
X144248360Y-123837225D01*
X144526250Y-123559820D01*
X144676828Y-123197188D01*
X144677170Y-122804535D01*
X144527225Y-122441640D01*
X144369917Y-122284057D01*
X145226067Y-121427908D01*
X145849500Y-121427908D01*
X145932880Y-121412219D01*
X146009460Y-121362941D01*
X146060834Y-121287753D01*
X146078908Y-121198500D01*
X146078908Y-119801500D01*
X146063219Y-119718120D01*
X146013941Y-119641540D01*
X145938753Y-119590166D01*
X145849500Y-119572092D01*
X145755000Y-119572092D01*
X145755000Y-119551500D01*
X145728358Y-119417561D01*
X145728358Y-119417560D01*
X145652487Y-119304013D01*
X145600000Y-119251526D01*
X145600000Y-118894974D01*
X145640567Y-118854408D01*
X146504921Y-118854408D01*
X146620592Y-118970079D01*
X146620592Y-120000000D01*
X146636281Y-120083380D01*
X146675000Y-120143551D01*
X146675000Y-120900736D01*
X146017868Y-121557868D01*
X145952836Y-121655195D01*
X145930000Y-121770000D01*
X145930000Y-122056023D01*
X145671640Y-122162775D01*
X145393750Y-122440180D01*
X145243172Y-122802812D01*
X145242830Y-123195465D01*
X145392775Y-123558360D01*
X145670180Y-123836250D01*
X146032812Y-123986828D01*
X146425465Y-123987170D01*
X146788360Y-123837225D01*
X147066250Y-123559820D01*
X147216828Y-123197188D01*
X147217170Y-122804535D01*
X147067225Y-122441640D01*
X146789820Y-122163750D01*
X146530000Y-122055863D01*
X146530000Y-121894264D01*
X147175000Y-121249264D01*
X147175000Y-121705000D01*
X147197836Y-121819805D01*
X147262868Y-121917132D01*
X147890375Y-122544639D01*
X147783172Y-122802812D01*
X147782830Y-123195465D01*
X147932775Y-123558360D01*
X148210180Y-123836250D01*
X148572812Y-123986828D01*
X148965465Y-123987170D01*
X149328360Y-123837225D01*
X149606250Y-123559820D01*
X149756828Y-123197188D01*
X149757170Y-122804535D01*
X149607225Y-122441640D01*
X149329820Y-122163750D01*
X148967188Y-122013172D01*
X148574535Y-122012830D01*
X148314527Y-122120263D01*
X147775000Y-121580736D01*
X147775000Y-120374264D01*
X149850869Y-122450133D01*
X149948196Y-122515165D01*
X150063001Y-122538001D01*
X150423737Y-122538001D01*
X150430375Y-122544639D01*
X150323172Y-122802812D01*
X150322830Y-123195465D01*
X150472775Y-123558360D01*
X150750180Y-123836250D01*
X151112812Y-123986828D01*
X151505465Y-123987170D01*
X151868360Y-123837225D01*
X152146250Y-123559820D01*
X152296828Y-123197188D01*
X152297170Y-122804535D01*
X152147225Y-122441640D01*
X151869820Y-122163750D01*
X151507188Y-122013172D01*
X151114535Y-122012830D01*
X150854527Y-122120263D01*
X150760133Y-122025869D01*
X150662806Y-121960837D01*
X150553291Y-121939053D01*
X150694814Y-121797777D01*
X150774908Y-121604887D01*
X150775091Y-121396029D01*
X150707453Y-121232333D01*
X150797000Y-121195333D01*
X150944814Y-121047777D01*
X151024908Y-120854887D01*
X151025091Y-120646029D01*
X150952980Y-120471507D01*
X151094244Y-120330243D01*
X151137837Y-120225000D01*
X151144755Y-120225000D01*
X151227452Y-120190746D01*
X151290746Y-120127452D01*
X151325000Y-120044756D01*
X151325000Y-119531250D01*
X151268750Y-119475000D01*
X151325000Y-119418750D01*
X151325000Y-118974487D01*
X151445079Y-118854408D01*
X151600000Y-118854408D01*
X151600000Y-119183632D01*
X151615700Y-119262561D01*
X151626642Y-119317571D01*
X151702513Y-119431119D01*
X151843486Y-119572092D01*
X151805500Y-119572092D01*
X151722120Y-119587781D01*
X151645540Y-119637059D01*
X151594166Y-119712247D01*
X151576092Y-119801500D01*
X151576092Y-121198500D01*
X151591781Y-121281880D01*
X151641059Y-121358460D01*
X151716247Y-121409834D01*
X151805500Y-121427908D01*
X151854597Y-121427908D01*
X151805186Y-121477233D01*
X151725092Y-121670123D01*
X151724909Y-121878981D01*
X151804667Y-122072010D01*
X151952223Y-122219824D01*
X152145113Y-122299918D01*
X152353971Y-122300101D01*
X152504266Y-122238000D01*
X152858592Y-122238000D01*
X152858592Y-123762000D01*
X152874281Y-123845380D01*
X152923559Y-123921960D01*
X152998747Y-123973334D01*
X153088000Y-123991408D01*
X154612000Y-123991408D01*
X154695380Y-123975719D01*
X154771960Y-123926441D01*
X154823334Y-123851253D01*
X154841408Y-123762000D01*
X154841408Y-122238000D01*
X154833223Y-122194500D01*
X155949092Y-122194500D01*
X155949092Y-122829500D01*
X155964781Y-122912880D01*
X156014059Y-122989460D01*
X156089247Y-123040834D01*
X156178500Y-123058908D01*
X157321500Y-123058908D01*
X157404880Y-123043219D01*
X157481460Y-122993941D01*
X157532834Y-122918753D01*
X157550908Y-122829500D01*
X157550908Y-122812000D01*
X157623212Y-122812000D01*
X157623212Y-122898780D01*
X157638901Y-122982160D01*
X157688179Y-123058740D01*
X157763367Y-123110114D01*
X157852620Y-123128188D01*
X158650180Y-123128188D01*
X158733560Y-123112499D01*
X158810140Y-123063221D01*
X158861514Y-122988033D01*
X158879588Y-122898780D01*
X158879588Y-122101220D01*
X158863899Y-122017840D01*
X158814621Y-121941260D01*
X158739433Y-121889886D01*
X158650180Y-121871812D01*
X157852620Y-121871812D01*
X157769240Y-121887501D01*
X157692660Y-121936779D01*
X157641286Y-122011967D01*
X157623212Y-122101220D01*
X157623212Y-122212000D01*
X157550908Y-122212000D01*
X157550908Y-122194500D01*
X157535219Y-122111120D01*
X157485941Y-122034540D01*
X157410753Y-121983166D01*
X157321500Y-121965092D01*
X156178500Y-121965092D01*
X156095120Y-121980781D01*
X156018540Y-122030059D01*
X155967166Y-122105247D01*
X155949092Y-122194500D01*
X154833223Y-122194500D01*
X154825719Y-122154620D01*
X154776441Y-122078040D01*
X154701253Y-122026666D01*
X154612000Y-122008592D01*
X153088000Y-122008592D01*
X153004620Y-122024281D01*
X152928040Y-122073559D01*
X152876666Y-122148747D01*
X152858592Y-122238000D01*
X152504266Y-122238000D01*
X152547000Y-122220343D01*
X152694814Y-122072787D01*
X152774908Y-121879897D01*
X152775091Y-121671039D01*
X152695333Y-121478010D01*
X152645318Y-121427908D01*
X152694500Y-121427908D01*
X152777880Y-121412219D01*
X152854460Y-121362941D01*
X152905834Y-121287753D01*
X152923908Y-121198500D01*
X152923908Y-121103971D01*
X154974909Y-121103971D01*
X155054667Y-121297000D01*
X155202223Y-121444814D01*
X155395113Y-121524908D01*
X155603971Y-121525091D01*
X155797000Y-121445333D01*
X155942587Y-121300000D01*
X155949092Y-121300000D01*
X155949092Y-121305500D01*
X155964781Y-121388880D01*
X156014059Y-121465460D01*
X156089247Y-121516834D01*
X156178500Y-121534908D01*
X157321500Y-121534908D01*
X157404880Y-121519219D01*
X157481460Y-121469941D01*
X157532834Y-121394753D01*
X157550908Y-121305500D01*
X157550908Y-120670500D01*
X157535219Y-120587120D01*
X157485941Y-120510540D01*
X157410753Y-120459166D01*
X157321500Y-120441092D01*
X156178500Y-120441092D01*
X156095120Y-120456781D01*
X156018540Y-120506059D01*
X155967166Y-120581247D01*
X155949092Y-120670500D01*
X155949092Y-120700000D01*
X155942338Y-120700000D01*
X155797777Y-120555186D01*
X155604887Y-120475092D01*
X155396029Y-120474909D01*
X155203000Y-120554667D01*
X155055186Y-120702223D01*
X154975092Y-120895113D01*
X154974909Y-121103971D01*
X152923908Y-121103971D01*
X152923908Y-119801500D01*
X152908219Y-119718120D01*
X152858941Y-119641540D01*
X152845450Y-119632322D01*
X152842834Y-119619169D01*
X152811378Y-119572092D01*
X152766964Y-119505621D01*
X152300000Y-119038658D01*
X152300000Y-118854408D01*
X152475000Y-118854408D01*
X152558380Y-118838719D01*
X152634960Y-118789441D01*
X152686334Y-118714253D01*
X152704408Y-118625000D01*
X152704408Y-118375000D01*
X152688719Y-118291620D01*
X152686269Y-118287813D01*
X152739805Y-118277164D01*
X152817875Y-118224999D01*
X155400735Y-118224999D01*
X155520592Y-118344856D01*
X155520592Y-119550000D01*
X155536281Y-119633380D01*
X155585559Y-119709960D01*
X155660747Y-119761334D01*
X155750000Y-119779408D01*
X156950000Y-119779408D01*
X157033380Y-119763719D01*
X157109960Y-119714441D01*
X157161334Y-119639253D01*
X157179408Y-119550000D01*
X157179408Y-119300000D01*
X157191092Y-119300000D01*
X157191092Y-119571500D01*
X157206781Y-119654880D01*
X157256059Y-119731460D01*
X157331247Y-119782834D01*
X157420500Y-119800908D01*
X158055500Y-119800908D01*
X158138880Y-119785219D01*
X158215460Y-119735941D01*
X158266834Y-119660753D01*
X158284908Y-119571500D01*
X158284908Y-118428500D01*
X158269219Y-118345120D01*
X158219941Y-118268540D01*
X158144753Y-118217166D01*
X158055500Y-118199092D01*
X157420500Y-118199092D01*
X157337120Y-118214781D01*
X157260540Y-118264059D01*
X157209166Y-118339247D01*
X157191092Y-118428500D01*
X157191092Y-118700000D01*
X157179408Y-118700000D01*
X157179408Y-118150000D01*
X157163719Y-118066620D01*
X157114441Y-117990040D01*
X157039253Y-117938666D01*
X156950000Y-117920592D01*
X155944856Y-117920592D01*
X155737131Y-117712867D01*
X155639804Y-117647835D01*
X155524999Y-117624999D01*
X154199265Y-117624999D01*
X154244856Y-117579408D01*
X155250000Y-117579408D01*
X155333380Y-117563719D01*
X155409960Y-117514441D01*
X155461334Y-117439253D01*
X155479408Y-117350000D01*
X155479408Y-115950000D01*
X155463719Y-115866620D01*
X155414441Y-115790040D01*
X155339253Y-115738666D01*
X155250000Y-115720592D01*
X154713948Y-115720592D01*
X154754834Y-115660753D01*
X154772908Y-115571500D01*
X154772908Y-114428500D01*
X154757219Y-114345120D01*
X154707941Y-114268540D01*
X154632753Y-114217166D01*
X154543500Y-114199092D01*
X153908500Y-114199092D01*
X153825120Y-114214781D01*
X153748540Y-114264059D01*
X153697166Y-114339247D01*
X153679092Y-114428500D01*
X153679092Y-114614015D01*
X153561723Y-114496441D01*
X153368833Y-114416347D01*
X153159975Y-114416164D01*
X153114176Y-114435088D01*
X153212132Y-114337132D01*
X153277164Y-114239805D01*
X153285026Y-114200281D01*
X153297000Y-114195333D01*
X153444814Y-114047777D01*
X153524908Y-113854887D01*
X153525091Y-113646029D01*
X153445333Y-113453000D01*
X153297777Y-113305186D01*
X153104887Y-113225092D01*
X152896029Y-113224909D01*
X152703000Y-113304667D01*
X152555186Y-113452223D01*
X152475092Y-113645113D01*
X152474909Y-113853971D01*
X152554667Y-114047000D01*
X152604158Y-114096578D01*
X152541648Y-114159088D01*
X152475000Y-114145592D01*
X151445079Y-114145592D01*
X151329408Y-114029921D01*
X151329408Y-113000000D01*
X151313719Y-112916620D01*
X151264441Y-112840040D01*
X151189253Y-112788666D01*
X151100000Y-112770592D01*
X150978672Y-112770592D01*
X152392364Y-111356900D01*
X152400676Y-111356900D01*
X152305186Y-111452223D01*
X152225092Y-111645113D01*
X152224909Y-111853971D01*
X152304667Y-112047000D01*
X152452223Y-112194814D01*
X152645113Y-112274908D01*
X152853971Y-112275091D01*
X153047000Y-112195333D01*
X153192587Y-112050000D01*
X154089588Y-112050000D01*
X154072092Y-112136400D01*
X154072092Y-112568200D01*
X154087781Y-112651580D01*
X154103276Y-112675660D01*
X154090166Y-112694847D01*
X154072092Y-112784100D01*
X154072092Y-113215900D01*
X154087781Y-113299280D01*
X154137059Y-113375860D01*
X154212247Y-113427234D01*
X154301500Y-113445308D01*
X155698500Y-113445308D01*
X155781880Y-113429619D01*
X155858460Y-113380341D01*
X155879191Y-113350000D01*
X156495000Y-113350000D01*
X156495000Y-113572092D01*
X156400500Y-113572092D01*
X156317120Y-113587781D01*
X156240540Y-113637059D01*
X156189166Y-113712247D01*
X156171092Y-113801500D01*
X156171092Y-115198500D01*
X156186781Y-115281880D01*
X156236059Y-115358460D01*
X156311247Y-115409834D01*
X156400500Y-115427908D01*
X156932934Y-115427908D01*
X157225026Y-115720001D01*
X157224909Y-115853971D01*
X157304667Y-116047000D01*
X157452223Y-116194814D01*
X157645113Y-116274908D01*
X157853971Y-116275091D01*
X158047000Y-116195333D01*
X158194814Y-116047777D01*
X158274908Y-115854887D01*
X158275091Y-115646029D01*
X158195333Y-115453000D01*
X158047777Y-115305186D01*
X157854887Y-115225092D01*
X157719948Y-115224974D01*
X157518908Y-115023934D01*
X157518908Y-113801500D01*
X157503219Y-113718120D01*
X157453941Y-113641540D01*
X157378753Y-113590166D01*
X157289500Y-113572092D01*
X157195000Y-113572092D01*
X157195000Y-113095000D01*
X157169103Y-112964805D01*
X157168358Y-112961060D01*
X157092487Y-112847512D01*
X156997487Y-112752513D01*
X156883939Y-112676642D01*
X156878992Y-112675658D01*
X156750000Y-112650000D01*
X155911343Y-112650000D01*
X155927908Y-112568200D01*
X155927908Y-112136400D01*
X155912219Y-112053020D01*
X155896724Y-112028940D01*
X155909834Y-112009753D01*
X155927908Y-111920500D01*
X155927908Y-111488700D01*
X155912219Y-111405320D01*
X155896724Y-111381240D01*
X155909834Y-111362053D01*
X155927908Y-111272800D01*
X155927908Y-110841000D01*
X155912219Y-110757620D01*
X155892515Y-110727000D01*
X155909834Y-110701653D01*
X155927908Y-110612400D01*
X155927908Y-110180600D01*
X155912219Y-110097220D01*
X155896724Y-110073140D01*
X155909834Y-110053953D01*
X155927908Y-109964700D01*
X155927908Y-109532900D01*
X155912219Y-109449520D01*
X155896724Y-109425440D01*
X155909834Y-109406253D01*
X155927908Y-109317000D01*
X155927908Y-108885200D01*
X155912219Y-108801820D01*
X155862941Y-108725240D01*
X155787753Y-108673866D01*
X155698500Y-108655792D01*
X154301500Y-108655792D01*
X154218120Y-108671481D01*
X154141540Y-108720759D01*
X154090166Y-108795947D01*
X154072092Y-108885200D01*
X154072092Y-109317000D01*
X154087781Y-109400380D01*
X154103276Y-109424460D01*
X154090166Y-109443647D01*
X154089123Y-109448800D01*
X151251200Y-109448800D01*
X151136395Y-109471636D01*
X151039068Y-109536668D01*
X149274955Y-111300781D01*
X149275091Y-111146029D01*
X149195333Y-110953000D01*
X149047777Y-110805186D01*
X148854887Y-110725092D01*
X148646029Y-110724909D01*
X148453000Y-110804667D01*
X148305186Y-110952223D01*
X148225092Y-111145113D01*
X148224909Y-111353971D01*
X148228919Y-111363676D01*
X148197836Y-111410195D01*
X148175000Y-111525000D01*
X148175000Y-112785780D01*
X148100000Y-112770592D01*
X147850000Y-112770592D01*
X147766620Y-112786281D01*
X147724979Y-112813076D01*
X147689253Y-112788666D01*
X147639308Y-112778552D01*
X147594244Y-112669757D01*
X147430243Y-112505756D01*
X147215966Y-112417000D01*
X147183250Y-112417000D01*
X147037500Y-112562750D01*
X147037500Y-113346000D01*
X147100000Y-113346000D01*
X147100000Y-113704000D01*
X147037500Y-113704000D01*
X147037500Y-113724000D01*
X146912500Y-113724000D01*
X146912500Y-113704000D01*
X146412750Y-113704000D01*
X146267000Y-113849750D01*
X146267000Y-114145592D01*
X145475000Y-114145592D01*
X145451573Y-114150000D01*
X145369975Y-114150000D01*
X145252962Y-114032988D01*
X145252962Y-113885779D01*
X145873401Y-113265340D01*
X145921266Y-113195288D01*
X145940571Y-113106293D01*
X145923732Y-113016799D01*
X145873401Y-112940908D01*
X145816527Y-112884034D01*
X146267000Y-112884034D01*
X146267000Y-113200250D01*
X146412750Y-113346000D01*
X146912500Y-113346000D01*
X146912500Y-112562750D01*
X146766750Y-112417000D01*
X146734034Y-112417000D01*
X146519757Y-112505756D01*
X146355756Y-112669757D01*
X146267000Y-112884034D01*
X145816527Y-112884034D01*
X144885573Y-111953080D01*
X144815521Y-111905215D01*
X144726526Y-111885910D01*
X144637032Y-111902749D01*
X144561141Y-111953080D01*
X143932523Y-112581698D01*
X143884658Y-112651750D01*
X143865353Y-112740745D01*
X143882192Y-112830239D01*
X143932523Y-112906130D01*
X144265710Y-113239317D01*
X144030000Y-113475026D01*
X143896029Y-113474909D01*
X143774549Y-113525104D01*
X143774549Y-113311194D01*
X143794139Y-113212708D01*
X143794139Y-111944591D01*
X147688730Y-108050000D01*
X152150000Y-108050000D01*
X152264805Y-108027164D01*
X152362132Y-107962132D01*
X153294856Y-107029408D01*
X153400000Y-107029408D01*
X153483380Y-107013719D01*
X153559960Y-106964441D01*
X153574628Y-106942973D01*
X153585559Y-106959960D01*
X153660747Y-107011334D01*
X153750000Y-107029408D01*
X154050000Y-107029408D01*
X154133380Y-107013719D01*
X154209960Y-106964441D01*
X154224628Y-106942973D01*
X154235559Y-106959960D01*
X154310747Y-107011334D01*
X154400000Y-107029408D01*
X154700000Y-107029408D01*
X154783380Y-107013719D01*
X154859960Y-106964441D01*
X154874628Y-106942973D01*
X154885559Y-106959960D01*
X154960747Y-107011334D01*
X155050000Y-107029408D01*
X155350000Y-107029408D01*
X155433380Y-107013719D01*
X155509960Y-106964441D01*
X155524628Y-106942973D01*
X155535559Y-106959960D01*
X155610747Y-107011334D01*
X155700000Y-107029408D01*
X156000000Y-107029408D01*
X156083380Y-107013719D01*
X156159960Y-106964441D01*
X156211334Y-106889253D01*
X156229408Y-106800000D01*
X156229408Y-105200000D01*
X156213719Y-105116620D01*
X156164441Y-105040040D01*
X156089253Y-104988666D01*
X156000000Y-104970592D01*
X155700000Y-104970592D01*
X155616620Y-104986281D01*
X155550000Y-105029150D01*
X155550000Y-104944974D01*
X155799974Y-104695000D01*
X157072092Y-104695000D01*
X157072092Y-104789500D01*
X157087781Y-104872880D01*
X157137059Y-104949460D01*
X157212247Y-105000834D01*
X157301500Y-105018908D01*
X158698500Y-105018908D01*
X158781880Y-105003219D01*
X158858460Y-104953941D01*
X158909834Y-104878753D01*
X158927908Y-104789500D01*
X158927908Y-103900500D01*
X158912219Y-103817120D01*
X158862941Y-103740540D01*
X158787753Y-103689166D01*
X158698500Y-103671092D01*
X158350000Y-103671092D01*
X158350000Y-103642426D01*
X158444814Y-103547777D01*
X158524908Y-103354887D01*
X158525091Y-103146029D01*
X158445333Y-102953000D01*
X158297777Y-102805186D01*
X158104887Y-102725092D01*
X157896029Y-102724909D01*
X157703000Y-102804667D01*
X157555186Y-102952223D01*
X157475092Y-103145113D01*
X157474909Y-103353971D01*
X157554667Y-103547000D01*
X157650000Y-103642500D01*
X157650000Y-103671092D01*
X157301500Y-103671092D01*
X157218120Y-103686781D01*
X157141540Y-103736059D01*
X157090166Y-103811247D01*
X157072092Y-103900500D01*
X157072092Y-103995000D01*
X155655000Y-103995000D01*
X155543282Y-104017222D01*
X155521060Y-104021642D01*
X155407513Y-104097513D01*
X154952513Y-104552513D01*
X154876642Y-104666061D01*
X154850000Y-104800000D01*
X154850000Y-105030173D01*
X154789253Y-104988666D01*
X154700000Y-104970592D01*
X154400000Y-104970592D01*
X154316620Y-104986281D01*
X154240040Y-105035559D01*
X154225372Y-105057027D01*
X154214441Y-105040040D01*
X154139253Y-104988666D01*
X154050000Y-104970592D01*
X153750000Y-104970592D01*
X153666620Y-104986281D01*
X153590040Y-105035559D01*
X153575372Y-105057027D01*
X153564441Y-105040040D01*
X153489253Y-104988666D01*
X153400000Y-104970592D01*
X153100000Y-104970592D01*
X153016620Y-104986281D01*
X152940040Y-105035559D01*
X152925372Y-105057027D01*
X152914441Y-105040040D01*
X152839253Y-104988666D01*
X152750000Y-104970592D01*
X152450000Y-104970592D01*
X152366620Y-104986281D01*
X152290040Y-105035559D01*
X152275372Y-105057027D01*
X152264441Y-105040040D01*
X152189253Y-104988666D01*
X152100000Y-104970592D01*
X151800000Y-104970592D01*
X151716620Y-104986281D01*
X151640040Y-105035559D01*
X151625372Y-105057027D01*
X151614441Y-105040040D01*
X151539253Y-104988666D01*
X151450000Y-104970592D01*
X151150000Y-104970592D01*
X151066620Y-104986281D01*
X150990040Y-105035559D01*
X150975372Y-105057027D01*
X150964441Y-105040040D01*
X150889253Y-104988666D01*
X150800000Y-104970592D01*
X150500000Y-104970592D01*
X150416620Y-104986281D01*
X150340040Y-105035559D01*
X150325372Y-105057027D01*
X150314441Y-105040040D01*
X150239253Y-104988666D01*
X150150000Y-104970592D01*
X149850000Y-104970592D01*
X149766620Y-104986281D01*
X149690040Y-105035559D01*
X149638666Y-105110747D01*
X149620592Y-105200000D01*
X149620592Y-105700000D01*
X148439619Y-105700000D01*
X148416884Y-105704522D01*
X149321406Y-104800000D01*
X150450000Y-104800000D01*
X150564805Y-104777164D01*
X150662132Y-104712132D01*
X153944856Y-101429408D01*
X154050000Y-101429408D01*
X154084554Y-101422906D01*
X154055186Y-101452223D01*
X153975092Y-101645113D01*
X153974909Y-101853971D01*
X154054667Y-102047000D01*
X154202223Y-102194814D01*
X154395113Y-102274908D01*
X154603971Y-102275091D01*
X154797000Y-102195333D01*
X154944814Y-102047777D01*
X155024908Y-101854887D01*
X155025091Y-101646029D01*
X154945333Y-101453000D01*
X154858114Y-101365629D01*
X154859960Y-101364441D01*
X154874628Y-101342973D01*
X154885559Y-101359960D01*
X154960747Y-101411334D01*
X155050000Y-101429408D01*
X155350000Y-101429408D01*
X155433380Y-101413719D01*
X155509960Y-101364441D01*
X155524628Y-101342973D01*
X155535559Y-101359960D01*
X155610747Y-101411334D01*
X155700000Y-101429408D01*
X156000000Y-101429408D01*
X156083380Y-101413719D01*
X156159960Y-101364441D01*
X156211334Y-101289253D01*
X156229408Y-101200000D01*
X156229408Y-99600000D01*
X156213719Y-99516620D01*
X156164441Y-99440040D01*
X156089253Y-99388666D01*
X156000000Y-99370592D01*
X155700000Y-99370592D01*
X155616620Y-99386281D01*
X155540040Y-99435559D01*
X155525372Y-99457027D01*
X155514441Y-99440040D01*
X155439253Y-99388666D01*
X155350000Y-99370592D01*
X155050000Y-99370592D01*
X154966620Y-99386281D01*
X154890040Y-99435559D01*
X154875372Y-99457027D01*
X154864441Y-99440040D01*
X154789253Y-99388666D01*
X154700000Y-99370592D01*
X154400000Y-99370592D01*
X154316620Y-99386281D01*
X154240040Y-99435559D01*
X154225372Y-99457027D01*
X154214441Y-99440040D01*
X154139253Y-99388666D01*
X154050000Y-99370592D01*
X153750000Y-99370592D01*
X153666620Y-99386281D01*
X153600000Y-99429150D01*
X153600000Y-99177908D01*
X154194500Y-99177908D01*
X154277880Y-99162219D01*
X154354460Y-99112941D01*
X154405834Y-99037753D01*
X154423908Y-98948500D01*
X154423908Y-97551500D01*
X154408219Y-97468120D01*
X154358941Y-97391540D01*
X154283753Y-97340166D01*
X154194500Y-97322092D01*
X154170456Y-97322092D01*
X154194814Y-97297777D01*
X154274908Y-97104887D01*
X154275091Y-96896029D01*
X154195333Y-96703000D01*
X154047777Y-96555186D01*
X153854887Y-96475092D01*
X153646029Y-96474909D01*
X153453000Y-96554667D01*
X153305186Y-96702223D01*
X153225092Y-96895113D01*
X153224909Y-97103971D01*
X153304667Y-97297000D01*
X153329715Y-97322092D01*
X153305500Y-97322092D01*
X153222120Y-97337781D01*
X153145540Y-97387059D01*
X153094166Y-97462247D01*
X153076092Y-97551500D01*
X153076092Y-98428934D01*
X153002513Y-98502513D01*
X152926642Y-98616061D01*
X152900000Y-98750000D01*
X152900000Y-99200000D01*
X152877164Y-99085195D01*
X152812132Y-98987868D01*
X152740000Y-98915736D01*
X152740000Y-97706656D01*
X152717164Y-97591851D01*
X152652132Y-97494524D01*
X151530476Y-96372868D01*
X151433149Y-96307836D01*
X151318344Y-96285000D01*
X148075000Y-96285000D01*
X148075000Y-96000000D01*
X148069871Y-95972741D01*
X148053761Y-95947705D01*
X148029179Y-95930909D01*
X148000000Y-95925000D01*
X145075000Y-95925000D01*
X145075000Y-95670500D01*
X159449092Y-95670500D01*
X159449092Y-96305500D01*
X159464781Y-96388880D01*
X159514059Y-96465460D01*
X159589247Y-96516834D01*
X159678500Y-96534908D01*
X160821500Y-96534908D01*
X160904880Y-96519219D01*
X160981460Y-96469941D01*
X161032834Y-96394753D01*
X161050908Y-96305500D01*
X161050908Y-95670500D01*
X161035219Y-95587120D01*
X160985941Y-95510540D01*
X160910753Y-95459166D01*
X160821500Y-95441092D01*
X160700000Y-95441092D01*
X160700000Y-95250000D01*
X171525000Y-95250000D01*
X171525000Y-98000000D01*
X171541537Y-98084666D01*
X171590901Y-98159099D01*
X172025000Y-98593198D01*
X172025000Y-101000000D01*
X172040388Y-101081778D01*
X172088718Y-101156886D01*
X172162462Y-101207273D01*
X172250000Y-101225000D01*
X173250000Y-101225000D01*
X173331778Y-101209612D01*
X173406886Y-101161282D01*
X173457273Y-101087538D01*
X173475000Y-101000000D01*
X173475000Y-95250000D01*
X173458463Y-95165334D01*
X173409099Y-95090901D01*
X173159099Y-94840901D01*
X173087538Y-94792727D01*
X173000000Y-94775000D01*
X172000000Y-94775000D01*
X171915334Y-94791537D01*
X171840901Y-94840901D01*
X171590901Y-95090901D01*
X171542727Y-95162462D01*
X171525000Y-95250000D01*
X160700000Y-95250000D01*
X160700000Y-94979408D01*
X160900000Y-94979408D01*
X160983380Y-94963719D01*
X161059960Y-94914441D01*
X161111334Y-94839253D01*
X161129408Y-94750000D01*
X161129408Y-94150000D01*
X161113719Y-94066620D01*
X161064441Y-93990040D01*
X160989253Y-93938666D01*
X160900000Y-93920592D01*
X159800000Y-93920592D01*
X159716620Y-93936281D01*
X159640040Y-93985559D01*
X159588666Y-94060747D01*
X159570592Y-94150000D01*
X159570592Y-94750000D01*
X159586281Y-94833380D01*
X159635559Y-94909960D01*
X159710747Y-94961334D01*
X159800000Y-94979408D01*
X160000000Y-94979408D01*
X160000000Y-95441092D01*
X159678500Y-95441092D01*
X159595120Y-95456781D01*
X159518540Y-95506059D01*
X159467166Y-95581247D01*
X159449092Y-95670500D01*
X145075000Y-95670500D01*
X145075000Y-95080625D01*
X145084981Y-95133670D01*
X145134259Y-95210250D01*
X145209447Y-95261624D01*
X145298700Y-95279698D01*
X147599940Y-95279698D01*
X147683320Y-95264009D01*
X147759900Y-95214731D01*
X147811274Y-95139543D01*
X147829348Y-95050290D01*
X147829348Y-94549910D01*
X147813659Y-94466530D01*
X147770387Y-94399283D01*
X147811274Y-94339443D01*
X147829348Y-94250190D01*
X147829348Y-93749810D01*
X147813659Y-93666430D01*
X147770387Y-93599183D01*
X147811274Y-93539343D01*
X147829348Y-93450090D01*
X147829348Y-92975000D01*
X148156802Y-92975000D01*
X149090901Y-93909099D01*
X149162462Y-93957273D01*
X149250000Y-93975000D01*
X150750000Y-93975000D01*
X150834666Y-93958463D01*
X150909099Y-93909099D01*
X151659099Y-93159099D01*
X151707273Y-93087538D01*
X151725000Y-93000000D01*
X151725000Y-92000000D01*
X151775000Y-92000000D01*
X151775000Y-93000000D01*
X151791537Y-93084666D01*
X151840901Y-93159099D01*
X152090901Y-93409099D01*
X152162462Y-93457273D01*
X152250000Y-93475000D01*
X155000000Y-93475000D01*
X155084666Y-93458463D01*
X155159099Y-93409099D01*
X155343198Y-93225000D01*
X158250000Y-93225000D01*
X158331778Y-93209612D01*
X158400000Y-93165713D01*
X158400000Y-94005026D01*
X158384231Y-94020795D01*
X158364441Y-93990040D01*
X158289253Y-93938666D01*
X158200000Y-93920592D01*
X157100000Y-93920592D01*
X157016620Y-93936281D01*
X156940040Y-93985559D01*
X156888666Y-94060747D01*
X156870592Y-94150000D01*
X156870592Y-94750000D01*
X156886281Y-94833380D01*
X156935559Y-94909960D01*
X157010747Y-94961334D01*
X157100000Y-94979408D01*
X158200000Y-94979408D01*
X158283380Y-94963719D01*
X158359960Y-94914441D01*
X158411334Y-94839253D01*
X158419283Y-94800000D01*
X158450000Y-94800000D01*
X158583939Y-94773358D01*
X158697487Y-94697487D01*
X158997487Y-94397487D01*
X159073358Y-94283940D01*
X159087641Y-94212132D01*
X159100000Y-94150000D01*
X159100000Y-92850000D01*
X159073358Y-92716061D01*
X159073358Y-92716060D01*
X158997487Y-92602513D01*
X158697487Y-92302513D01*
X158583939Y-92226642D01*
X158475000Y-92204973D01*
X158475000Y-92000000D01*
X158459612Y-91918222D01*
X158411282Y-91843114D01*
X158337538Y-91792727D01*
X158250000Y-91775000D01*
X155343198Y-91775000D01*
X155159099Y-91590901D01*
X155087538Y-91542727D01*
X155000000Y-91525000D01*
X152250000Y-91525000D01*
X152165334Y-91541537D01*
X152090901Y-91590901D01*
X151840901Y-91840901D01*
X151792727Y-91912462D01*
X151775000Y-92000000D01*
X151725000Y-92000000D01*
X151708463Y-91915334D01*
X151659099Y-91840901D01*
X151409099Y-91590901D01*
X151337538Y-91542727D01*
X151250000Y-91525000D01*
X148750000Y-91525000D01*
X148665334Y-91541537D01*
X148590901Y-91590901D01*
X148406802Y-91775000D01*
X148069937Y-91775000D01*
X148075000Y-91750000D01*
X148075000Y-91250000D01*
X159275000Y-91250000D01*
X159275000Y-92750000D01*
X159291537Y-92834666D01*
X159340901Y-92909099D01*
X159590901Y-93159099D01*
X159662462Y-93207273D01*
X159750000Y-93225000D01*
X161156802Y-93225000D01*
X161340901Y-93409099D01*
X161412462Y-93457273D01*
X161500000Y-93475000D01*
X163000000Y-93475000D01*
X163084666Y-93458463D01*
X163159099Y-93409099D01*
X163409099Y-93159099D01*
X163457273Y-93087538D01*
X163475000Y-93000000D01*
X163475000Y-91250000D01*
X163459612Y-91168222D01*
X163411282Y-91093114D01*
X163337538Y-91042727D01*
X163250000Y-91025000D01*
X159500000Y-91025000D01*
X159418222Y-91040388D01*
X159343114Y-91088718D01*
X159292727Y-91162462D01*
X159275000Y-91250000D01*
X148075000Y-91250000D01*
X148075000Y-89750000D01*
X171525000Y-89750000D01*
X171525000Y-94250000D01*
X171541537Y-94334666D01*
X171590901Y-94409099D01*
X171840901Y-94659099D01*
X171912462Y-94707273D01*
X172000000Y-94725000D01*
X173250000Y-94725000D01*
X173334666Y-94708463D01*
X173409099Y-94659099D01*
X173659099Y-94409099D01*
X173707273Y-94337538D01*
X173725000Y-94250000D01*
X173725000Y-93500000D01*
X173708463Y-93415334D01*
X173659099Y-93340901D01*
X173475000Y-93156802D01*
X173475000Y-89750000D01*
X173459612Y-89668222D01*
X173411282Y-89593114D01*
X173337538Y-89542727D01*
X173250000Y-89525000D01*
X171750000Y-89525000D01*
X171668222Y-89540388D01*
X171593114Y-89588718D01*
X171542727Y-89662462D01*
X171525000Y-89750000D01*
X148075000Y-89750000D01*
X148075000Y-88250000D01*
X148069871Y-88222741D01*
X148053761Y-88197705D01*
X148029179Y-88180909D01*
X148000000Y-88175000D01*
X144510735Y-88175000D01*
X144849715Y-87836611D01*
X145074743Y-87294683D01*
X145074745Y-87292108D01*
X168124744Y-87292108D01*
X168348827Y-87834429D01*
X168763389Y-88249715D01*
X169305317Y-88474743D01*
X169892108Y-88475256D01*
X170434429Y-88251173D01*
X170849715Y-87836611D01*
X171074743Y-87294683D01*
X171075256Y-86707892D01*
X170851173Y-86165571D01*
X170436611Y-85750285D01*
X169894683Y-85525257D01*
X169307892Y-85524744D01*
X168765571Y-85748827D01*
X168350285Y-86163389D01*
X168125257Y-86705317D01*
X168124744Y-87292108D01*
X145074745Y-87292108D01*
X145075256Y-86707892D01*
X144851173Y-86165571D01*
X144436611Y-85750285D01*
X143894683Y-85525257D01*
X143307892Y-85524744D01*
X142765571Y-85748827D01*
X142350285Y-86163389D01*
X142125257Y-86705317D01*
X142124744Y-87292108D01*
X142348827Y-87834429D01*
X142688804Y-88175000D01*
X139300000Y-88175000D01*
X139300000Y-85300000D01*
X172242047Y-85300000D01*
X173675000Y-87027062D01*
X173675000Y-87027062D01*
G37*
X173675000Y-87027062D02*
X173675000Y-89750000D01*
X173680909Y-89779179D01*
X173696967Y-89803033D01*
X175175000Y-91281066D01*
X175175000Y-93968934D01*
X174196967Y-94946967D01*
X174180512Y-94971778D01*
X174175000Y-95000000D01*
X174175000Y-100630025D01*
X173405026Y-101400000D01*
X171594974Y-101400000D01*
X171597487Y-101397487D01*
X171673358Y-101283940D01*
X171683054Y-101235195D01*
X171700000Y-101150000D01*
X171700000Y-101070000D01*
X171733380Y-101063719D01*
X171809960Y-101014441D01*
X171861334Y-100939253D01*
X171879408Y-100850000D01*
X171879408Y-98650000D01*
X171863719Y-98566620D01*
X171814441Y-98490040D01*
X171739253Y-98438666D01*
X171650000Y-98420592D01*
X171050000Y-98420592D01*
X170966620Y-98436281D01*
X170890040Y-98485559D01*
X170838666Y-98560747D01*
X170820592Y-98650000D01*
X170820592Y-100850000D01*
X170836281Y-100933380D01*
X170885559Y-101009960D01*
X170950615Y-101054411D01*
X170605026Y-101400000D01*
X165794975Y-101400000D01*
X165429205Y-101034231D01*
X165459960Y-101014441D01*
X165511334Y-100939253D01*
X165529408Y-100850000D01*
X165529408Y-98650000D01*
X165740592Y-98650000D01*
X165740592Y-100850000D01*
X165756281Y-100933380D01*
X165805559Y-101009960D01*
X165880747Y-101061334D01*
X165970000Y-101079408D01*
X166570000Y-101079408D01*
X166653380Y-101063719D01*
X166729960Y-101014441D01*
X166781334Y-100939253D01*
X166799408Y-100850000D01*
X166799408Y-98650000D01*
X169550592Y-98650000D01*
X169550592Y-100850000D01*
X169566281Y-100933380D01*
X169615559Y-101009960D01*
X169690747Y-101061334D01*
X169780000Y-101079408D01*
X170380000Y-101079408D01*
X170463380Y-101063719D01*
X170539960Y-101014441D01*
X170591334Y-100939253D01*
X170609408Y-100850000D01*
X170609408Y-98650000D01*
X170593719Y-98566620D01*
X170544441Y-98490040D01*
X170469253Y-98438666D01*
X170380000Y-98420592D01*
X169780000Y-98420592D01*
X169696620Y-98436281D01*
X169620040Y-98485559D01*
X169568666Y-98560747D01*
X169550592Y-98650000D01*
X166799408Y-98650000D01*
X166783719Y-98566620D01*
X166734441Y-98490040D01*
X166659253Y-98438666D01*
X166570000Y-98420592D01*
X165970000Y-98420592D01*
X165886620Y-98436281D01*
X165810040Y-98485559D01*
X165758666Y-98560747D01*
X165740592Y-98650000D01*
X165529408Y-98650000D01*
X165513719Y-98566620D01*
X165464441Y-98490040D01*
X165389253Y-98438666D01*
X165300000Y-98420592D01*
X164700000Y-98420592D01*
X164616620Y-98436281D01*
X164540040Y-98485559D01*
X164488666Y-98560747D01*
X164475000Y-98628232D01*
X164475000Y-98250000D01*
X164459612Y-98168222D01*
X164411282Y-98093114D01*
X164337538Y-98042727D01*
X164250000Y-98025000D01*
X162250000Y-98025000D01*
X162168222Y-98040388D01*
X162093114Y-98088718D01*
X162042727Y-98162462D01*
X162025000Y-98250000D01*
X162025000Y-100656802D01*
X161840901Y-100840901D01*
X161792727Y-100912462D01*
X161775000Y-101000000D01*
X161775000Y-102250000D01*
X161791537Y-102334666D01*
X161840901Y-102409099D01*
X161845414Y-102413612D01*
X159082342Y-105176684D01*
X159006471Y-105290232D01*
X158979829Y-105424171D01*
X158979829Y-106525196D01*
X157752513Y-107752513D01*
X157676642Y-107866061D01*
X157650000Y-108000000D01*
X157650000Y-109250000D01*
X157669610Y-109348587D01*
X157676642Y-109383939D01*
X157752513Y-109497487D01*
X158251313Y-109996288D01*
X158364861Y-110072158D01*
X158498800Y-110098800D01*
X159676657Y-110098800D01*
X159660092Y-110180600D01*
X159660092Y-110612400D01*
X159675781Y-110695780D01*
X159725059Y-110772360D01*
X159800247Y-110823734D01*
X159889500Y-110841808D01*
X161286500Y-110841808D01*
X161369880Y-110826119D01*
X161446460Y-110776841D01*
X161467191Y-110746500D01*
X163025000Y-110746500D01*
X163025000Y-111500000D01*
X163040388Y-111581778D01*
X163063737Y-111618065D01*
X162713388Y-111968414D01*
X162189387Y-111444413D01*
X162075839Y-111368542D01*
X162063361Y-111366060D01*
X161941900Y-111341900D01*
X161467581Y-111341900D01*
X161450941Y-111316040D01*
X161375753Y-111264666D01*
X161286500Y-111246592D01*
X159889500Y-111246592D01*
X159806120Y-111262281D01*
X159729540Y-111311559D01*
X159678166Y-111386747D01*
X159660092Y-111476000D01*
X159660092Y-111907800D01*
X159675781Y-111991180D01*
X159682937Y-112002300D01*
X159639500Y-112002300D01*
X159505561Y-112028942D01*
X159392013Y-112104813D01*
X159222014Y-112274812D01*
X159146143Y-112388360D01*
X159119501Y-112522299D01*
X159119501Y-116215501D01*
X159144425Y-116340805D01*
X159146143Y-116349440D01*
X159222014Y-116462988D01*
X161525000Y-118765975D01*
X161525000Y-120656802D01*
X161090901Y-121090901D01*
X161042727Y-121162462D01*
X161025000Y-121250000D01*
X161025000Y-122250000D01*
X161041537Y-122334666D01*
X161090901Y-122409099D01*
X161340901Y-122659099D01*
X161412462Y-122707273D01*
X161500000Y-122725000D01*
X162656802Y-122725000D01*
X163090901Y-123159099D01*
X163162462Y-123207273D01*
X163250000Y-123225000D01*
X164000000Y-123225000D01*
X164084666Y-123208463D01*
X164159099Y-123159099D01*
X164409099Y-122909099D01*
X164457273Y-122837538D01*
X164470592Y-122771767D01*
X164470592Y-122850000D01*
X164486281Y-122933380D01*
X164535559Y-123009960D01*
X164610747Y-123061334D01*
X164700000Y-123079408D01*
X165300000Y-123079408D01*
X165383380Y-123063719D01*
X165459960Y-123014441D01*
X165511334Y-122939253D01*
X165529408Y-122850000D01*
X165529408Y-120650000D01*
X165740592Y-120650000D01*
X165740592Y-122850000D01*
X165756281Y-122933380D01*
X165805559Y-123009960D01*
X165880747Y-123061334D01*
X165970000Y-123079408D01*
X166570000Y-123079408D01*
X166653380Y-123063719D01*
X166729960Y-123014441D01*
X166781334Y-122939253D01*
X166799408Y-122850000D01*
X166799408Y-120650000D01*
X169550592Y-120650000D01*
X169550592Y-122850000D01*
X169566281Y-122933380D01*
X169615559Y-123009960D01*
X169690747Y-123061334D01*
X169780000Y-123079408D01*
X170380000Y-123079408D01*
X170463380Y-123063719D01*
X170539960Y-123014441D01*
X170591334Y-122939253D01*
X170609408Y-122850000D01*
X170609408Y-120650000D01*
X170820592Y-120650000D01*
X170820592Y-122850000D01*
X170836281Y-122933380D01*
X170885559Y-123009960D01*
X170960747Y-123061334D01*
X171050000Y-123079408D01*
X171650000Y-123079408D01*
X171733380Y-123063719D01*
X171809960Y-123014441D01*
X171861334Y-122939253D01*
X171879408Y-122850000D01*
X171879408Y-120650000D01*
X171863719Y-120566620D01*
X171814441Y-120490040D01*
X171739253Y-120438666D01*
X171650000Y-120420592D01*
X171050000Y-120420592D01*
X170966620Y-120436281D01*
X170890040Y-120485559D01*
X170838666Y-120560747D01*
X170820592Y-120650000D01*
X170609408Y-120650000D01*
X170593719Y-120566620D01*
X170544441Y-120490040D01*
X170469253Y-120438666D01*
X170380000Y-120420592D01*
X169780000Y-120420592D01*
X169696620Y-120436281D01*
X169620040Y-120485559D01*
X169568666Y-120560747D01*
X169550592Y-120650000D01*
X166799408Y-120650000D01*
X166783719Y-120566620D01*
X166734441Y-120490040D01*
X166659253Y-120438666D01*
X166570000Y-120420592D01*
X165970000Y-120420592D01*
X165886620Y-120436281D01*
X165810040Y-120485559D01*
X165758666Y-120560747D01*
X165740592Y-120650000D01*
X165529408Y-120650000D01*
X165513719Y-120566620D01*
X165464441Y-120490040D01*
X165389253Y-120438666D01*
X165350000Y-120430717D01*
X165350000Y-120394974D01*
X165894974Y-119850000D01*
X171855026Y-119850000D01*
X172270000Y-120264975D01*
X172270000Y-120430000D01*
X172236620Y-120436281D01*
X172160040Y-120485559D01*
X172108666Y-120560747D01*
X172090592Y-120650000D01*
X172090592Y-122850000D01*
X172106281Y-122933380D01*
X172155559Y-123009960D01*
X172230747Y-123061334D01*
X172320000Y-123079408D01*
X172920000Y-123079408D01*
X173003380Y-123063719D01*
X173079960Y-123014441D01*
X173131334Y-122939253D01*
X173149408Y-122850000D01*
X173149408Y-120650000D01*
X173133719Y-120566620D01*
X173084441Y-120490040D01*
X173009253Y-120438666D01*
X172970000Y-120430717D01*
X172970000Y-120120000D01*
X172947778Y-120008282D01*
X172943358Y-119986060D01*
X172867487Y-119872512D01*
X172844975Y-119850000D01*
X174175000Y-119850000D01*
X174175000Y-124700000D01*
X139300000Y-124700000D01*
X139300000Y-113408500D01*
X139449092Y-113408500D01*
X139449092Y-114043500D01*
X139464781Y-114126880D01*
X139514059Y-114203460D01*
X139589247Y-114254834D01*
X139678500Y-114272908D01*
X140775835Y-114272908D01*
X140725092Y-114395113D01*
X140724909Y-114603971D01*
X140765865Y-114703092D01*
X139678500Y-114703092D01*
X139595120Y-114718781D01*
X139518540Y-114768059D01*
X139467166Y-114843247D01*
X139449092Y-114932500D01*
X139449092Y-115567500D01*
X139464781Y-115650880D01*
X139514059Y-115727460D01*
X139589247Y-115778834D01*
X139634746Y-115788048D01*
X139621812Y-115851920D01*
X139621812Y-116649480D01*
X139637501Y-116732860D01*
X139686779Y-116809440D01*
X139761967Y-116860814D01*
X139851220Y-116878888D01*
X140648780Y-116878888D01*
X140732160Y-116863199D01*
X140808740Y-116813921D01*
X140860114Y-116738733D01*
X140878188Y-116649480D01*
X140878188Y-115851920D01*
X140866252Y-115788487D01*
X140904880Y-115781219D01*
X140981460Y-115731941D01*
X141032834Y-115656753D01*
X141050908Y-115567500D01*
X141050908Y-114985791D01*
X141145113Y-115024908D01*
X141199092Y-115024955D01*
X141199092Y-115567500D01*
X141214781Y-115650880D01*
X141264059Y-115727460D01*
X141339247Y-115778834D01*
X141384746Y-115788048D01*
X141371812Y-115851920D01*
X141371812Y-116649480D01*
X141387501Y-116732860D01*
X141436779Y-116809440D01*
X141511967Y-116860814D01*
X141601220Y-116878888D01*
X142398780Y-116878888D01*
X142482160Y-116863199D01*
X142558740Y-116813921D01*
X142610114Y-116738733D01*
X142628188Y-116649480D01*
X142628188Y-115851920D01*
X142616252Y-115788487D01*
X142654880Y-115781219D01*
X142731460Y-115731941D01*
X142782834Y-115656753D01*
X142800908Y-115567500D01*
X142800908Y-114932500D01*
X142785219Y-114849120D01*
X142735941Y-114772540D01*
X142660753Y-114721166D01*
X142571500Y-114703092D01*
X141734130Y-114703092D01*
X141774908Y-114604887D01*
X141775088Y-114399176D01*
X141901356Y-114272908D01*
X142571500Y-114272908D01*
X142654880Y-114257219D01*
X142731460Y-114207941D01*
X142782834Y-114132753D01*
X142800908Y-114043500D01*
X142800908Y-113408500D01*
X142785219Y-113325120D01*
X142735941Y-113248540D01*
X142660753Y-113197166D01*
X142571500Y-113179092D01*
X141428500Y-113179092D01*
X141345120Y-113194781D01*
X141268540Y-113244059D01*
X141217166Y-113319247D01*
X141199092Y-113408500D01*
X141199092Y-113974955D01*
X141146029Y-113974909D01*
X141050908Y-114014212D01*
X141050908Y-113408500D01*
X141035219Y-113325120D01*
X140985941Y-113248540D01*
X140910753Y-113197166D01*
X140821500Y-113179092D01*
X140813269Y-113179092D01*
X140944814Y-113047777D01*
X141024908Y-112854887D01*
X141025091Y-112646029D01*
X140945333Y-112453000D01*
X140797777Y-112305186D01*
X140604887Y-112225092D01*
X140396029Y-112224909D01*
X140203000Y-112304667D01*
X140055186Y-112452223D01*
X139975092Y-112645113D01*
X139974909Y-112853971D01*
X140054667Y-113047000D01*
X140186528Y-113179092D01*
X139678500Y-113179092D01*
X139595120Y-113194781D01*
X139518540Y-113244059D01*
X139467166Y-113319247D01*
X139449092Y-113408500D01*
X139300000Y-113408500D01*
X139300000Y-99825000D01*
X148000000Y-99825000D01*
X148027259Y-99819871D01*
X148052295Y-99803761D01*
X148069091Y-99779179D01*
X148075000Y-99750000D01*
X148075000Y-97215000D01*
X151057392Y-97215000D01*
X151810000Y-97967608D01*
X151810000Y-98915736D01*
X151737868Y-98987868D01*
X151672836Y-99085195D01*
X151650000Y-99200000D01*
X151650000Y-99429150D01*
X151640040Y-99435559D01*
X151588666Y-99510747D01*
X151570592Y-99600000D01*
X151570592Y-101200000D01*
X151586281Y-101283380D01*
X151635559Y-101359960D01*
X151710747Y-101411334D01*
X151800000Y-101429408D01*
X152100000Y-101429408D01*
X152183380Y-101413719D01*
X152259960Y-101364441D01*
X152274628Y-101342973D01*
X152285559Y-101359960D01*
X152360747Y-101411334D01*
X152450000Y-101429408D01*
X152750000Y-101429408D01*
X152833380Y-101413719D01*
X152909960Y-101364441D01*
X152924628Y-101342973D01*
X152935559Y-101359960D01*
X153010747Y-101411334D01*
X153096946Y-101428790D01*
X150325736Y-104200000D01*
X149197142Y-104200000D01*
X149082337Y-104222836D01*
X148985010Y-104287868D01*
X148668370Y-104604508D01*
X148679408Y-104550000D01*
X148679408Y-104134205D01*
X148714805Y-104127164D01*
X148812132Y-104062132D01*
X150862132Y-102012132D01*
X150927164Y-101914805D01*
X150950000Y-101800000D01*
X150950000Y-101370850D01*
X150959960Y-101364441D01*
X151011334Y-101289253D01*
X151029408Y-101200000D01*
X151029408Y-99600000D01*
X151013719Y-99516620D01*
X150964441Y-99440040D01*
X150889253Y-99388666D01*
X150800000Y-99370592D01*
X150500000Y-99370592D01*
X150416620Y-99386281D01*
X150340040Y-99435559D01*
X150325372Y-99457027D01*
X150314441Y-99440040D01*
X150239253Y-99388666D01*
X150150000Y-99370592D01*
X149850000Y-99370592D01*
X149766620Y-99386281D01*
X149690040Y-99435559D01*
X149638666Y-99510747D01*
X149620592Y-99600000D01*
X149620592Y-101200000D01*
X149636281Y-101283380D01*
X149638660Y-101287076D01*
X148650735Y-102275001D01*
X147099265Y-102275001D01*
X146979408Y-102155144D01*
X146979408Y-100950000D01*
X146963719Y-100866620D01*
X146914441Y-100790040D01*
X146839253Y-100738666D01*
X146750000Y-100720592D01*
X145550000Y-100720592D01*
X145466620Y-100736281D01*
X145390040Y-100785559D01*
X145338666Y-100860747D01*
X145320592Y-100950000D01*
X145320592Y-101176821D01*
X145305219Y-101095120D01*
X145255941Y-101018540D01*
X145180753Y-100967166D01*
X145091500Y-100949092D01*
X144456500Y-100949092D01*
X144373120Y-100964781D01*
X144296540Y-101014059D01*
X144245166Y-101089247D01*
X144227092Y-101178500D01*
X144227092Y-102321500D01*
X144242781Y-102404880D01*
X144292059Y-102481460D01*
X144367247Y-102532834D01*
X144456500Y-102550908D01*
X145091500Y-102550908D01*
X145174880Y-102535219D01*
X145251460Y-102485941D01*
X145302834Y-102410753D01*
X145320592Y-102323060D01*
X145320592Y-102350000D01*
X145336281Y-102433380D01*
X145385559Y-102509960D01*
X145460747Y-102561334D01*
X145550000Y-102579408D01*
X146555144Y-102579408D01*
X146762869Y-102787133D01*
X146860196Y-102852165D01*
X146975001Y-102875001D01*
X148774999Y-102875001D01*
X148889804Y-102852165D01*
X148987131Y-102787133D01*
X150212132Y-101562132D01*
X150277164Y-101464805D01*
X150295244Y-101373911D01*
X150309960Y-101364441D01*
X150324628Y-101342973D01*
X150335559Y-101359960D01*
X150350000Y-101369827D01*
X150350000Y-101675736D01*
X148679408Y-103346328D01*
X148679408Y-103150000D01*
X148663719Y-103066620D01*
X148614441Y-102990040D01*
X148539253Y-102938666D01*
X148450000Y-102920592D01*
X147250000Y-102920592D01*
X147166620Y-102936281D01*
X147090040Y-102985559D01*
X147038666Y-103060747D01*
X147020592Y-103150000D01*
X147020592Y-104325144D01*
X146646644Y-104699092D01*
X146206500Y-104699092D01*
X146123120Y-104714781D01*
X146046540Y-104764059D01*
X145995166Y-104839247D01*
X145977092Y-104928500D01*
X145977092Y-106071500D01*
X145992781Y-106154880D01*
X146042059Y-106231460D01*
X146117247Y-106282834D01*
X146206500Y-106300908D01*
X146841500Y-106300908D01*
X146924880Y-106285219D01*
X147001460Y-106235941D01*
X147052834Y-106160753D01*
X147070908Y-106071500D01*
X147070908Y-105123356D01*
X147414856Y-104779408D01*
X148450000Y-104779408D01*
X148503545Y-104769333D01*
X144949219Y-108323659D01*
X144744600Y-108323480D01*
X144551571Y-108403238D01*
X144403757Y-108550794D01*
X144323663Y-108743684D01*
X144323480Y-108952542D01*
X144403238Y-109145571D01*
X144550794Y-109293385D01*
X144671747Y-109343608D01*
X142902779Y-111112576D01*
X142837747Y-111209903D01*
X142814911Y-111324708D01*
X142814911Y-115316194D01*
X142837747Y-115430999D01*
X142902779Y-115528326D01*
X144574453Y-117200000D01*
X144500000Y-117200000D01*
X144385195Y-117222836D01*
X144287868Y-117287868D01*
X144037868Y-117537868D01*
X143972836Y-117635195D01*
X143950000Y-117750000D01*
X143950000Y-118807662D01*
X143805186Y-118952223D01*
X143725092Y-119145113D01*
X143724909Y-119353971D01*
X143804667Y-119547000D01*
X143952223Y-119694814D01*
X144145113Y-119774908D01*
X144353971Y-119775091D01*
X144547000Y-119695333D01*
X144694814Y-119547777D01*
X144774908Y-119354887D01*
X144775091Y-119146029D01*
X144695333Y-118953000D01*
X144550000Y-118807413D01*
X144550000Y-117874264D01*
X144624264Y-117800000D01*
X144900250Y-117800000D01*
X145037750Y-117937500D01*
X145821000Y-117937500D01*
X145821000Y-117875000D01*
X146179000Y-117875000D01*
X146179000Y-117937500D01*
X146199000Y-117937500D01*
X146199000Y-118062500D01*
X146179000Y-118062500D01*
X146179000Y-118125000D01*
X145821000Y-118125000D01*
X145821000Y-118062500D01*
X145037750Y-118062500D01*
X144892000Y-118208250D01*
X144892000Y-118240966D01*
X144980756Y-118455243D01*
X145015269Y-118489756D01*
X145002513Y-118502513D01*
X144926642Y-118616061D01*
X144900000Y-118750000D01*
X144900000Y-119396500D01*
X144921978Y-119506990D01*
X144926642Y-119530439D01*
X144955147Y-119573099D01*
X144877120Y-119587781D01*
X144800540Y-119637059D01*
X144749166Y-119712247D01*
X144731092Y-119801500D01*
X144731092Y-120932933D01*
X143651060Y-122012966D01*
X143494535Y-122012830D01*
X143131640Y-122162775D01*
X142853750Y-122440180D01*
X142703172Y-122802812D01*
X142702830Y-123195465D01*
X142852775Y-123558360D01*
X143130180Y-123836250D01*
X143492812Y-123986828D01*
X143885465Y-123987170D01*
X144248360Y-123837225D01*
X144526250Y-123559820D01*
X144676828Y-123197188D01*
X144677170Y-122804535D01*
X144527225Y-122441640D01*
X144369917Y-122284057D01*
X145226067Y-121427908D01*
X145849500Y-121427908D01*
X145932880Y-121412219D01*
X146009460Y-121362941D01*
X146060834Y-121287753D01*
X146078908Y-121198500D01*
X146078908Y-119801500D01*
X146063219Y-119718120D01*
X146013941Y-119641540D01*
X145938753Y-119590166D01*
X145849500Y-119572092D01*
X145755000Y-119572092D01*
X145755000Y-119551500D01*
X145728358Y-119417561D01*
X145728358Y-119417560D01*
X145652487Y-119304013D01*
X145600000Y-119251526D01*
X145600000Y-118894974D01*
X145640567Y-118854408D01*
X146504921Y-118854408D01*
X146620592Y-118970079D01*
X146620592Y-120000000D01*
X146636281Y-120083380D01*
X146675000Y-120143551D01*
X146675000Y-120900736D01*
X146017868Y-121557868D01*
X145952836Y-121655195D01*
X145930000Y-121770000D01*
X145930000Y-122056023D01*
X145671640Y-122162775D01*
X145393750Y-122440180D01*
X145243172Y-122802812D01*
X145242830Y-123195465D01*
X145392775Y-123558360D01*
X145670180Y-123836250D01*
X146032812Y-123986828D01*
X146425465Y-123987170D01*
X146788360Y-123837225D01*
X147066250Y-123559820D01*
X147216828Y-123197188D01*
X147217170Y-122804535D01*
X147067225Y-122441640D01*
X146789820Y-122163750D01*
X146530000Y-122055863D01*
X146530000Y-121894264D01*
X147175000Y-121249264D01*
X147175000Y-121705000D01*
X147197836Y-121819805D01*
X147262868Y-121917132D01*
X147890375Y-122544639D01*
X147783172Y-122802812D01*
X147782830Y-123195465D01*
X147932775Y-123558360D01*
X148210180Y-123836250D01*
X148572812Y-123986828D01*
X148965465Y-123987170D01*
X149328360Y-123837225D01*
X149606250Y-123559820D01*
X149756828Y-123197188D01*
X149757170Y-122804535D01*
X149607225Y-122441640D01*
X149329820Y-122163750D01*
X148967188Y-122013172D01*
X148574535Y-122012830D01*
X148314527Y-122120263D01*
X147775000Y-121580736D01*
X147775000Y-120374264D01*
X149850869Y-122450133D01*
X149948196Y-122515165D01*
X150063001Y-122538001D01*
X150423737Y-122538001D01*
X150430375Y-122544639D01*
X150323172Y-122802812D01*
X150322830Y-123195465D01*
X150472775Y-123558360D01*
X150750180Y-123836250D01*
X151112812Y-123986828D01*
X151505465Y-123987170D01*
X151868360Y-123837225D01*
X152146250Y-123559820D01*
X152296828Y-123197188D01*
X152297170Y-122804535D01*
X152147225Y-122441640D01*
X151869820Y-122163750D01*
X151507188Y-122013172D01*
X151114535Y-122012830D01*
X150854527Y-122120263D01*
X150760133Y-122025869D01*
X150662806Y-121960837D01*
X150553291Y-121939053D01*
X150694814Y-121797777D01*
X150774908Y-121604887D01*
X150775091Y-121396029D01*
X150707453Y-121232333D01*
X150797000Y-121195333D01*
X150944814Y-121047777D01*
X151024908Y-120854887D01*
X151025091Y-120646029D01*
X150952980Y-120471507D01*
X151094244Y-120330243D01*
X151137837Y-120225000D01*
X151144755Y-120225000D01*
X151227452Y-120190746D01*
X151290746Y-120127452D01*
X151325000Y-120044756D01*
X151325000Y-119531250D01*
X151268750Y-119475000D01*
X151325000Y-119418750D01*
X151325000Y-118974487D01*
X151445079Y-118854408D01*
X151600000Y-118854408D01*
X151600000Y-119183632D01*
X151615700Y-119262561D01*
X151626642Y-119317571D01*
X151702513Y-119431119D01*
X151843486Y-119572092D01*
X151805500Y-119572092D01*
X151722120Y-119587781D01*
X151645540Y-119637059D01*
X151594166Y-119712247D01*
X151576092Y-119801500D01*
X151576092Y-121198500D01*
X151591781Y-121281880D01*
X151641059Y-121358460D01*
X151716247Y-121409834D01*
X151805500Y-121427908D01*
X151854597Y-121427908D01*
X151805186Y-121477233D01*
X151725092Y-121670123D01*
X151724909Y-121878981D01*
X151804667Y-122072010D01*
X151952223Y-122219824D01*
X152145113Y-122299918D01*
X152353971Y-122300101D01*
X152504266Y-122238000D01*
X152858592Y-122238000D01*
X152858592Y-123762000D01*
X152874281Y-123845380D01*
X152923559Y-123921960D01*
X152998747Y-123973334D01*
X153088000Y-123991408D01*
X154612000Y-123991408D01*
X154695380Y-123975719D01*
X154771960Y-123926441D01*
X154823334Y-123851253D01*
X154841408Y-123762000D01*
X154841408Y-122238000D01*
X154833223Y-122194500D01*
X155949092Y-122194500D01*
X155949092Y-122829500D01*
X155964781Y-122912880D01*
X156014059Y-122989460D01*
X156089247Y-123040834D01*
X156178500Y-123058908D01*
X157321500Y-123058908D01*
X157404880Y-123043219D01*
X157481460Y-122993941D01*
X157532834Y-122918753D01*
X157550908Y-122829500D01*
X157550908Y-122812000D01*
X157623212Y-122812000D01*
X157623212Y-122898780D01*
X157638901Y-122982160D01*
X157688179Y-123058740D01*
X157763367Y-123110114D01*
X157852620Y-123128188D01*
X158650180Y-123128188D01*
X158733560Y-123112499D01*
X158810140Y-123063221D01*
X158861514Y-122988033D01*
X158879588Y-122898780D01*
X158879588Y-122101220D01*
X158863899Y-122017840D01*
X158814621Y-121941260D01*
X158739433Y-121889886D01*
X158650180Y-121871812D01*
X157852620Y-121871812D01*
X157769240Y-121887501D01*
X157692660Y-121936779D01*
X157641286Y-122011967D01*
X157623212Y-122101220D01*
X157623212Y-122212000D01*
X157550908Y-122212000D01*
X157550908Y-122194500D01*
X157535219Y-122111120D01*
X157485941Y-122034540D01*
X157410753Y-121983166D01*
X157321500Y-121965092D01*
X156178500Y-121965092D01*
X156095120Y-121980781D01*
X156018540Y-122030059D01*
X155967166Y-122105247D01*
X155949092Y-122194500D01*
X154833223Y-122194500D01*
X154825719Y-122154620D01*
X154776441Y-122078040D01*
X154701253Y-122026666D01*
X154612000Y-122008592D01*
X153088000Y-122008592D01*
X153004620Y-122024281D01*
X152928040Y-122073559D01*
X152876666Y-122148747D01*
X152858592Y-122238000D01*
X152504266Y-122238000D01*
X152547000Y-122220343D01*
X152694814Y-122072787D01*
X152774908Y-121879897D01*
X152775091Y-121671039D01*
X152695333Y-121478010D01*
X152645318Y-121427908D01*
X152694500Y-121427908D01*
X152777880Y-121412219D01*
X152854460Y-121362941D01*
X152905834Y-121287753D01*
X152923908Y-121198500D01*
X152923908Y-121103971D01*
X154974909Y-121103971D01*
X155054667Y-121297000D01*
X155202223Y-121444814D01*
X155395113Y-121524908D01*
X155603971Y-121525091D01*
X155797000Y-121445333D01*
X155942587Y-121300000D01*
X155949092Y-121300000D01*
X155949092Y-121305500D01*
X155964781Y-121388880D01*
X156014059Y-121465460D01*
X156089247Y-121516834D01*
X156178500Y-121534908D01*
X157321500Y-121534908D01*
X157404880Y-121519219D01*
X157481460Y-121469941D01*
X157532834Y-121394753D01*
X157550908Y-121305500D01*
X157550908Y-120670500D01*
X157535219Y-120587120D01*
X157485941Y-120510540D01*
X157410753Y-120459166D01*
X157321500Y-120441092D01*
X156178500Y-120441092D01*
X156095120Y-120456781D01*
X156018540Y-120506059D01*
X155967166Y-120581247D01*
X155949092Y-120670500D01*
X155949092Y-120700000D01*
X155942338Y-120700000D01*
X155797777Y-120555186D01*
X155604887Y-120475092D01*
X155396029Y-120474909D01*
X155203000Y-120554667D01*
X155055186Y-120702223D01*
X154975092Y-120895113D01*
X154974909Y-121103971D01*
X152923908Y-121103971D01*
X152923908Y-119801500D01*
X152908219Y-119718120D01*
X152858941Y-119641540D01*
X152845450Y-119632322D01*
X152842834Y-119619169D01*
X152811378Y-119572092D01*
X152766964Y-119505621D01*
X152300000Y-119038658D01*
X152300000Y-118854408D01*
X152475000Y-118854408D01*
X152558380Y-118838719D01*
X152634960Y-118789441D01*
X152686334Y-118714253D01*
X152704408Y-118625000D01*
X152704408Y-118375000D01*
X152688719Y-118291620D01*
X152686269Y-118287813D01*
X152739805Y-118277164D01*
X152817875Y-118224999D01*
X155400735Y-118224999D01*
X155520592Y-118344856D01*
X155520592Y-119550000D01*
X155536281Y-119633380D01*
X155585559Y-119709960D01*
X155660747Y-119761334D01*
X155750000Y-119779408D01*
X156950000Y-119779408D01*
X157033380Y-119763719D01*
X157109960Y-119714441D01*
X157161334Y-119639253D01*
X157179408Y-119550000D01*
X157179408Y-119300000D01*
X157191092Y-119300000D01*
X157191092Y-119571500D01*
X157206781Y-119654880D01*
X157256059Y-119731460D01*
X157331247Y-119782834D01*
X157420500Y-119800908D01*
X158055500Y-119800908D01*
X158138880Y-119785219D01*
X158215460Y-119735941D01*
X158266834Y-119660753D01*
X158284908Y-119571500D01*
X158284908Y-118428500D01*
X158269219Y-118345120D01*
X158219941Y-118268540D01*
X158144753Y-118217166D01*
X158055500Y-118199092D01*
X157420500Y-118199092D01*
X157337120Y-118214781D01*
X157260540Y-118264059D01*
X157209166Y-118339247D01*
X157191092Y-118428500D01*
X157191092Y-118700000D01*
X157179408Y-118700000D01*
X157179408Y-118150000D01*
X157163719Y-118066620D01*
X157114441Y-117990040D01*
X157039253Y-117938666D01*
X156950000Y-117920592D01*
X155944856Y-117920592D01*
X155737131Y-117712867D01*
X155639804Y-117647835D01*
X155524999Y-117624999D01*
X154199265Y-117624999D01*
X154244856Y-117579408D01*
X155250000Y-117579408D01*
X155333380Y-117563719D01*
X155409960Y-117514441D01*
X155461334Y-117439253D01*
X155479408Y-117350000D01*
X155479408Y-115950000D01*
X155463719Y-115866620D01*
X155414441Y-115790040D01*
X155339253Y-115738666D01*
X155250000Y-115720592D01*
X154713948Y-115720592D01*
X154754834Y-115660753D01*
X154772908Y-115571500D01*
X154772908Y-114428500D01*
X154757219Y-114345120D01*
X154707941Y-114268540D01*
X154632753Y-114217166D01*
X154543500Y-114199092D01*
X153908500Y-114199092D01*
X153825120Y-114214781D01*
X153748540Y-114264059D01*
X153697166Y-114339247D01*
X153679092Y-114428500D01*
X153679092Y-114614015D01*
X153561723Y-114496441D01*
X153368833Y-114416347D01*
X153159975Y-114416164D01*
X153114176Y-114435088D01*
X153212132Y-114337132D01*
X153277164Y-114239805D01*
X153285026Y-114200281D01*
X153297000Y-114195333D01*
X153444814Y-114047777D01*
X153524908Y-113854887D01*
X153525091Y-113646029D01*
X153445333Y-113453000D01*
X153297777Y-113305186D01*
X153104887Y-113225092D01*
X152896029Y-113224909D01*
X152703000Y-113304667D01*
X152555186Y-113452223D01*
X152475092Y-113645113D01*
X152474909Y-113853971D01*
X152554667Y-114047000D01*
X152604158Y-114096578D01*
X152541648Y-114159088D01*
X152475000Y-114145592D01*
X151445079Y-114145592D01*
X151329408Y-114029921D01*
X151329408Y-113000000D01*
X151313719Y-112916620D01*
X151264441Y-112840040D01*
X151189253Y-112788666D01*
X151100000Y-112770592D01*
X150978672Y-112770592D01*
X152392364Y-111356900D01*
X152400676Y-111356900D01*
X152305186Y-111452223D01*
X152225092Y-111645113D01*
X152224909Y-111853971D01*
X152304667Y-112047000D01*
X152452223Y-112194814D01*
X152645113Y-112274908D01*
X152853971Y-112275091D01*
X153047000Y-112195333D01*
X153192587Y-112050000D01*
X154089588Y-112050000D01*
X154072092Y-112136400D01*
X154072092Y-112568200D01*
X154087781Y-112651580D01*
X154103276Y-112675660D01*
X154090166Y-112694847D01*
X154072092Y-112784100D01*
X154072092Y-113215900D01*
X154087781Y-113299280D01*
X154137059Y-113375860D01*
X154212247Y-113427234D01*
X154301500Y-113445308D01*
X155698500Y-113445308D01*
X155781880Y-113429619D01*
X155858460Y-113380341D01*
X155879191Y-113350000D01*
X156495000Y-113350000D01*
X156495000Y-113572092D01*
X156400500Y-113572092D01*
X156317120Y-113587781D01*
X156240540Y-113637059D01*
X156189166Y-113712247D01*
X156171092Y-113801500D01*
X156171092Y-115198500D01*
X156186781Y-115281880D01*
X156236059Y-115358460D01*
X156311247Y-115409834D01*
X156400500Y-115427908D01*
X156932934Y-115427908D01*
X157225026Y-115720001D01*
X157224909Y-115853971D01*
X157304667Y-116047000D01*
X157452223Y-116194814D01*
X157645113Y-116274908D01*
X157853971Y-116275091D01*
X158047000Y-116195333D01*
X158194814Y-116047777D01*
X158274908Y-115854887D01*
X158275091Y-115646029D01*
X158195333Y-115453000D01*
X158047777Y-115305186D01*
X157854887Y-115225092D01*
X157719948Y-115224974D01*
X157518908Y-115023934D01*
X157518908Y-113801500D01*
X157503219Y-113718120D01*
X157453941Y-113641540D01*
X157378753Y-113590166D01*
X157289500Y-113572092D01*
X157195000Y-113572092D01*
X157195000Y-113095000D01*
X157169103Y-112964805D01*
X157168358Y-112961060D01*
X157092487Y-112847512D01*
X156997487Y-112752513D01*
X156883939Y-112676642D01*
X156878992Y-112675658D01*
X156750000Y-112650000D01*
X155911343Y-112650000D01*
X155927908Y-112568200D01*
X155927908Y-112136400D01*
X155912219Y-112053020D01*
X155896724Y-112028940D01*
X155909834Y-112009753D01*
X155927908Y-111920500D01*
X155927908Y-111488700D01*
X155912219Y-111405320D01*
X155896724Y-111381240D01*
X155909834Y-111362053D01*
X155927908Y-111272800D01*
X155927908Y-110841000D01*
X155912219Y-110757620D01*
X155892515Y-110727000D01*
X155909834Y-110701653D01*
X155927908Y-110612400D01*
X155927908Y-110180600D01*
X155912219Y-110097220D01*
X155896724Y-110073140D01*
X155909834Y-110053953D01*
X155927908Y-109964700D01*
X155927908Y-109532900D01*
X155912219Y-109449520D01*
X155896724Y-109425440D01*
X155909834Y-109406253D01*
X155927908Y-109317000D01*
X155927908Y-108885200D01*
X155912219Y-108801820D01*
X155862941Y-108725240D01*
X155787753Y-108673866D01*
X155698500Y-108655792D01*
X154301500Y-108655792D01*
X154218120Y-108671481D01*
X154141540Y-108720759D01*
X154090166Y-108795947D01*
X154072092Y-108885200D01*
X154072092Y-109317000D01*
X154087781Y-109400380D01*
X154103276Y-109424460D01*
X154090166Y-109443647D01*
X154089123Y-109448800D01*
X151251200Y-109448800D01*
X151136395Y-109471636D01*
X151039068Y-109536668D01*
X149274955Y-111300781D01*
X149275091Y-111146029D01*
X149195333Y-110953000D01*
X149047777Y-110805186D01*
X148854887Y-110725092D01*
X148646029Y-110724909D01*
X148453000Y-110804667D01*
X148305186Y-110952223D01*
X148225092Y-111145113D01*
X148224909Y-111353971D01*
X148228919Y-111363676D01*
X148197836Y-111410195D01*
X148175000Y-111525000D01*
X148175000Y-112785780D01*
X148100000Y-112770592D01*
X147850000Y-112770592D01*
X147766620Y-112786281D01*
X147724979Y-112813076D01*
X147689253Y-112788666D01*
X147639308Y-112778552D01*
X147594244Y-112669757D01*
X147430243Y-112505756D01*
X147215966Y-112417000D01*
X147183250Y-112417000D01*
X147037500Y-112562750D01*
X147037500Y-113346000D01*
X147100000Y-113346000D01*
X147100000Y-113704000D01*
X147037500Y-113704000D01*
X147037500Y-113724000D01*
X146912500Y-113724000D01*
X146912500Y-113704000D01*
X146412750Y-113704000D01*
X146267000Y-113849750D01*
X146267000Y-114145592D01*
X145475000Y-114145592D01*
X145451573Y-114150000D01*
X145369975Y-114150000D01*
X145252962Y-114032988D01*
X145252962Y-113885779D01*
X145873401Y-113265340D01*
X145921266Y-113195288D01*
X145940571Y-113106293D01*
X145923732Y-113016799D01*
X145873401Y-112940908D01*
X145816527Y-112884034D01*
X146267000Y-112884034D01*
X146267000Y-113200250D01*
X146412750Y-113346000D01*
X146912500Y-113346000D01*
X146912500Y-112562750D01*
X146766750Y-112417000D01*
X146734034Y-112417000D01*
X146519757Y-112505756D01*
X146355756Y-112669757D01*
X146267000Y-112884034D01*
X145816527Y-112884034D01*
X144885573Y-111953080D01*
X144815521Y-111905215D01*
X144726526Y-111885910D01*
X144637032Y-111902749D01*
X144561141Y-111953080D01*
X143932523Y-112581698D01*
X143884658Y-112651750D01*
X143865353Y-112740745D01*
X143882192Y-112830239D01*
X143932523Y-112906130D01*
X144265710Y-113239317D01*
X144030000Y-113475026D01*
X143896029Y-113474909D01*
X143774549Y-113525104D01*
X143774549Y-113311194D01*
X143794139Y-113212708D01*
X143794139Y-111944591D01*
X147688730Y-108050000D01*
X152150000Y-108050000D01*
X152264805Y-108027164D01*
X152362132Y-107962132D01*
X153294856Y-107029408D01*
X153400000Y-107029408D01*
X153483380Y-107013719D01*
X153559960Y-106964441D01*
X153574628Y-106942973D01*
X153585559Y-106959960D01*
X153660747Y-107011334D01*
X153750000Y-107029408D01*
X154050000Y-107029408D01*
X154133380Y-107013719D01*
X154209960Y-106964441D01*
X154224628Y-106942973D01*
X154235559Y-106959960D01*
X154310747Y-107011334D01*
X154400000Y-107029408D01*
X154700000Y-107029408D01*
X154783380Y-107013719D01*
X154859960Y-106964441D01*
X154874628Y-106942973D01*
X154885559Y-106959960D01*
X154960747Y-107011334D01*
X155050000Y-107029408D01*
X155350000Y-107029408D01*
X155433380Y-107013719D01*
X155509960Y-106964441D01*
X155524628Y-106942973D01*
X155535559Y-106959960D01*
X155610747Y-107011334D01*
X155700000Y-107029408D01*
X156000000Y-107029408D01*
X156083380Y-107013719D01*
X156159960Y-106964441D01*
X156211334Y-106889253D01*
X156229408Y-106800000D01*
X156229408Y-105200000D01*
X156213719Y-105116620D01*
X156164441Y-105040040D01*
X156089253Y-104988666D01*
X156000000Y-104970592D01*
X155700000Y-104970592D01*
X155616620Y-104986281D01*
X155550000Y-105029150D01*
X155550000Y-104944974D01*
X155799974Y-104695000D01*
X157072092Y-104695000D01*
X157072092Y-104789500D01*
X157087781Y-104872880D01*
X157137059Y-104949460D01*
X157212247Y-105000834D01*
X157301500Y-105018908D01*
X158698500Y-105018908D01*
X158781880Y-105003219D01*
X158858460Y-104953941D01*
X158909834Y-104878753D01*
X158927908Y-104789500D01*
X158927908Y-103900500D01*
X158912219Y-103817120D01*
X158862941Y-103740540D01*
X158787753Y-103689166D01*
X158698500Y-103671092D01*
X158350000Y-103671092D01*
X158350000Y-103642426D01*
X158444814Y-103547777D01*
X158524908Y-103354887D01*
X158525091Y-103146029D01*
X158445333Y-102953000D01*
X158297777Y-102805186D01*
X158104887Y-102725092D01*
X157896029Y-102724909D01*
X157703000Y-102804667D01*
X157555186Y-102952223D01*
X157475092Y-103145113D01*
X157474909Y-103353971D01*
X157554667Y-103547000D01*
X157650000Y-103642500D01*
X157650000Y-103671092D01*
X157301500Y-103671092D01*
X157218120Y-103686781D01*
X157141540Y-103736059D01*
X157090166Y-103811247D01*
X157072092Y-103900500D01*
X157072092Y-103995000D01*
X155655000Y-103995000D01*
X155543282Y-104017222D01*
X155521060Y-104021642D01*
X155407513Y-104097513D01*
X154952513Y-104552513D01*
X154876642Y-104666061D01*
X154850000Y-104800000D01*
X154850000Y-105030173D01*
X154789253Y-104988666D01*
X154700000Y-104970592D01*
X154400000Y-104970592D01*
X154316620Y-104986281D01*
X154240040Y-105035559D01*
X154225372Y-105057027D01*
X154214441Y-105040040D01*
X154139253Y-104988666D01*
X154050000Y-104970592D01*
X153750000Y-104970592D01*
X153666620Y-104986281D01*
X153590040Y-105035559D01*
X153575372Y-105057027D01*
X153564441Y-105040040D01*
X153489253Y-104988666D01*
X153400000Y-104970592D01*
X153100000Y-104970592D01*
X153016620Y-104986281D01*
X152940040Y-105035559D01*
X152925372Y-105057027D01*
X152914441Y-105040040D01*
X152839253Y-104988666D01*
X152750000Y-104970592D01*
X152450000Y-104970592D01*
X152366620Y-104986281D01*
X152290040Y-105035559D01*
X152275372Y-105057027D01*
X152264441Y-105040040D01*
X152189253Y-104988666D01*
X152100000Y-104970592D01*
X151800000Y-104970592D01*
X151716620Y-104986281D01*
X151640040Y-105035559D01*
X151625372Y-105057027D01*
X151614441Y-105040040D01*
X151539253Y-104988666D01*
X151450000Y-104970592D01*
X151150000Y-104970592D01*
X151066620Y-104986281D01*
X150990040Y-105035559D01*
X150975372Y-105057027D01*
X150964441Y-105040040D01*
X150889253Y-104988666D01*
X150800000Y-104970592D01*
X150500000Y-104970592D01*
X150416620Y-104986281D01*
X150340040Y-105035559D01*
X150325372Y-105057027D01*
X150314441Y-105040040D01*
X150239253Y-104988666D01*
X150150000Y-104970592D01*
X149850000Y-104970592D01*
X149766620Y-104986281D01*
X149690040Y-105035559D01*
X149638666Y-105110747D01*
X149620592Y-105200000D01*
X149620592Y-105700000D01*
X148439619Y-105700000D01*
X148416884Y-105704522D01*
X149321406Y-104800000D01*
X150450000Y-104800000D01*
X150564805Y-104777164D01*
X150662132Y-104712132D01*
X153944856Y-101429408D01*
X154050000Y-101429408D01*
X154084554Y-101422906D01*
X154055186Y-101452223D01*
X153975092Y-101645113D01*
X153974909Y-101853971D01*
X154054667Y-102047000D01*
X154202223Y-102194814D01*
X154395113Y-102274908D01*
X154603971Y-102275091D01*
X154797000Y-102195333D01*
X154944814Y-102047777D01*
X155024908Y-101854887D01*
X155025091Y-101646029D01*
X154945333Y-101453000D01*
X154858114Y-101365629D01*
X154859960Y-101364441D01*
X154874628Y-101342973D01*
X154885559Y-101359960D01*
X154960747Y-101411334D01*
X155050000Y-101429408D01*
X155350000Y-101429408D01*
X155433380Y-101413719D01*
X155509960Y-101364441D01*
X155524628Y-101342973D01*
X155535559Y-101359960D01*
X155610747Y-101411334D01*
X155700000Y-101429408D01*
X156000000Y-101429408D01*
X156083380Y-101413719D01*
X156159960Y-101364441D01*
X156211334Y-101289253D01*
X156229408Y-101200000D01*
X156229408Y-99600000D01*
X156213719Y-99516620D01*
X156164441Y-99440040D01*
X156089253Y-99388666D01*
X156000000Y-99370592D01*
X155700000Y-99370592D01*
X155616620Y-99386281D01*
X155540040Y-99435559D01*
X155525372Y-99457027D01*
X155514441Y-99440040D01*
X155439253Y-99388666D01*
X155350000Y-99370592D01*
X155050000Y-99370592D01*
X154966620Y-99386281D01*
X154890040Y-99435559D01*
X154875372Y-99457027D01*
X154864441Y-99440040D01*
X154789253Y-99388666D01*
X154700000Y-99370592D01*
X154400000Y-99370592D01*
X154316620Y-99386281D01*
X154240040Y-99435559D01*
X154225372Y-99457027D01*
X154214441Y-99440040D01*
X154139253Y-99388666D01*
X154050000Y-99370592D01*
X153750000Y-99370592D01*
X153666620Y-99386281D01*
X153600000Y-99429150D01*
X153600000Y-99177908D01*
X154194500Y-99177908D01*
X154277880Y-99162219D01*
X154354460Y-99112941D01*
X154405834Y-99037753D01*
X154423908Y-98948500D01*
X154423908Y-97551500D01*
X154408219Y-97468120D01*
X154358941Y-97391540D01*
X154283753Y-97340166D01*
X154194500Y-97322092D01*
X154170456Y-97322092D01*
X154194814Y-97297777D01*
X154274908Y-97104887D01*
X154275091Y-96896029D01*
X154195333Y-96703000D01*
X154047777Y-96555186D01*
X153854887Y-96475092D01*
X153646029Y-96474909D01*
X153453000Y-96554667D01*
X153305186Y-96702223D01*
X153225092Y-96895113D01*
X153224909Y-97103971D01*
X153304667Y-97297000D01*
X153329715Y-97322092D01*
X153305500Y-97322092D01*
X153222120Y-97337781D01*
X153145540Y-97387059D01*
X153094166Y-97462247D01*
X153076092Y-97551500D01*
X153076092Y-98428934D01*
X153002513Y-98502513D01*
X152926642Y-98616061D01*
X152900000Y-98750000D01*
X152900000Y-99200000D01*
X152877164Y-99085195D01*
X152812132Y-98987868D01*
X152740000Y-98915736D01*
X152740000Y-97706656D01*
X152717164Y-97591851D01*
X152652132Y-97494524D01*
X151530476Y-96372868D01*
X151433149Y-96307836D01*
X151318344Y-96285000D01*
X148075000Y-96285000D01*
X148075000Y-96000000D01*
X148069871Y-95972741D01*
X148053761Y-95947705D01*
X148029179Y-95930909D01*
X148000000Y-95925000D01*
X145075000Y-95925000D01*
X145075000Y-95670500D01*
X159449092Y-95670500D01*
X159449092Y-96305500D01*
X159464781Y-96388880D01*
X159514059Y-96465460D01*
X159589247Y-96516834D01*
X159678500Y-96534908D01*
X160821500Y-96534908D01*
X160904880Y-96519219D01*
X160981460Y-96469941D01*
X161032834Y-96394753D01*
X161050908Y-96305500D01*
X161050908Y-95670500D01*
X161035219Y-95587120D01*
X160985941Y-95510540D01*
X160910753Y-95459166D01*
X160821500Y-95441092D01*
X160700000Y-95441092D01*
X160700000Y-95250000D01*
X171525000Y-95250000D01*
X171525000Y-98000000D01*
X171541537Y-98084666D01*
X171590901Y-98159099D01*
X172025000Y-98593198D01*
X172025000Y-101000000D01*
X172040388Y-101081778D01*
X172088718Y-101156886D01*
X172162462Y-101207273D01*
X172250000Y-101225000D01*
X173250000Y-101225000D01*
X173331778Y-101209612D01*
X173406886Y-101161282D01*
X173457273Y-101087538D01*
X173475000Y-101000000D01*
X173475000Y-95250000D01*
X173458463Y-95165334D01*
X173409099Y-95090901D01*
X173159099Y-94840901D01*
X173087538Y-94792727D01*
X173000000Y-94775000D01*
X172000000Y-94775000D01*
X171915334Y-94791537D01*
X171840901Y-94840901D01*
X171590901Y-95090901D01*
X171542727Y-95162462D01*
X171525000Y-95250000D01*
X160700000Y-95250000D01*
X160700000Y-94979408D01*
X160900000Y-94979408D01*
X160983380Y-94963719D01*
X161059960Y-94914441D01*
X161111334Y-94839253D01*
X161129408Y-94750000D01*
X161129408Y-94150000D01*
X161113719Y-94066620D01*
X161064441Y-93990040D01*
X160989253Y-93938666D01*
X160900000Y-93920592D01*
X159800000Y-93920592D01*
X159716620Y-93936281D01*
X159640040Y-93985559D01*
X159588666Y-94060747D01*
X159570592Y-94150000D01*
X159570592Y-94750000D01*
X159586281Y-94833380D01*
X159635559Y-94909960D01*
X159710747Y-94961334D01*
X159800000Y-94979408D01*
X160000000Y-94979408D01*
X160000000Y-95441092D01*
X159678500Y-95441092D01*
X159595120Y-95456781D01*
X159518540Y-95506059D01*
X159467166Y-95581247D01*
X159449092Y-95670500D01*
X145075000Y-95670500D01*
X145075000Y-95080625D01*
X145084981Y-95133670D01*
X145134259Y-95210250D01*
X145209447Y-95261624D01*
X145298700Y-95279698D01*
X147599940Y-95279698D01*
X147683320Y-95264009D01*
X147759900Y-95214731D01*
X147811274Y-95139543D01*
X147829348Y-95050290D01*
X147829348Y-94549910D01*
X147813659Y-94466530D01*
X147770387Y-94399283D01*
X147811274Y-94339443D01*
X147829348Y-94250190D01*
X147829348Y-93749810D01*
X147813659Y-93666430D01*
X147770387Y-93599183D01*
X147811274Y-93539343D01*
X147829348Y-93450090D01*
X147829348Y-92975000D01*
X148156802Y-92975000D01*
X149090901Y-93909099D01*
X149162462Y-93957273D01*
X149250000Y-93975000D01*
X150750000Y-93975000D01*
X150834666Y-93958463D01*
X150909099Y-93909099D01*
X151659099Y-93159099D01*
X151707273Y-93087538D01*
X151725000Y-93000000D01*
X151725000Y-92000000D01*
X151775000Y-92000000D01*
X151775000Y-93000000D01*
X151791537Y-93084666D01*
X151840901Y-93159099D01*
X152090901Y-93409099D01*
X152162462Y-93457273D01*
X152250000Y-93475000D01*
X155000000Y-93475000D01*
X155084666Y-93458463D01*
X155159099Y-93409099D01*
X155343198Y-93225000D01*
X158250000Y-93225000D01*
X158331778Y-93209612D01*
X158400000Y-93165713D01*
X158400000Y-94005026D01*
X158384231Y-94020795D01*
X158364441Y-93990040D01*
X158289253Y-93938666D01*
X158200000Y-93920592D01*
X157100000Y-93920592D01*
X157016620Y-93936281D01*
X156940040Y-93985559D01*
X156888666Y-94060747D01*
X156870592Y-94150000D01*
X156870592Y-94750000D01*
X156886281Y-94833380D01*
X156935559Y-94909960D01*
X157010747Y-94961334D01*
X157100000Y-94979408D01*
X158200000Y-94979408D01*
X158283380Y-94963719D01*
X158359960Y-94914441D01*
X158411334Y-94839253D01*
X158419283Y-94800000D01*
X158450000Y-94800000D01*
X158583939Y-94773358D01*
X158697487Y-94697487D01*
X158997487Y-94397487D01*
X159073358Y-94283940D01*
X159087641Y-94212132D01*
X159100000Y-94150000D01*
X159100000Y-92850000D01*
X159073358Y-92716061D01*
X159073358Y-92716060D01*
X158997487Y-92602513D01*
X158697487Y-92302513D01*
X158583939Y-92226642D01*
X158475000Y-92204973D01*
X158475000Y-92000000D01*
X158459612Y-91918222D01*
X158411282Y-91843114D01*
X158337538Y-91792727D01*
X158250000Y-91775000D01*
X155343198Y-91775000D01*
X155159099Y-91590901D01*
X155087538Y-91542727D01*
X155000000Y-91525000D01*
X152250000Y-91525000D01*
X152165334Y-91541537D01*
X152090901Y-91590901D01*
X151840901Y-91840901D01*
X151792727Y-91912462D01*
X151775000Y-92000000D01*
X151725000Y-92000000D01*
X151708463Y-91915334D01*
X151659099Y-91840901D01*
X151409099Y-91590901D01*
X151337538Y-91542727D01*
X151250000Y-91525000D01*
X148750000Y-91525000D01*
X148665334Y-91541537D01*
X148590901Y-91590901D01*
X148406802Y-91775000D01*
X148069937Y-91775000D01*
X148075000Y-91750000D01*
X148075000Y-91250000D01*
X159275000Y-91250000D01*
X159275000Y-92750000D01*
X159291537Y-92834666D01*
X159340901Y-92909099D01*
X159590901Y-93159099D01*
X159662462Y-93207273D01*
X159750000Y-93225000D01*
X161156802Y-93225000D01*
X161340901Y-93409099D01*
X161412462Y-93457273D01*
X161500000Y-93475000D01*
X163000000Y-93475000D01*
X163084666Y-93458463D01*
X163159099Y-93409099D01*
X163409099Y-93159099D01*
X163457273Y-93087538D01*
X163475000Y-93000000D01*
X163475000Y-91250000D01*
X163459612Y-91168222D01*
X163411282Y-91093114D01*
X163337538Y-91042727D01*
X163250000Y-91025000D01*
X159500000Y-91025000D01*
X159418222Y-91040388D01*
X159343114Y-91088718D01*
X159292727Y-91162462D01*
X159275000Y-91250000D01*
X148075000Y-91250000D01*
X148075000Y-89750000D01*
X171525000Y-89750000D01*
X171525000Y-94250000D01*
X171541537Y-94334666D01*
X171590901Y-94409099D01*
X171840901Y-94659099D01*
X171912462Y-94707273D01*
X172000000Y-94725000D01*
X173250000Y-94725000D01*
X173334666Y-94708463D01*
X173409099Y-94659099D01*
X173659099Y-94409099D01*
X173707273Y-94337538D01*
X173725000Y-94250000D01*
X173725000Y-93500000D01*
X173708463Y-93415334D01*
X173659099Y-93340901D01*
X173475000Y-93156802D01*
X173475000Y-89750000D01*
X173459612Y-89668222D01*
X173411282Y-89593114D01*
X173337538Y-89542727D01*
X173250000Y-89525000D01*
X171750000Y-89525000D01*
X171668222Y-89540388D01*
X171593114Y-89588718D01*
X171542727Y-89662462D01*
X171525000Y-89750000D01*
X148075000Y-89750000D01*
X148075000Y-88250000D01*
X148069871Y-88222741D01*
X148053761Y-88197705D01*
X148029179Y-88180909D01*
X148000000Y-88175000D01*
X144510735Y-88175000D01*
X144849715Y-87836611D01*
X145074743Y-87294683D01*
X145074745Y-87292108D01*
X168124744Y-87292108D01*
X168348827Y-87834429D01*
X168763389Y-88249715D01*
X169305317Y-88474743D01*
X169892108Y-88475256D01*
X170434429Y-88251173D01*
X170849715Y-87836611D01*
X171074743Y-87294683D01*
X171075256Y-86707892D01*
X170851173Y-86165571D01*
X170436611Y-85750285D01*
X169894683Y-85525257D01*
X169307892Y-85524744D01*
X168765571Y-85748827D01*
X168350285Y-86163389D01*
X168125257Y-86705317D01*
X168124744Y-87292108D01*
X145074745Y-87292108D01*
X145075256Y-86707892D01*
X144851173Y-86165571D01*
X144436611Y-85750285D01*
X143894683Y-85525257D01*
X143307892Y-85524744D01*
X142765571Y-85748827D01*
X142350285Y-86163389D01*
X142125257Y-86705317D01*
X142124744Y-87292108D01*
X142348827Y-87834429D01*
X142688804Y-88175000D01*
X139300000Y-88175000D01*
X139300000Y-85300000D01*
X172242047Y-85300000D01*
X173675000Y-87027062D01*
G36*
X174175000Y-109750000D02*
X174180909Y-109779179D01*
X174196967Y-109803033D01*
X175175000Y-110781066D01*
X175175000Y-111968934D01*
X174196967Y-112946967D01*
X174180512Y-112971778D01*
X174175000Y-113000000D01*
X174175000Y-115900000D01*
X171594974Y-115900000D01*
X171597487Y-115897487D01*
X171673358Y-115783940D01*
X171682363Y-115738666D01*
X171700000Y-115650000D01*
X171700000Y-115570000D01*
X171733380Y-115563719D01*
X171809960Y-115514441D01*
X171861334Y-115439253D01*
X171862971Y-115431169D01*
X172090901Y-115659099D01*
X172162462Y-115707273D01*
X172250000Y-115725000D01*
X173000000Y-115725000D01*
X173084666Y-115708463D01*
X173159099Y-115659099D01*
X173409099Y-115409099D01*
X173457273Y-115337538D01*
X173475000Y-115250000D01*
X173475000Y-109750000D01*
X173458463Y-109665334D01*
X173409099Y-109590901D01*
X172909099Y-109090901D01*
X172837538Y-109042727D01*
X172750000Y-109025000D01*
X172250000Y-109025000D01*
X172165334Y-109041537D01*
X172090901Y-109090901D01*
X171840901Y-109340901D01*
X171792727Y-109412462D01*
X171775000Y-109500000D01*
X171775000Y-112963091D01*
X171739253Y-112938666D01*
X171650000Y-112920592D01*
X171050000Y-112920592D01*
X170966620Y-112936281D01*
X170890040Y-112985559D01*
X170838666Y-113060747D01*
X170820592Y-113150000D01*
X170820592Y-115350000D01*
X170836281Y-115433380D01*
X170885559Y-115509960D01*
X170950615Y-115554411D01*
X170605026Y-115900000D01*
X165794975Y-115900000D01*
X165429205Y-115534231D01*
X165459960Y-115514441D01*
X165511334Y-115439253D01*
X165529408Y-115350000D01*
X165529408Y-113150000D01*
X165740592Y-113150000D01*
X165740592Y-115350000D01*
X165756281Y-115433380D01*
X165805559Y-115509960D01*
X165880747Y-115561334D01*
X165970000Y-115579408D01*
X166570000Y-115579408D01*
X166653380Y-115563719D01*
X166729960Y-115514441D01*
X166781334Y-115439253D01*
X166799408Y-115350000D01*
X166799408Y-113150000D01*
X169550592Y-113150000D01*
X169550592Y-115350000D01*
X169566281Y-115433380D01*
X169615559Y-115509960D01*
X169690747Y-115561334D01*
X169780000Y-115579408D01*
X170380000Y-115579408D01*
X170463380Y-115563719D01*
X170539960Y-115514441D01*
X170591334Y-115439253D01*
X170609408Y-115350000D01*
X170609408Y-113150000D01*
X170593719Y-113066620D01*
X170544441Y-112990040D01*
X170469253Y-112938666D01*
X170380000Y-112920592D01*
X169780000Y-112920592D01*
X169696620Y-112936281D01*
X169620040Y-112985559D01*
X169568666Y-113060747D01*
X169550592Y-113150000D01*
X166799408Y-113150000D01*
X166783719Y-113066620D01*
X166734441Y-112990040D01*
X166659253Y-112938666D01*
X166570000Y-112920592D01*
X165970000Y-112920592D01*
X165886620Y-112936281D01*
X165810040Y-112985559D01*
X165758666Y-113060747D01*
X165740592Y-113150000D01*
X165529408Y-113150000D01*
X165513719Y-113066620D01*
X165464441Y-112990040D01*
X165389253Y-112938666D01*
X165300000Y-112920592D01*
X164700000Y-112920592D01*
X164616620Y-112936281D01*
X164540040Y-112985559D01*
X164488666Y-113060747D01*
X164470592Y-113150000D01*
X164470592Y-115350000D01*
X164486281Y-115433380D01*
X164535559Y-115509960D01*
X164610747Y-115561334D01*
X164650000Y-115569283D01*
X164650000Y-115600000D01*
X164674846Y-115724909D01*
X164676642Y-115733939D01*
X164752513Y-115847487D01*
X165402513Y-116497488D01*
X165516061Y-116573358D01*
X165650000Y-116600000D01*
X174175000Y-116600000D01*
X174175000Y-119130026D01*
X174155026Y-119150000D01*
X165750000Y-119150000D01*
X165638282Y-119172222D01*
X165616060Y-119176642D01*
X165502513Y-119252513D01*
X164752513Y-120002513D01*
X164676642Y-120116061D01*
X164650000Y-120250000D01*
X164650000Y-120430000D01*
X164616620Y-120436281D01*
X164540040Y-120485559D01*
X164488666Y-120560747D01*
X164470592Y-120650000D01*
X164470592Y-120727432D01*
X164458463Y-120665334D01*
X164409099Y-120590901D01*
X164159099Y-120340901D01*
X164087538Y-120292727D01*
X164000000Y-120275000D01*
X163343198Y-120275000D01*
X163225000Y-120156802D01*
X163225000Y-118500000D01*
X163208463Y-118415334D01*
X163159099Y-118340901D01*
X162909099Y-118090901D01*
X162837538Y-118042727D01*
X162750000Y-118025000D01*
X162000000Y-118025000D01*
X161915334Y-118041537D01*
X161840901Y-118090901D01*
X161840388Y-118091414D01*
X159819501Y-116070527D01*
X159819501Y-113418433D01*
X159889500Y-113432608D01*
X161286500Y-113432608D01*
X161369880Y-113416919D01*
X161446460Y-113367641D01*
X161497834Y-113292453D01*
X161515908Y-113203200D01*
X161515908Y-112771400D01*
X161500219Y-112688020D01*
X161488933Y-112670481D01*
X161497834Y-112657453D01*
X161515908Y-112568200D01*
X161515908Y-112136400D01*
X161500219Y-112053020D01*
X161493063Y-112041900D01*
X161796926Y-112041900D01*
X162218414Y-112463388D01*
X161840901Y-112840901D01*
X161792727Y-112912462D01*
X161775000Y-113000000D01*
X161775000Y-115500000D01*
X161791537Y-115584666D01*
X161840901Y-115659099D01*
X162090901Y-115909099D01*
X162162462Y-115957273D01*
X162250000Y-115975000D01*
X162295728Y-115975000D01*
X162225092Y-116145113D01*
X162224909Y-116353971D01*
X162304667Y-116547000D01*
X162452223Y-116694814D01*
X162645113Y-116774908D01*
X162853971Y-116775091D01*
X163047000Y-116695333D01*
X163194814Y-116547777D01*
X163274908Y-116354887D01*
X163275091Y-116146029D01*
X163204423Y-115975000D01*
X164000000Y-115975000D01*
X164081778Y-115959612D01*
X164156886Y-115911282D01*
X164207273Y-115837538D01*
X164225000Y-115750000D01*
X164225000Y-115463158D01*
X164241334Y-115439253D01*
X164259408Y-115350000D01*
X164259408Y-113150000D01*
X164243719Y-113066620D01*
X164225000Y-113037530D01*
X164225000Y-112971979D01*
X164266834Y-112910753D01*
X164284908Y-112821500D01*
X164284908Y-111725000D01*
X164500000Y-111725000D01*
X164581778Y-111709612D01*
X164656886Y-111661282D01*
X164707273Y-111587538D01*
X164725000Y-111500000D01*
X164725000Y-109750000D01*
X164708463Y-109665334D01*
X164659099Y-109590901D01*
X164568198Y-109500000D01*
X168775000Y-109500000D01*
X168775000Y-112000000D01*
X168790388Y-112081778D01*
X168838718Y-112156886D01*
X168912462Y-112207273D01*
X169000000Y-112225000D01*
X171500000Y-112225000D01*
X171581778Y-112209612D01*
X171656886Y-112161282D01*
X171707273Y-112087538D01*
X171725000Y-112000000D01*
X171725000Y-109500000D01*
X171708463Y-109415334D01*
X171659099Y-109340901D01*
X171409099Y-109090901D01*
X171337538Y-109042727D01*
X171250000Y-109025000D01*
X170500000Y-109025000D01*
X170415334Y-109041537D01*
X170340901Y-109090901D01*
X170156802Y-109275000D01*
X169000000Y-109275000D01*
X168918222Y-109290388D01*
X168843114Y-109338718D01*
X168792727Y-109412462D01*
X168775000Y-109500000D01*
X164568198Y-109500000D01*
X164475000Y-109406802D01*
X164475000Y-108373427D01*
X164486281Y-108433380D01*
X164535559Y-108509960D01*
X164610747Y-108561334D01*
X164700000Y-108579408D01*
X165300000Y-108579408D01*
X165383380Y-108563719D01*
X165459960Y-108514441D01*
X165511334Y-108439253D01*
X165529408Y-108350000D01*
X165529408Y-106150000D01*
X165740592Y-106150000D01*
X165740592Y-108350000D01*
X165756281Y-108433380D01*
X165805559Y-108509960D01*
X165880747Y-108561334D01*
X165970000Y-108579408D01*
X166570000Y-108579408D01*
X166653380Y-108563719D01*
X166729960Y-108514441D01*
X166781334Y-108439253D01*
X166799408Y-108350000D01*
X166799408Y-106150000D01*
X169550592Y-106150000D01*
X169550592Y-108350000D01*
X169566281Y-108433380D01*
X169615559Y-108509960D01*
X169690747Y-108561334D01*
X169780000Y-108579408D01*
X170380000Y-108579408D01*
X170463380Y-108563719D01*
X170539960Y-108514441D01*
X170591334Y-108439253D01*
X170609408Y-108350000D01*
X170609408Y-106150000D01*
X170820592Y-106150000D01*
X170820592Y-108350000D01*
X170836281Y-108433380D01*
X170885559Y-108509960D01*
X170960747Y-108561334D01*
X171050000Y-108579408D01*
X171650000Y-108579408D01*
X171733380Y-108563719D01*
X171809960Y-108514441D01*
X171861334Y-108439253D01*
X171879408Y-108350000D01*
X171879408Y-106150000D01*
X171863719Y-106066620D01*
X171814441Y-105990040D01*
X171739253Y-105938666D01*
X171650000Y-105920592D01*
X171050000Y-105920592D01*
X170966620Y-105936281D01*
X170890040Y-105985559D01*
X170838666Y-106060747D01*
X170820592Y-106150000D01*
X170609408Y-106150000D01*
X170593719Y-106066620D01*
X170544441Y-105990040D01*
X170469253Y-105938666D01*
X170380000Y-105920592D01*
X169780000Y-105920592D01*
X169696620Y-105936281D01*
X169620040Y-105985559D01*
X169568666Y-106060747D01*
X169550592Y-106150000D01*
X166799408Y-106150000D01*
X166783719Y-106066620D01*
X166734441Y-105990040D01*
X166659253Y-105938666D01*
X166570000Y-105920592D01*
X165970000Y-105920592D01*
X165886620Y-105936281D01*
X165810040Y-105985559D01*
X165758666Y-106060747D01*
X165740592Y-106150000D01*
X165529408Y-106150000D01*
X165513719Y-106066620D01*
X165464441Y-105990040D01*
X165429089Y-105965885D01*
X165794975Y-105600000D01*
X171855026Y-105600000D01*
X172209048Y-105954023D01*
X172160040Y-105985559D01*
X172108666Y-106060747D01*
X172090592Y-106150000D01*
X172090592Y-108350000D01*
X172106281Y-108433380D01*
X172155559Y-108509960D01*
X172230747Y-108561334D01*
X172320000Y-108579408D01*
X172920000Y-108579408D01*
X173003380Y-108563719D01*
X173079960Y-108514441D01*
X173131334Y-108439253D01*
X173149408Y-108350000D01*
X173149408Y-106150000D01*
X173133719Y-106066620D01*
X173084441Y-105990040D01*
X173009253Y-105938666D01*
X172970000Y-105930717D01*
X172970000Y-105870000D01*
X172943358Y-105736061D01*
X172943358Y-105736060D01*
X172867487Y-105622512D01*
X172764502Y-105519527D01*
X172797487Y-105497487D01*
X173670001Y-104624974D01*
X173803971Y-104625091D01*
X173997000Y-104545333D01*
X174144814Y-104397777D01*
X174175000Y-104325080D01*
X174175000Y-109750000D01*
X174175000Y-109750000D01*
G37*
X174175000Y-109750000D02*
X174180909Y-109779179D01*
X174196967Y-109803033D01*
X175175000Y-110781066D01*
X175175000Y-111968934D01*
X174196967Y-112946967D01*
X174180512Y-112971778D01*
X174175000Y-113000000D01*
X174175000Y-115900000D01*
X171594974Y-115900000D01*
X171597487Y-115897487D01*
X171673358Y-115783940D01*
X171682363Y-115738666D01*
X171700000Y-115650000D01*
X171700000Y-115570000D01*
X171733380Y-115563719D01*
X171809960Y-115514441D01*
X171861334Y-115439253D01*
X171862971Y-115431169D01*
X172090901Y-115659099D01*
X172162462Y-115707273D01*
X172250000Y-115725000D01*
X173000000Y-115725000D01*
X173084666Y-115708463D01*
X173159099Y-115659099D01*
X173409099Y-115409099D01*
X173457273Y-115337538D01*
X173475000Y-115250000D01*
X173475000Y-109750000D01*
X173458463Y-109665334D01*
X173409099Y-109590901D01*
X172909099Y-109090901D01*
X172837538Y-109042727D01*
X172750000Y-109025000D01*
X172250000Y-109025000D01*
X172165334Y-109041537D01*
X172090901Y-109090901D01*
X171840901Y-109340901D01*
X171792727Y-109412462D01*
X171775000Y-109500000D01*
X171775000Y-112963091D01*
X171739253Y-112938666D01*
X171650000Y-112920592D01*
X171050000Y-112920592D01*
X170966620Y-112936281D01*
X170890040Y-112985559D01*
X170838666Y-113060747D01*
X170820592Y-113150000D01*
X170820592Y-115350000D01*
X170836281Y-115433380D01*
X170885559Y-115509960D01*
X170950615Y-115554411D01*
X170605026Y-115900000D01*
X165794975Y-115900000D01*
X165429205Y-115534231D01*
X165459960Y-115514441D01*
X165511334Y-115439253D01*
X165529408Y-115350000D01*
X165529408Y-113150000D01*
X165740592Y-113150000D01*
X165740592Y-115350000D01*
X165756281Y-115433380D01*
X165805559Y-115509960D01*
X165880747Y-115561334D01*
X165970000Y-115579408D01*
X166570000Y-115579408D01*
X166653380Y-115563719D01*
X166729960Y-115514441D01*
X166781334Y-115439253D01*
X166799408Y-115350000D01*
X166799408Y-113150000D01*
X169550592Y-113150000D01*
X169550592Y-115350000D01*
X169566281Y-115433380D01*
X169615559Y-115509960D01*
X169690747Y-115561334D01*
X169780000Y-115579408D01*
X170380000Y-115579408D01*
X170463380Y-115563719D01*
X170539960Y-115514441D01*
X170591334Y-115439253D01*
X170609408Y-115350000D01*
X170609408Y-113150000D01*
X170593719Y-113066620D01*
X170544441Y-112990040D01*
X170469253Y-112938666D01*
X170380000Y-112920592D01*
X169780000Y-112920592D01*
X169696620Y-112936281D01*
X169620040Y-112985559D01*
X169568666Y-113060747D01*
X169550592Y-113150000D01*
X166799408Y-113150000D01*
X166783719Y-113066620D01*
X166734441Y-112990040D01*
X166659253Y-112938666D01*
X166570000Y-112920592D01*
X165970000Y-112920592D01*
X165886620Y-112936281D01*
X165810040Y-112985559D01*
X165758666Y-113060747D01*
X165740592Y-113150000D01*
X165529408Y-113150000D01*
X165513719Y-113066620D01*
X165464441Y-112990040D01*
X165389253Y-112938666D01*
X165300000Y-112920592D01*
X164700000Y-112920592D01*
X164616620Y-112936281D01*
X164540040Y-112985559D01*
X164488666Y-113060747D01*
X164470592Y-113150000D01*
X164470592Y-115350000D01*
X164486281Y-115433380D01*
X164535559Y-115509960D01*
X164610747Y-115561334D01*
X164650000Y-115569283D01*
X164650000Y-115600000D01*
X164674846Y-115724909D01*
X164676642Y-115733939D01*
X164752513Y-115847487D01*
X165402513Y-116497488D01*
X165516061Y-116573358D01*
X165650000Y-116600000D01*
X174175000Y-116600000D01*
X174175000Y-119130026D01*
X174155026Y-119150000D01*
X165750000Y-119150000D01*
X165638282Y-119172222D01*
X165616060Y-119176642D01*
X165502513Y-119252513D01*
X164752513Y-120002513D01*
X164676642Y-120116061D01*
X164650000Y-120250000D01*
X164650000Y-120430000D01*
X164616620Y-120436281D01*
X164540040Y-120485559D01*
X164488666Y-120560747D01*
X164470592Y-120650000D01*
X164470592Y-120727432D01*
X164458463Y-120665334D01*
X164409099Y-120590901D01*
X164159099Y-120340901D01*
X164087538Y-120292727D01*
X164000000Y-120275000D01*
X163343198Y-120275000D01*
X163225000Y-120156802D01*
X163225000Y-118500000D01*
X163208463Y-118415334D01*
X163159099Y-118340901D01*
X162909099Y-118090901D01*
X162837538Y-118042727D01*
X162750000Y-118025000D01*
X162000000Y-118025000D01*
X161915334Y-118041537D01*
X161840901Y-118090901D01*
X161840388Y-118091414D01*
X159819501Y-116070527D01*
X159819501Y-113418433D01*
X159889500Y-113432608D01*
X161286500Y-113432608D01*
X161369880Y-113416919D01*
X161446460Y-113367641D01*
X161497834Y-113292453D01*
X161515908Y-113203200D01*
X161515908Y-112771400D01*
X161500219Y-112688020D01*
X161488933Y-112670481D01*
X161497834Y-112657453D01*
X161515908Y-112568200D01*
X161515908Y-112136400D01*
X161500219Y-112053020D01*
X161493063Y-112041900D01*
X161796926Y-112041900D01*
X162218414Y-112463388D01*
X161840901Y-112840901D01*
X161792727Y-112912462D01*
X161775000Y-113000000D01*
X161775000Y-115500000D01*
X161791537Y-115584666D01*
X161840901Y-115659099D01*
X162090901Y-115909099D01*
X162162462Y-115957273D01*
X162250000Y-115975000D01*
X162295728Y-115975000D01*
X162225092Y-116145113D01*
X162224909Y-116353971D01*
X162304667Y-116547000D01*
X162452223Y-116694814D01*
X162645113Y-116774908D01*
X162853971Y-116775091D01*
X163047000Y-116695333D01*
X163194814Y-116547777D01*
X163274908Y-116354887D01*
X163275091Y-116146029D01*
X163204423Y-115975000D01*
X164000000Y-115975000D01*
X164081778Y-115959612D01*
X164156886Y-115911282D01*
X164207273Y-115837538D01*
X164225000Y-115750000D01*
X164225000Y-115463158D01*
X164241334Y-115439253D01*
X164259408Y-115350000D01*
X164259408Y-113150000D01*
X164243719Y-113066620D01*
X164225000Y-113037530D01*
X164225000Y-112971979D01*
X164266834Y-112910753D01*
X164284908Y-112821500D01*
X164284908Y-111725000D01*
X164500000Y-111725000D01*
X164581778Y-111709612D01*
X164656886Y-111661282D01*
X164707273Y-111587538D01*
X164725000Y-111500000D01*
X164725000Y-109750000D01*
X164708463Y-109665334D01*
X164659099Y-109590901D01*
X164568198Y-109500000D01*
X168775000Y-109500000D01*
X168775000Y-112000000D01*
X168790388Y-112081778D01*
X168838718Y-112156886D01*
X168912462Y-112207273D01*
X169000000Y-112225000D01*
X171500000Y-112225000D01*
X171581778Y-112209612D01*
X171656886Y-112161282D01*
X171707273Y-112087538D01*
X171725000Y-112000000D01*
X171725000Y-109500000D01*
X171708463Y-109415334D01*
X171659099Y-109340901D01*
X171409099Y-109090901D01*
X171337538Y-109042727D01*
X171250000Y-109025000D01*
X170500000Y-109025000D01*
X170415334Y-109041537D01*
X170340901Y-109090901D01*
X170156802Y-109275000D01*
X169000000Y-109275000D01*
X168918222Y-109290388D01*
X168843114Y-109338718D01*
X168792727Y-109412462D01*
X168775000Y-109500000D01*
X164568198Y-109500000D01*
X164475000Y-109406802D01*
X164475000Y-108373427D01*
X164486281Y-108433380D01*
X164535559Y-108509960D01*
X164610747Y-108561334D01*
X164700000Y-108579408D01*
X165300000Y-108579408D01*
X165383380Y-108563719D01*
X165459960Y-108514441D01*
X165511334Y-108439253D01*
X165529408Y-108350000D01*
X165529408Y-106150000D01*
X165740592Y-106150000D01*
X165740592Y-108350000D01*
X165756281Y-108433380D01*
X165805559Y-108509960D01*
X165880747Y-108561334D01*
X165970000Y-108579408D01*
X166570000Y-108579408D01*
X166653380Y-108563719D01*
X166729960Y-108514441D01*
X166781334Y-108439253D01*
X166799408Y-108350000D01*
X166799408Y-106150000D01*
X169550592Y-106150000D01*
X169550592Y-108350000D01*
X169566281Y-108433380D01*
X169615559Y-108509960D01*
X169690747Y-108561334D01*
X169780000Y-108579408D01*
X170380000Y-108579408D01*
X170463380Y-108563719D01*
X170539960Y-108514441D01*
X170591334Y-108439253D01*
X170609408Y-108350000D01*
X170609408Y-106150000D01*
X170820592Y-106150000D01*
X170820592Y-108350000D01*
X170836281Y-108433380D01*
X170885559Y-108509960D01*
X170960747Y-108561334D01*
X171050000Y-108579408D01*
X171650000Y-108579408D01*
X171733380Y-108563719D01*
X171809960Y-108514441D01*
X171861334Y-108439253D01*
X171879408Y-108350000D01*
X171879408Y-106150000D01*
X171863719Y-106066620D01*
X171814441Y-105990040D01*
X171739253Y-105938666D01*
X171650000Y-105920592D01*
X171050000Y-105920592D01*
X170966620Y-105936281D01*
X170890040Y-105985559D01*
X170838666Y-106060747D01*
X170820592Y-106150000D01*
X170609408Y-106150000D01*
X170593719Y-106066620D01*
X170544441Y-105990040D01*
X170469253Y-105938666D01*
X170380000Y-105920592D01*
X169780000Y-105920592D01*
X169696620Y-105936281D01*
X169620040Y-105985559D01*
X169568666Y-106060747D01*
X169550592Y-106150000D01*
X166799408Y-106150000D01*
X166783719Y-106066620D01*
X166734441Y-105990040D01*
X166659253Y-105938666D01*
X166570000Y-105920592D01*
X165970000Y-105920592D01*
X165886620Y-105936281D01*
X165810040Y-105985559D01*
X165758666Y-106060747D01*
X165740592Y-106150000D01*
X165529408Y-106150000D01*
X165513719Y-106066620D01*
X165464441Y-105990040D01*
X165429089Y-105965885D01*
X165794975Y-105600000D01*
X171855026Y-105600000D01*
X172209048Y-105954023D01*
X172160040Y-105985559D01*
X172108666Y-106060747D01*
X172090592Y-106150000D01*
X172090592Y-108350000D01*
X172106281Y-108433380D01*
X172155559Y-108509960D01*
X172230747Y-108561334D01*
X172320000Y-108579408D01*
X172920000Y-108579408D01*
X173003380Y-108563719D01*
X173079960Y-108514441D01*
X173131334Y-108439253D01*
X173149408Y-108350000D01*
X173149408Y-106150000D01*
X173133719Y-106066620D01*
X173084441Y-105990040D01*
X173009253Y-105938666D01*
X172970000Y-105930717D01*
X172970000Y-105870000D01*
X172943358Y-105736061D01*
X172943358Y-105736060D01*
X172867487Y-105622512D01*
X172764502Y-105519527D01*
X172797487Y-105497487D01*
X173670001Y-104624974D01*
X173803971Y-104625091D01*
X173997000Y-104545333D01*
X174144814Y-104397777D01*
X174175000Y-104325080D01*
X174175000Y-109750000D01*
G36*
X150537500Y-119296000D02*
X150600000Y-119296000D01*
X150600000Y-119654000D01*
X150537500Y-119654000D01*
X150537500Y-119674000D01*
X150412500Y-119674000D01*
X150412500Y-119654000D01*
X150350000Y-119654000D01*
X150350000Y-119296000D01*
X150412500Y-119296000D01*
X150412500Y-119276000D01*
X150537500Y-119276000D01*
X150537500Y-119296000D01*
X150537500Y-119296000D01*
G37*
X150537500Y-119296000D02*
X150600000Y-119296000D01*
X150600000Y-119654000D01*
X150537500Y-119654000D01*
X150537500Y-119674000D01*
X150412500Y-119674000D01*
X150412500Y-119654000D01*
X150350000Y-119654000D01*
X150350000Y-119296000D01*
X150412500Y-119296000D01*
X150412500Y-119276000D01*
X150537500Y-119276000D01*
X150537500Y-119296000D01*
G36*
X149154000Y-116321000D02*
X150871250Y-116321000D01*
X150987750Y-116437500D01*
X151771000Y-116437500D01*
X151771000Y-116375000D01*
X151843689Y-116375000D01*
X151916060Y-116423357D01*
X152049999Y-116449999D01*
X152149000Y-116449999D01*
X152149000Y-116562500D01*
X152129000Y-116562500D01*
X152129000Y-116625000D01*
X151771000Y-116625000D01*
X151771000Y-116562500D01*
X150987750Y-116562500D01*
X150871250Y-116679000D01*
X149154000Y-116679000D01*
X149154000Y-116699000D01*
X148796000Y-116699000D01*
X148796000Y-116679000D01*
X148776000Y-116679000D01*
X148776000Y-116321000D01*
X148796000Y-116321000D01*
X148796000Y-116301000D01*
X149154000Y-116301000D01*
X149154000Y-116321000D01*
X149154000Y-116321000D01*
G37*
X149154000Y-116321000D02*
X150871250Y-116321000D01*
X150987750Y-116437500D01*
X151771000Y-116437500D01*
X151771000Y-116375000D01*
X151843689Y-116375000D01*
X151916060Y-116423357D01*
X152049999Y-116449999D01*
X152149000Y-116449999D01*
X152149000Y-116562500D01*
X152129000Y-116562500D01*
X152129000Y-116625000D01*
X151771000Y-116625000D01*
X151771000Y-116562500D01*
X150987750Y-116562500D01*
X150871250Y-116679000D01*
X149154000Y-116679000D01*
X149154000Y-116699000D01*
X148796000Y-116699000D01*
X148796000Y-116679000D01*
X148776000Y-116679000D01*
X148776000Y-116321000D01*
X148796000Y-116321000D01*
X148796000Y-116301000D01*
X149154000Y-116301000D01*
X149154000Y-116321000D01*
G36*
X164486281Y-100933380D02*
X164535559Y-101009960D01*
X164610747Y-101061334D01*
X164650000Y-101069283D01*
X164650000Y-101100000D01*
X164665615Y-101178500D01*
X164676642Y-101233939D01*
X164752513Y-101347487D01*
X165402513Y-101997488D01*
X165516061Y-102073358D01*
X165650000Y-102100000D01*
X173550000Y-102100000D01*
X173683939Y-102073358D01*
X173797487Y-101997487D01*
X174175000Y-101619974D01*
X174175000Y-103874800D01*
X174145333Y-103803000D01*
X173997777Y-103655186D01*
X173804887Y-103575092D01*
X173596029Y-103574909D01*
X173403000Y-103654667D01*
X173255186Y-103802223D01*
X173175092Y-103995113D01*
X173174974Y-104130051D01*
X172405026Y-104900000D01*
X165650000Y-104900000D01*
X165516061Y-104926642D01*
X165402513Y-105002512D01*
X164752513Y-105652513D01*
X164676642Y-105766061D01*
X164650000Y-105900000D01*
X164650000Y-105930000D01*
X164616620Y-105936281D01*
X164540040Y-105985559D01*
X164488666Y-106060747D01*
X164470592Y-106150000D01*
X164470592Y-106227432D01*
X164458463Y-106165334D01*
X164409099Y-106090901D01*
X164159099Y-105840901D01*
X164087538Y-105792727D01*
X164000000Y-105775000D01*
X163500000Y-105775000D01*
X163415334Y-105791537D01*
X163340901Y-105840901D01*
X163090901Y-106090901D01*
X163042727Y-106162462D01*
X163025000Y-106250000D01*
X163025000Y-106656802D01*
X162906802Y-106775000D01*
X162000000Y-106775000D01*
X161915334Y-106791537D01*
X161840901Y-106840901D01*
X161590901Y-107090901D01*
X161542727Y-107162462D01*
X161525000Y-107250000D01*
X161525000Y-107750000D01*
X161541537Y-107834666D01*
X161590901Y-107909099D01*
X161840901Y-108159099D01*
X161912462Y-108207273D01*
X162000000Y-108225000D01*
X162906802Y-108225000D01*
X163025000Y-108343198D01*
X163025000Y-110046500D01*
X161499343Y-110046500D01*
X161515908Y-109964700D01*
X161515908Y-109532900D01*
X161500219Y-109449520D01*
X161484724Y-109425440D01*
X161497834Y-109406253D01*
X161515908Y-109317000D01*
X161515908Y-108885200D01*
X161500219Y-108801820D01*
X161450941Y-108725240D01*
X161375753Y-108673866D01*
X161286500Y-108655792D01*
X161285652Y-108655792D01*
X161358460Y-108608941D01*
X161409834Y-108533753D01*
X161427908Y-108444500D01*
X161427908Y-107555500D01*
X161412219Y-107472120D01*
X161362941Y-107395540D01*
X161287753Y-107344166D01*
X161198500Y-107326092D01*
X159801500Y-107326092D01*
X159718120Y-107341781D01*
X159641540Y-107391059D01*
X159590166Y-107466247D01*
X159572092Y-107555500D01*
X159572092Y-107579544D01*
X159547777Y-107555186D01*
X159354887Y-107475092D01*
X159146029Y-107474909D01*
X158953000Y-107554667D01*
X158805186Y-107702223D01*
X158725092Y-107895113D01*
X158724909Y-108103971D01*
X158804667Y-108297000D01*
X158952223Y-108444814D01*
X159145113Y-108524908D01*
X159353971Y-108525091D01*
X159547000Y-108445333D01*
X159572092Y-108420285D01*
X159572092Y-108444500D01*
X159587781Y-108527880D01*
X159637059Y-108604460D01*
X159712247Y-108655834D01*
X159801500Y-108673908D01*
X159802348Y-108673908D01*
X159729540Y-108720759D01*
X159678166Y-108795947D01*
X159660092Y-108885200D01*
X159660092Y-109317000D01*
X159675484Y-109398800D01*
X158643775Y-109398800D01*
X158350000Y-109105026D01*
X158350000Y-108144974D01*
X159577316Y-106917659D01*
X159653187Y-106804111D01*
X159661005Y-106764805D01*
X159679829Y-106670171D01*
X159679829Y-105569145D01*
X162340388Y-102908586D01*
X162340901Y-102909099D01*
X162412462Y-102957273D01*
X162500000Y-102975000D01*
X163000000Y-102975000D01*
X163084666Y-102958463D01*
X163159099Y-102909099D01*
X163659099Y-102409099D01*
X163707273Y-102337538D01*
X163725000Y-102250000D01*
X163725000Y-101843198D01*
X164409099Y-101159099D01*
X164457273Y-101087538D01*
X164475000Y-101000000D01*
X164475000Y-100873427D01*
X164486281Y-100933380D01*
X164486281Y-100933380D01*
G37*
X164486281Y-100933380D02*
X164535559Y-101009960D01*
X164610747Y-101061334D01*
X164650000Y-101069283D01*
X164650000Y-101100000D01*
X164665615Y-101178500D01*
X164676642Y-101233939D01*
X164752513Y-101347487D01*
X165402513Y-101997488D01*
X165516061Y-102073358D01*
X165650000Y-102100000D01*
X173550000Y-102100000D01*
X173683939Y-102073358D01*
X173797487Y-101997487D01*
X174175000Y-101619974D01*
X174175000Y-103874800D01*
X174145333Y-103803000D01*
X173997777Y-103655186D01*
X173804887Y-103575092D01*
X173596029Y-103574909D01*
X173403000Y-103654667D01*
X173255186Y-103802223D01*
X173175092Y-103995113D01*
X173174974Y-104130051D01*
X172405026Y-104900000D01*
X165650000Y-104900000D01*
X165516061Y-104926642D01*
X165402513Y-105002512D01*
X164752513Y-105652513D01*
X164676642Y-105766061D01*
X164650000Y-105900000D01*
X164650000Y-105930000D01*
X164616620Y-105936281D01*
X164540040Y-105985559D01*
X164488666Y-106060747D01*
X164470592Y-106150000D01*
X164470592Y-106227432D01*
X164458463Y-106165334D01*
X164409099Y-106090901D01*
X164159099Y-105840901D01*
X164087538Y-105792727D01*
X164000000Y-105775000D01*
X163500000Y-105775000D01*
X163415334Y-105791537D01*
X163340901Y-105840901D01*
X163090901Y-106090901D01*
X163042727Y-106162462D01*
X163025000Y-106250000D01*
X163025000Y-106656802D01*
X162906802Y-106775000D01*
X162000000Y-106775000D01*
X161915334Y-106791537D01*
X161840901Y-106840901D01*
X161590901Y-107090901D01*
X161542727Y-107162462D01*
X161525000Y-107250000D01*
X161525000Y-107750000D01*
X161541537Y-107834666D01*
X161590901Y-107909099D01*
X161840901Y-108159099D01*
X161912462Y-108207273D01*
X162000000Y-108225000D01*
X162906802Y-108225000D01*
X163025000Y-108343198D01*
X163025000Y-110046500D01*
X161499343Y-110046500D01*
X161515908Y-109964700D01*
X161515908Y-109532900D01*
X161500219Y-109449520D01*
X161484724Y-109425440D01*
X161497834Y-109406253D01*
X161515908Y-109317000D01*
X161515908Y-108885200D01*
X161500219Y-108801820D01*
X161450941Y-108725240D01*
X161375753Y-108673866D01*
X161286500Y-108655792D01*
X161285652Y-108655792D01*
X161358460Y-108608941D01*
X161409834Y-108533753D01*
X161427908Y-108444500D01*
X161427908Y-107555500D01*
X161412219Y-107472120D01*
X161362941Y-107395540D01*
X161287753Y-107344166D01*
X161198500Y-107326092D01*
X159801500Y-107326092D01*
X159718120Y-107341781D01*
X159641540Y-107391059D01*
X159590166Y-107466247D01*
X159572092Y-107555500D01*
X159572092Y-107579544D01*
X159547777Y-107555186D01*
X159354887Y-107475092D01*
X159146029Y-107474909D01*
X158953000Y-107554667D01*
X158805186Y-107702223D01*
X158725092Y-107895113D01*
X158724909Y-108103971D01*
X158804667Y-108297000D01*
X158952223Y-108444814D01*
X159145113Y-108524908D01*
X159353971Y-108525091D01*
X159547000Y-108445333D01*
X159572092Y-108420285D01*
X159572092Y-108444500D01*
X159587781Y-108527880D01*
X159637059Y-108604460D01*
X159712247Y-108655834D01*
X159801500Y-108673908D01*
X159802348Y-108673908D01*
X159729540Y-108720759D01*
X159678166Y-108795947D01*
X159660092Y-108885200D01*
X159660092Y-109317000D01*
X159675484Y-109398800D01*
X158643775Y-109398800D01*
X158350000Y-109105026D01*
X158350000Y-108144974D01*
X159577316Y-106917659D01*
X159653187Y-106804111D01*
X159661005Y-106764805D01*
X159679829Y-106670171D01*
X159679829Y-105569145D01*
X162340388Y-102908586D01*
X162340901Y-102909099D01*
X162412462Y-102957273D01*
X162500000Y-102975000D01*
X163000000Y-102975000D01*
X163084666Y-102958463D01*
X163159099Y-102909099D01*
X163659099Y-102409099D01*
X163707273Y-102337538D01*
X163725000Y-102250000D01*
X163725000Y-101843198D01*
X164409099Y-101159099D01*
X164457273Y-101087538D01*
X164475000Y-101000000D01*
X164475000Y-100873427D01*
X164486281Y-100933380D01*
G36*
X173175000Y-93250000D02*
X173180909Y-93279179D01*
X173196967Y-93303033D01*
X173425000Y-93531066D01*
X173425000Y-94218934D01*
X173218934Y-94425000D01*
X172031066Y-94425000D01*
X171825000Y-94218934D01*
X171825000Y-89825000D01*
X173175000Y-89825000D01*
X173175000Y-93250000D01*
X173175000Y-93250000D01*
G37*
X173175000Y-93250000D02*
X173180909Y-93279179D01*
X173196967Y-93303033D01*
X173425000Y-93531066D01*
X173425000Y-94218934D01*
X173218934Y-94425000D01*
X172031066Y-94425000D01*
X171825000Y-94218934D01*
X171825000Y-89825000D01*
X173175000Y-89825000D01*
X173175000Y-93250000D01*
G36*
X162925000Y-118531066D02*
X162925000Y-120250000D01*
X162930909Y-120279179D01*
X162946967Y-120303033D01*
X163196967Y-120553033D01*
X163221778Y-120569488D01*
X163250000Y-120575000D01*
X163968934Y-120575000D01*
X164175000Y-120781066D01*
X164175000Y-122718934D01*
X163968934Y-122925000D01*
X163281066Y-122925000D01*
X162803033Y-122446967D01*
X162778222Y-122430512D01*
X162750000Y-122425000D01*
X161531066Y-122425000D01*
X161325000Y-122218934D01*
X161325000Y-121281066D01*
X161803033Y-120803033D01*
X161819488Y-120778222D01*
X161825000Y-120750000D01*
X161825000Y-118531066D01*
X162031066Y-118325000D01*
X162718934Y-118325000D01*
X162925000Y-118531066D01*
X162925000Y-118531066D01*
G37*
X162925000Y-118531066D02*
X162925000Y-120250000D01*
X162930909Y-120279179D01*
X162946967Y-120303033D01*
X163196967Y-120553033D01*
X163221778Y-120569488D01*
X163250000Y-120575000D01*
X163968934Y-120575000D01*
X164175000Y-120781066D01*
X164175000Y-122718934D01*
X163968934Y-122925000D01*
X163281066Y-122925000D01*
X162803033Y-122446967D01*
X162778222Y-122430512D01*
X162750000Y-122425000D01*
X161531066Y-122425000D01*
X161325000Y-122218934D01*
X161325000Y-121281066D01*
X161803033Y-120803033D01*
X161819488Y-120778222D01*
X161825000Y-120750000D01*
X161825000Y-118531066D01*
X162031066Y-118325000D01*
X162718934Y-118325000D01*
X162925000Y-118531066D01*
G36*
X163925000Y-115675000D02*
X162281066Y-115675000D01*
X162075000Y-115468934D01*
X162075000Y-113031066D01*
X163281066Y-111825000D01*
X163925000Y-111825000D01*
X163925000Y-115675000D01*
X163925000Y-115675000D01*
G37*
X163925000Y-115675000D02*
X162281066Y-115675000D01*
X162075000Y-115468934D01*
X162075000Y-113031066D01*
X163281066Y-111825000D01*
X163925000Y-111825000D01*
X163925000Y-115675000D01*
G36*
X164175000Y-106281066D02*
X164175000Y-109500000D01*
X164180909Y-109529179D01*
X164196967Y-109553033D01*
X164425000Y-109781066D01*
X164425000Y-111425000D01*
X163325000Y-111425000D01*
X163325000Y-108250000D01*
X163319091Y-108220821D01*
X163303033Y-108196967D01*
X163053033Y-107946967D01*
X163028222Y-107930512D01*
X163000000Y-107925000D01*
X162031066Y-107925000D01*
X161825000Y-107718934D01*
X161825000Y-107281066D01*
X162031066Y-107075000D01*
X163000000Y-107075000D01*
X163029179Y-107069091D01*
X163053033Y-107053033D01*
X163303033Y-106803033D01*
X163319488Y-106778222D01*
X163325000Y-106750000D01*
X163325000Y-106281066D01*
X163531066Y-106075000D01*
X163968934Y-106075000D01*
X164175000Y-106281066D01*
X164175000Y-106281066D01*
G37*
X164175000Y-106281066D02*
X164175000Y-109500000D01*
X164180909Y-109529179D01*
X164196967Y-109553033D01*
X164425000Y-109781066D01*
X164425000Y-111425000D01*
X163325000Y-111425000D01*
X163325000Y-108250000D01*
X163319091Y-108220821D01*
X163303033Y-108196967D01*
X163053033Y-107946967D01*
X163028222Y-107930512D01*
X163000000Y-107925000D01*
X162031066Y-107925000D01*
X161825000Y-107718934D01*
X161825000Y-107281066D01*
X162031066Y-107075000D01*
X163000000Y-107075000D01*
X163029179Y-107069091D01*
X163053033Y-107053033D01*
X163303033Y-106803033D01*
X163319488Y-106778222D01*
X163325000Y-106750000D01*
X163325000Y-106281066D01*
X163531066Y-106075000D01*
X163968934Y-106075000D01*
X164175000Y-106281066D01*
G36*
X173175000Y-109781066D02*
X173175000Y-115218934D01*
X172968934Y-115425000D01*
X172281066Y-115425000D01*
X172075000Y-115218934D01*
X172075000Y-109531066D01*
X172281066Y-109325000D01*
X172718934Y-109325000D01*
X173175000Y-109781066D01*
X173175000Y-109781066D01*
G37*
X173175000Y-109781066D02*
X173175000Y-115218934D01*
X172968934Y-115425000D01*
X172281066Y-115425000D01*
X172075000Y-115218934D01*
X172075000Y-109531066D01*
X172281066Y-109325000D01*
X172718934Y-109325000D01*
X173175000Y-109781066D01*
G36*
X171425000Y-109531066D02*
X171425000Y-111925000D01*
X169075000Y-111925000D01*
X169075000Y-109575000D01*
X170250000Y-109575000D01*
X170279179Y-109569091D01*
X170303033Y-109553033D01*
X170531066Y-109325000D01*
X171218934Y-109325000D01*
X171425000Y-109531066D01*
X171425000Y-109531066D01*
G37*
X171425000Y-109531066D02*
X171425000Y-111925000D01*
X169075000Y-111925000D01*
X169075000Y-109575000D01*
X170250000Y-109575000D01*
X170279179Y-109569091D01*
X170303033Y-109553033D01*
X170531066Y-109325000D01*
X171218934Y-109325000D01*
X171425000Y-109531066D01*
G36*
X164175000Y-100968934D02*
X163446967Y-101696967D01*
X163430512Y-101721778D01*
X163425000Y-101750000D01*
X163425000Y-102218934D01*
X162968934Y-102675000D01*
X162531066Y-102675000D01*
X162075000Y-102218934D01*
X162075000Y-101031066D01*
X162303033Y-100803033D01*
X162319488Y-100778222D01*
X162325000Y-100750000D01*
X162325000Y-98325000D01*
X164175000Y-98325000D01*
X164175000Y-100968934D01*
X164175000Y-100968934D01*
G37*
X164175000Y-100968934D02*
X163446967Y-101696967D01*
X163430512Y-101721778D01*
X163425000Y-101750000D01*
X163425000Y-102218934D01*
X162968934Y-102675000D01*
X162531066Y-102675000D01*
X162075000Y-102218934D01*
X162075000Y-101031066D01*
X162303033Y-100803033D01*
X162319488Y-100778222D01*
X162325000Y-100750000D01*
X162325000Y-98325000D01*
X164175000Y-98325000D01*
X164175000Y-100968934D01*
G36*
X185225000Y-89425000D02*
X180075000Y-89425000D01*
X180075000Y-85475000D01*
X185225000Y-85475000D01*
X185225000Y-89425000D01*
X185225000Y-89425000D01*
G37*
X185225000Y-89425000D02*
X180075000Y-89425000D01*
X180075000Y-85475000D01*
X185225000Y-85475000D01*
X185225000Y-89425000D01*
G36*
X197325000Y-89725000D02*
X189275000Y-89725000D01*
X189275000Y-85475000D01*
X197325000Y-85475000D01*
X197325000Y-89725000D01*
X197325000Y-89725000D01*
G37*
X197325000Y-89725000D02*
X189275000Y-89725000D01*
X189275000Y-85475000D01*
X197325000Y-85475000D01*
X197325000Y-89725000D01*
G36*
X197325000Y-99025000D02*
X193375000Y-99025000D01*
X193375000Y-93775000D01*
X197325000Y-93775000D01*
X197325000Y-99025000D01*
X197325000Y-99025000D01*
G37*
X197325000Y-99025000D02*
X193375000Y-99025000D01*
X193375000Y-93775000D01*
X197325000Y-93775000D01*
X197325000Y-99025000D01*
G36*
X197425000Y-108175000D02*
X193325000Y-108175000D01*
X193325000Y-103075000D01*
X197425000Y-103075000D01*
X197425000Y-108175000D01*
X197425000Y-108175000D01*
G37*
X197425000Y-108175000D02*
X193325000Y-108175000D01*
X193325000Y-103075000D01*
X197425000Y-103075000D01*
X197425000Y-108175000D01*
G36*
X197425000Y-117425000D02*
X193325000Y-117425000D01*
X193325000Y-112325000D01*
X197425000Y-112325000D01*
X197425000Y-117425000D01*
X197425000Y-117425000D01*
G37*
X197425000Y-117425000D02*
X193325000Y-117425000D01*
X193325000Y-112325000D01*
X197425000Y-112325000D01*
X197425000Y-117425000D01*
G36*
X192446967Y-121553033D02*
X192471778Y-121569488D01*
X192500000Y-121575000D01*
X197425000Y-121575000D01*
X197425000Y-124425000D01*
X189575000Y-124425000D01*
X189575000Y-120325000D01*
X191218934Y-120325000D01*
X192446967Y-121553033D01*
X192446967Y-121553033D01*
G37*
X192446967Y-121553033D02*
X192471778Y-121569488D01*
X192500000Y-121575000D01*
X197425000Y-121575000D01*
X197425000Y-124425000D01*
X189575000Y-124425000D01*
X189575000Y-120325000D01*
X191218934Y-120325000D01*
X192446967Y-121553033D01*
G36*
X185425000Y-124425000D02*
X180325000Y-124425000D01*
X180325000Y-120325000D01*
X185425000Y-120325000D01*
X185425000Y-124425000D01*
X185425000Y-124425000D01*
G37*
X185425000Y-124425000D02*
X180325000Y-124425000D01*
X180325000Y-120325000D01*
X185425000Y-120325000D01*
X185425000Y-124425000D01*
G36*
X176175000Y-124425000D02*
X173825000Y-124425000D01*
X173825000Y-120325000D01*
X176175000Y-120325000D01*
X176175000Y-124425000D01*
X176175000Y-124425000D01*
G37*
X176175000Y-124425000D02*
X173825000Y-124425000D01*
X173825000Y-120325000D01*
X176175000Y-120325000D01*
X176175000Y-124425000D01*
G36*
X175925000Y-89425000D02*
X172575000Y-89425000D01*
X172575000Y-85575000D01*
X175925000Y-85575000D01*
X175925000Y-89425000D01*
X175925000Y-89425000D01*
G37*
X175925000Y-89425000D02*
X172575000Y-89425000D01*
X172575000Y-85575000D01*
X175925000Y-85575000D01*
X175925000Y-89425000D01*
M02*
