M48
;DRILL file {KiCad 4.0.5} date 03/01/17 00:05:58
;FORMAT={3:3/ absolute / metric / suppress leading zeros}
FMAT,2
METRIC,TZ
T1C0.300
T2C1.016
T3C0.899
T4C2.500
%
G90
G05
M71
T1
X140000Y-102000
X140000Y-104000
X140000Y-106000
X140000Y-108000
X140000Y-110000
X140500Y-112750
X141000Y-119000
X141000Y-121000
X141250Y-114500
X142000Y-104000
X142000Y-106000
X142000Y-108000
X142000Y-110000
X143000Y-119000
X144000Y-114000
X144250Y-119250
X144750Y-115000
X144849Y-108849
X145000Y-116000
X147475Y-115000
X147475Y-116500
X147475Y-118000
X148000Y-86000
X148000Y-110000
X148750Y-111250
X148975Y-115000
X148975Y-116500
X148975Y-118000
X149500Y-93000
X149750Y-112000
X150000Y-86000
X150000Y-109000
X150250Y-93250
X150250Y-121500
X150475Y-115000
X150475Y-116500
X150475Y-118000
X150500Y-120750
X152000Y-86000
X152000Y-109000
X152250Y-121775
X152750Y-111750
X153000Y-113750
X153073Y-115666
X153093Y-116494
X153264Y-114941
X153750Y-97000
X154000Y-86000
X154000Y-108000
X154500Y-101750
X155500Y-121000
X156000Y-86000
X156000Y-108000
X156000Y-124000
X157000Y-99000
X157000Y-101000
X157000Y-110000
X157750Y-115750
X158000Y-86000
X158000Y-103250
X158000Y-112000
X158000Y-117000
X158000Y-124000
X159000Y-99000
X159000Y-101000
X159000Y-117000
X159000Y-120000
X159250Y-108000
X160000Y-86000
X160000Y-124000
X160250Y-91750
X161500Y-91750
X161500Y-92500
X162000Y-86000
X162750Y-116250
X163000Y-105000
X164000Y-86000
X164000Y-104000
X164000Y-124000
X165250Y-117750
X166000Y-86000
X166000Y-93000
X166000Y-95000
X166000Y-104000
X166000Y-109000
X166000Y-112000
X166000Y-124000
X167000Y-118000
X168000Y-93000
X168000Y-95000
X168000Y-104000
X168000Y-112000
X168000Y-124000
X169000Y-117000
X169750Y-111500
X170000Y-93000
X170000Y-95000
X170000Y-124000
X171000Y-111250
X172000Y-124000
X172500Y-90250
X172500Y-91250
X172750Y-86500
X172750Y-87500
X172750Y-88500
X173000Y-103000
X173700Y-104100
X173750Y-86500
X173750Y-87500
X173750Y-88500
X174000Y-91000
X174000Y-94000
X174250Y-121250
X174250Y-122250
X174250Y-123500
X175000Y-118800
X175500Y-105250
X175900Y-96600
X176250Y-105750
X176750Y-100250
X176750Y-106750
X177500Y-108500
X178000Y-97600
X178379Y-108379
X178500Y-101750
X178900Y-109600
X179182Y-107252
X179400Y-98200
X179500Y-99300
X179900Y-112200
X180000Y-110900
X180200Y-103100
X180200Y-104000
X180200Y-104900
X181100Y-103100
X181100Y-104000
X181100Y-104900
X181900Y-107000
X182000Y-85700
X182000Y-86600
X182000Y-87500
X182000Y-88400
X182000Y-89300
X182000Y-103100
X182000Y-104000
X182000Y-104900
X182100Y-101000
X182250Y-121000
X182250Y-122000
X182250Y-123000
X182250Y-124000
X182952Y-101753
X183000Y-85700
X183000Y-86600
X183000Y-87500
X183000Y-88400
X183000Y-89300
X183000Y-106250
X183300Y-99200
X183500Y-121000
X183500Y-122000
X183500Y-123000
X183500Y-124000
X183700Y-101700
X183882Y-106300
X184154Y-103675
X184629Y-104325
X185000Y-108500
X186900Y-103700
X187300Y-105300
X187600Y-100900
X187600Y-107000
X191500Y-86500
X191500Y-87500
X191500Y-88500
X191500Y-89500
X191500Y-121500
X191500Y-123000
X192250Y-122250
X192250Y-123750
X192500Y-86500
X192500Y-87500
X192500Y-88500
X192500Y-89500
X192750Y-123000
X193250Y-95750
X193250Y-96750
X193250Y-105250
X193250Y-106250
X193250Y-114500
X193250Y-115500
X193250Y-123750
X193500Y-86500
X193500Y-87500
X194250Y-95750
X194250Y-96750
X194250Y-105250
X194250Y-106250
X194250Y-114500
X194250Y-115500
X194250Y-123750
X194500Y-86500
X194500Y-87500
X195250Y-95750
X195250Y-96750
X195250Y-105250
X195250Y-106250
X195250Y-114500
X195250Y-115500
X195250Y-123750
X195500Y-86500
X195500Y-87500
X196250Y-95750
X196250Y-96750
X196250Y-105250
X196250Y-106250
X196250Y-114500
X196250Y-115500
X196250Y-123750
X196500Y-86500
X196500Y-87500
X197250Y-95750
X197250Y-96750
X197250Y-105250
X197250Y-106250
X197250Y-114500
X197250Y-115500
T2
X141150Y-123000
X143690Y-123000
X146230Y-123000
X148770Y-123000
X151310Y-123000
X153850Y-123000
T3
X143851Y-91800
X143851Y-96200
T4
X143600Y-87000
X169600Y-87000
T0
M30
